STARTFONT 2.1
COMMENT
COMMENT Converted from OpenType font "NimbusSans-Regular.otf" by "otf2bdf 3.0".
COMMENT
FONT -FreeType-Nimbus Sans-Medium-R-Normal--28-200-100-100-P-147-ISO10646-1
SIZE 20 100 100
FONTBOUNDINGBOX 35 38 -6 -8
STARTPROPERTIES 19
FOUNDRY "FreeType"
FAMILY_NAME "Nimbus Sans"
WEIGHT_NAME "Medium"
SLANT "R"
SETWIDTH_NAME "Normal"
ADD_STYLE_NAME ""
PIXEL_SIZE 28
POINT_SIZE 200
RESOLUTION_X 100
RESOLUTION_Y 100
SPACING "P"
AVERAGE_WIDTH 147
CHARSET_REGISTRY "ISO10646"
CHARSET_ENCODING "1"
FONT_ASCENT 20
FONT_DESCENT 7
COPYRIGHT "(URW)++,Copyright 2014 by (URW)++ Design & Development"
_OTF_FONTFILE "NimbusSans-Regular.otf"
_OTF_PSNAME "NimbusSans-Regular"
ENDPROPERTIES
CHARS 854
STARTCHAR 0020
ENCODING 32
SWIDTH 288 0
DWIDTH 8 0
BBX 0 0 0 0
BITMAP
ENDCHAR
STARTCHAR 0021
ENCODING 33
SWIDTH 288 0
DWIDTH 8 0
BBX 3 20 3 0
BITMAP
E0
E0
E0
E0
E0
E0
E0
E0
E0
E0
60
60
40
40
40
00
00
E0
E0
E0
ENDCHAR
STARTCHAR 0022
ENCODING 34
SWIDTH 360 0
DWIDTH 10 0
BBX 7 7 1 13
BITMAP
E6
E6
E6
E6
66
66
46
ENDCHAR
STARTCHAR 0023
ENCODING 35
SWIDTH 540 0
DWIDTH 15 0
BBX 15 20 0 0
BITMAP
0318
0718
0618
0618
0638
7FFE
7FFE
0C30
0C30
0C30
0C70
0C60
FFFC
FFFC
1860
18E0
18C0
18C0
38C0
30C0
ENDCHAR
STARTCHAR 0024
ENCODING 36
SWIDTH 540 0
DWIDTH 15 0
BBX 14 25 1 -4
BITMAP
0300
0FC0
3FE0
7370
6338
6318
E318
6300
7300
7B00
3F80
0FF0
03F8
0338
031C
C31C
C31C
E318
6338
7B70
3FE0
0700
0300
0300
0300
ENDCHAR
STARTCHAR 0025
ENCODING 37
SWIDTH 900 0
DWIDTH 25 0
BBX 23 21 1 0
BITMAP
0000C0
1E0180
7F0180
E38300
C18300
C18600
C18400
C18C00
E38800
7F1800
1C1000
003000
0060F0
0061FC
00C30C
00C306
018606
018306
03030C
0301FC
0600F0
ENDCHAR
STARTCHAR 0026
ENCODING 38
SWIDTH 684 0
DWIDTH 19 0
BBX 16 20 1 0
BITMAP
07C0
0FE0
1C70
1830
1830
1830
1C60
0FC0
0780
0F80
3984
71C6
60EE
607C
E03C
6018
703C
78FE
3FC6
0F87
ENDCHAR
STARTCHAR 0027
ENCODING 39
SWIDTH 180 0
DWIDTH 5 0
BBX 3 7 1 13
BITMAP
E0
E0
E0
E0
60
60
40
ENDCHAR
STARTCHAR 0028
ENCODING 40
SWIDTH 324 0
DWIDTH 9 0
BBX 6 26 2 -6
BITMAP
0C
08
18
30
30
30
60
60
60
E0
C0
C0
C0
C0
C0
C0
E0
60
60
60
70
30
30
18
18
0C
ENDCHAR
STARTCHAR 0029
ENCODING 41
SWIDTH 324 0
DWIDTH 9 0
BBX 6 26 1 -6
BITMAP
C0
60
60
30
30
18
18
18
1C
0C
0C
0C
0C
0C
0C
0C
0C
1C
18
18
18
30
30
20
60
C0
ENDCHAR
STARTCHAR 002A
ENCODING 42
SWIDTH 396 0
DWIDTH 11 0
BBX 8 8 1 12
BITMAP
18
18
C9
FF
1C
3C
36
22
ENDCHAR
STARTCHAR 002B
ENCODING 43
SWIDTH 576 0
DWIDTH 16 0
BBX 14 14 1 0
BITMAP
0300
0300
0300
0300
0300
0300
FFFC
FFFC
0300
0300
0300
0300
0300
0300
ENDCHAR
STARTCHAR 002C
ENCODING 44
SWIDTH 288 0
DWIDTH 8 0
BBX 3 7 2 -4
BITMAP
E0
E0
E0
20
20
20
C0
ENDCHAR
STARTCHAR 002D
ENCODING 45
SWIDTH 324 0
DWIDTH 9 0
BBX 7 2 1 7
BITMAP
FE
FE
ENDCHAR
STARTCHAR 002E
ENCODING 46
SWIDTH 288 0
DWIDTH 8 0
BBX 3 3 2 0
BITMAP
E0
E0
E0
ENDCHAR
STARTCHAR 002F
ENCODING 47
SWIDTH 288 0
DWIDTH 8 0
BBX 8 20 0 0
BITMAP
03
02
02
06
04
04
0C
08
08
18
10
10
30
20
20
60
40
40
C0
80
ENDCHAR
STARTCHAR 0030
ENCODING 48
SWIDTH 540 0
DWIDTH 15 0
BBX 13 20 1 0
BITMAP
0F80
1FE0
38E0
7070
7030
6038
E038
E038
E018
E018
E018
E018
E038
E038
6038
7030
7070
38E0
1FE0
0F80
ENDCHAR
STARTCHAR 0031
ENCODING 49
SWIDTH 540 0
DWIDTH 15 0
BBX 7 20 3 0
BITMAP
06
06
0E
3E
FE
FE
0E
0E
0E
0E
0E
0E
0E
0E
0E
0E
0E
0E
0E
0E
ENDCHAR
STARTCHAR 0032
ENCODING 50
SWIDTH 540 0
DWIDTH 15 0
BBX 13 20 1 0
BITMAP
0FC0
3FE0
38F0
7038
6038
E018
E018
0038
0038
0070
01E0
07C0
0F00
1C00
3800
7000
6000
E000
FFF8
FFF8
ENDCHAR
STARTCHAR 0033
ENCODING 51
SWIDTH 540 0
DWIDTH 15 0
BBX 13 20 1 0
BITMAP
0F80
3FE0
78F0
6070
6030
E030
0030
0070
07E0
07C0
01F0
0038
0038
0018
C018
E038
E038
78F0
3FE0
1F80
ENDCHAR
STARTCHAR 0034
ENCODING 52
SWIDTH 540 0
DWIDTH 15 0
BBX 13 20 1 0
BITMAP
00E0
00E0
01E0
03E0
03E0
06E0
0CE0
1CE0
18E0
30E0
70E0
60E0
C0E0
FFF8
FFF8
00E0
00E0
00E0
00E0
00E0
ENDCHAR
STARTCHAR 0035
ENCODING 53
SWIDTH 540 0
DWIDTH 15 0
BBX 13 20 1 0
BITMAP
3FF0
3FF0
3000
3000
7000
7000
6000
6FC0
7FE0
7070
6038
0038
0018
0018
0018
E038
E038
78F0
3FE0
0F80
ENDCHAR
STARTCHAR 0036
ENCODING 54
SWIDTH 540 0
DWIDTH 15 0
BBX 13 20 1 0
BITMAP
07C0
1FE0
3C70
3038
7038
6000
6000
E7C0
FFE0
F870
F038
E038
E018
E018
6018
6038
7038
38F0
1FE0
0F80
ENDCHAR
STARTCHAR 0037
ENCODING 55
SWIDTH 540 0
DWIDTH 15 0
BBX 13 20 1 0
BITMAP
FFF8
FFF8
0018
0030
0030
0060
00C0
00C0
0180
0180
0300
0300
0700
0600
0E00
0E00
0C00
1C00
1C00
1C00
ENDCHAR
STARTCHAR 0038
ENCODING 56
SWIDTH 540 0
DWIDTH 15 0
BBX 13 20 1 0
BITMAP
0F80
3FE0
38F0
7030
6038
6038
7030
3870
1FE0
3FE0
7870
6038
E018
E018
E018
E038
6038
78F0
3FE0
0F80
ENDCHAR
STARTCHAR 0039
ENCODING 57
SWIDTH 540 0
DWIDTH 15 0
BBX 13 20 1 0
BITMAP
0F80
3FE0
78F0
6070
E038
E038
E038
E038
E038
7078
3FD8
1F98
0038
0038
0038
6030
7070
78E0
3FC0
0F80
ENDCHAR
STARTCHAR 003A
ENCODING 58
SWIDTH 288 0
DWIDTH 8 0
BBX 3 15 3 0
BITMAP
E0
E0
E0
00
00
00
00
00
00
00
00
00
E0
E0
E0
ENDCHAR
STARTCHAR 003B
ENCODING 59
SWIDTH 288 0
DWIDTH 8 0
BBX 3 19 3 -4
BITMAP
E0
E0
E0
00
00
00
00
00
00
00
00
00
E0
E0
E0
20
20
60
C0
ENDCHAR
STARTCHAR 003C
ENCODING 60
SWIDTH 576 0
DWIDTH 16 0
BBX 14 13 1 0
BITMAP
000C
007C
01F0
07C0
3E00
F800
E000
7C00
1F00
03E0
00F8
003C
0004
ENDCHAR
STARTCHAR 003D
ENCODING 61
SWIDTH 576 0
DWIDTH 16 0
BBX 14 7 1 3
BITMAP
FFFC
FFFC
0000
0000
0000
FFFC
FFFC
ENDCHAR
STARTCHAR 003E
ENCODING 62
SWIDTH 576 0
DWIDTH 16 0
BBX 14 13 1 0
BITMAP
E000
F800
3E00
0FC0
01F0
007C
001C
00F8
03E0
0F80
7C00
F000
C000
ENDCHAR
STARTCHAR 003F
ENCODING 63
SWIDTH 540 0
DWIDTH 15 0
BBX 12 20 2 0
BITMAP
1F80
3FE0
70E0
6070
E030
E030
0070
0070
00E0
01C0
0380
0700
0600
0600
0600
0000
0000
0600
0600
0600
ENDCHAR
STARTCHAR 0040
ENCODING 64
SWIDTH 1008 0
DWIDTH 28 0
BBX 25 24 1 -4
BITMAP
003F8000
01FFF000
03C0F800
0F003E00
1E000E00
18000700
381E0380
707F6380
60E1E180
60C0E180
E1C0E180
C180C180
C380C180
C381C380
C3818300
E1C38700
E0FD8E00
7079FC00
7000F000
38000000
1E000000
0FC0C000
03FFE000
007F8000
ENDCHAR
STARTCHAR 0041
ENCODING 65
SWIDTH 684 0
DWIDTH 19 0
BBX 17 20 1 0
BITMAP
03C000
03E000
03E000
076000
077000
067000
0E3000
0E3800
0C3800
1C1800
181C00
181C00
3FFC00
3FFE00
700E00
700700
600700
E00700
E00380
C00380
ENDCHAR
STARTCHAR 0042
ENCODING 66
SWIDTH 684 0
DWIDTH 19 0
BBX 15 20 2 0
BITMAP
FFE0
FFF8
E03C
E01C
E00C
E00C
E00C
E01C
E038
FFF0
FFF8
E01E
E00E
E006
E006
E006
E00E
E01C
FFFC
FFF0
ENDCHAR
STARTCHAR 0043
ENCODING 67
SWIDTH 720 0
DWIDTH 20 0
BBX 18 20 1 0
BITMAP
03F800
0FFE00
1F1F00
380700
380380
700180
600000
600000
E00000
E00000
E00000
E00000
6001C0
7001C0
700180
380380
3C0780
1F1F00
0FFE00
03F800
ENDCHAR
STARTCHAR 0044
ENCODING 68
SWIDTH 720 0
DWIDTH 20 0
BBX 17 20 2 0
BITMAP
FFE000
FFF800
E03C00
E00E00
E00700
E00700
E00700
E00300
E00380
E00380
E00380
E00300
E00300
E00300
E00700
E00600
E00E00
E07C00
FFF800
FFE000
ENDCHAR
STARTCHAR 0045
ENCODING 69
SWIDTH 684 0
DWIDTH 19 0
BBX 14 20 3 0
BITMAP
FFFC
FFFC
C000
C000
C000
C000
C000
C000
C000
FFF8
FFF8
C000
C000
C000
C000
C000
C000
C000
FFFC
FFFC
ENDCHAR
STARTCHAR 0046
ENCODING 70
SWIDTH 612 0
DWIDTH 17 0
BBX 13 20 3 0
BITMAP
FFF8
FFF8
C000
C000
C000
C000
C000
C000
C000
FFF0
FFF0
C000
C000
C000
C000
C000
C000
C000
C000
C000
ENDCHAR
STARTCHAR 0047
ENCODING 71
SWIDTH 792 0
DWIDTH 22 0
BBX 19 20 1 0
BITMAP
01F800
07FE00
1F0F80
3C0380
3801C0
7000C0
600000
E00000
E00000
E03FE0
E03FE0
E000E0
6000E0
7000E0
7000E0
3801E0
3C03E0
1F1F60
0FFC60
03F000
ENDCHAR
STARTCHAR 0048
ENCODING 72
SWIDTH 720 0
DWIDTH 20 0
BBX 16 20 2 0
BITMAP
E007
E007
E007
E007
E007
E007
E007
E007
E007
FFFF
FFFF
E007
E007
E007
E007
E007
E007
E007
E007
E007
ENDCHAR
STARTCHAR 0049
ENCODING 73
SWIDTH 288 0
DWIDTH 8 0
BBX 2 20 3 0
BITMAP
C0
C0
C0
C0
C0
C0
C0
C0
C0
C0
C0
C0
C0
C0
C0
C0
C0
C0
C0
C0
ENDCHAR
STARTCHAR 004A
ENCODING 74
SWIDTH 504 0
DWIDTH 14 0
BBX 12 20 0 0
BITMAP
0070
0070
0070
0070
0070
0070
0070
0070
0070
0070
0070
0070
0070
E070
E070
6070
7070
78E0
3FC0
1F80
ENDCHAR
STARTCHAR 004B
ENCODING 75
SWIDTH 684 0
DWIDTH 19 0
BBX 16 20 2 0
BITMAP
E00F
E01E
E03C
E078
E0F0
E1E0
E3C0
E780
EF00
FF80
F9C0
F1C0
E0E0
E070
E070
E038
E01C
E01E
E00E
E007
ENDCHAR
STARTCHAR 004C
ENCODING 76
SWIDTH 540 0
DWIDTH 15 0
BBX 13 20 2 0
BITMAP
E000
E000
E000
E000
E000
E000
E000
E000
E000
E000
E000
E000
E000
E000
E000
E000
E000
E000
FFF8
FFF8
ENDCHAR
STARTCHAR 004D
ENCODING 77
SWIDTH 828 0
DWIDTH 23 0
BBX 19 20 2 0
BITMAP
F001E0
F001E0
F801E0
F803E0
F80360
FC0360
EC0760
EC0660
EE0660
E60E60
E60C60
E70C60
E31C60
E31860
E39860
E1B860
E1B060
E1F060
E0F060
E0E060
ENDCHAR
STARTCHAR 004E
ENCODING 78
SWIDTH 720 0
DWIDTH 20 0
BBX 16 20 2 0
BITMAP
E007
F007
F807
F807
FC07
EC07
EE07
E707
E307
E387
E1C7
E0C7
E0E7
E077
E077
E03F
E01F
E01F
E00F
E007
ENDCHAR
STARTCHAR 004F
ENCODING 79
SWIDTH 792 0
DWIDTH 22 0
BBX 20 20 1 0
BITMAP
01F800
0FFE00
1F0F80
3C03C0
3801C0
7000E0
6000E0
E00060
E00070
E00070
E00070
E00070
E00060
6000E0
7000E0
7801C0
3C0380
1F0F80
0FFE00
03F800
ENDCHAR
STARTCHAR 0050
ENCODING 80
SWIDTH 684 0
DWIDTH 19 0
BBX 14 20 3 0
BITMAP
FFE0
FFF8
C078
C01C
C01C
C01C
C01C
C01C
C03C
FFF8
FFE0
C000
C000
C000
C000
C000
C000
C000
C000
C000
ENDCHAR
STARTCHAR 0051
ENCODING 81
SWIDTH 792 0
DWIDTH 22 0
BBX 20 21 1 -1
BITMAP
01F800
0FFE00
1F0F80
3C03C0
7801C0
7000E0
6000E0
E00060
E00070
E00070
E00070
E00070
E00060
6000E0
7008E0
781DC0
3C0F80
1F0F80
0FFFC0
03F8E0
000040
ENDCHAR
STARTCHAR 0052
ENCODING 82
SWIDTH 720 0
DWIDTH 20 0
BBX 16 20 3 0
BITMAP
FFF0
FFFC
C03C
C00E
C00E
C00E
C00E
C00E
C01C
FFF8
FFF8
C03C
C00C
C00E
C00E
C00E
C00E
C00E
C00E
C007
ENDCHAR
STARTCHAR 0053
ENCODING 83
SWIDTH 684 0
DWIDTH 19 0
BBX 16 20 1 0
BITMAP
07F0
1FFC
3C3C
700E
7006
7007
7000
7800
3F00
1FF0
01FC
001E
0007
E007
E003
6007
7007
3E1E
1FFC
07F0
ENDCHAR
STARTCHAR 0054
ENCODING 84
SWIDTH 612 0
DWIDTH 17 0
BBX 15 20 1 0
BITMAP
FFFE
FFFE
0380
0380
0380
0380
0380
0380
0380
0380
0380
0380
0380
0380
0380
0380
0380
0380
0380
0380
ENDCHAR
STARTCHAR 0055
ENCODING 85
SWIDTH 720 0
DWIDTH 20 0
BBX 16 20 2 0
BITMAP
E007
E007
E007
E007
E007
E007
E007
E007
E007
E007
E007
E007
E007
E007
E007
6007
700E
3C3E
1FF8
07E0
ENDCHAR
STARTCHAR 0056
ENCODING 86
SWIDTH 684 0
DWIDTH 19 0
BBX 17 20 1 0
BITMAP
E00380
E00300
700700
700700
700600
380E00
380E00
180C00
1C1C00
1C1C00
0C1800
0E3800
0E3800
063000
077000
076000
036000
03E000
01C000
01C000
ENDCHAR
STARTCHAR 0057
ENCODING 87
SWIDTH 936 0
DWIDTH 26 0
BBX 25 20 1 0
BITMAP
E01C0380
E03C0300
E03C0700
E03E0700
703E0700
70760600
70660E00
30670E00
38E30E00
38E30C00
38C38C00
18C39C00
19C19C00
1D819800
1D81D800
0D80F800
0F80F800
0F00F000
0F00F000
07007000
ENDCHAR
STARTCHAR 0058
ENCODING 88
SWIDTH 684 0
DWIDTH 19 0
BBX 17 20 1 0
BITMAP
F00700
700700
380E00
3C1C00
1C1C00
0E3800
077000
076000
03E000
01C000
03C000
03E000
077000
0E7800
1C3800
1C1C00
381E00
700E00
700700
E00780
ENDCHAR
STARTCHAR 0059
ENCODING 89
SWIDTH 684 0
DWIDTH 19 0
BBX 17 20 1 0
BITMAP
E00380
E00700
700700
380E00
380E00
1C1C00
0E3800
0E3800
077000
076000
03E000
01C000
01C000
01C000
01C000
01C000
01C000
01C000
01C000
01C000
ENDCHAR
STARTCHAR 005A
ENCODING 90
SWIDTH 612 0
DWIDTH 17 0
BBX 15 20 1 0
BITMAP
7FFE
7FFE
000E
001C
0038
0078
0070
00E0
01C0
03C0
0780
0700
0E00
1C00
3C00
3800
7000
E000
FFFE
FFFE
ENDCHAR
STARTCHAR 005B
ENCODING 91
SWIDTH 288 0
DWIDTH 8 0
BBX 5 26 2 -6
BITMAP
F8
F8
C0
C0
C0
C0
C0
C0
C0
C0
C0
C0
C0
C0
C0
C0
C0
C0
C0
C0
C0
C0
C0
C0
F8
F8
ENDCHAR
STARTCHAR 005C
ENCODING 92
SWIDTH 288 0
DWIDTH 8 0
BBX 8 20 0 0
BITMAP
80
C0
40
40
60
20
20
30
10
10
18
08
08
0C
04
04
06
02
02
03
ENDCHAR
STARTCHAR 005D
ENCODING 93
SWIDTH 288 0
DWIDTH 8 0
BBX 5 26 1 -6
BITMAP
F8
F8
38
38
38
38
38
38
38
38
38
38
38
38
38
38
38
38
38
38
38
38
38
38
F8
F8
ENDCHAR
STARTCHAR 005E
ENCODING 94
SWIDTH 468 0
DWIDTH 13 0
BBX 11 11 1 9
BITMAP
0E00
0E00
0E00
1B00
1B00
3180
3180
2080
60C0
60C0
C060
ENDCHAR
STARTCHAR 005F
ENCODING 95
SWIDTH 540 0
DWIDTH 15 0
BBX 17 1 -1 -5
BITMAP
FFFF80
ENDCHAR
STARTCHAR 0060
ENCODING 96
SWIDTH 324 0
DWIDTH 9 0
BBX 5 4 1 16
BITMAP
E0
70
30
18
ENDCHAR
STARTCHAR 0061
ENCODING 97
SWIDTH 540 0
DWIDTH 15 0
BBX 14 15 1 0
BITMAP
0FC0
3FE0
78F0
6030
6030
0030
03F0
3FF0
7830
E030
E030
E070
F0F0
7FBC
3F1C
ENDCHAR
STARTCHAR 0062
ENCODING 98
SWIDTH 540 0
DWIDTH 15 0
BBX 13 20 2 0
BITMAP
C000
C000
C000
C000
C000
CF80
DFC0
F1E0
E070
C070
C030
C038
C038
C030
C030
C030
E070
F1E0
FFC0
CF80
ENDCHAR
STARTCHAR 0063
ENCODING 99
SWIDTH 504 0
DWIDTH 14 0
BBX 12 15 1 0
BITMAP
0F80
3FE0
78E0
6070
E030
E000
C000
C000
C000
E000
E030
6070
78E0
3FE0
0F80
ENDCHAR
STARTCHAR 0064
ENCODING 100
SWIDTH 540 0
DWIDTH 15 0
BBX 13 20 1 0
BITMAP
0038
0038
0038
0038
0038
0F38
3FF8
78F8
6078
E038
C038
C038
C038
C038
C038
E038
6078
78F8
3FD8
1F18
ENDCHAR
STARTCHAR 0065
ENCODING 101
SWIDTH 540 0
DWIDTH 15 0
BBX 13 15 1 0
BITMAP
0F80
1FE0
38F0
7038
6038
E018
FFF8
FFF8
E000
E000
6038
7030
7870
3FE0
0F80
ENDCHAR
STARTCHAR 0066
ENCODING 102
SWIDTH 288 0
DWIDTH 8 0
BBX 6 20 1 0
BITMAP
1C
3C
30
70
70
FC
FC
70
70
70
70
70
70
70
70
70
70
70
70
70
ENDCHAR
STARTCHAR 0067
ENCODING 103
SWIDTH 540 0
DWIDTH 15 0
BBX 12 20 1 -5
BITMAP
0F30
3FF0
78F0
6070
E070
E030
C030
C030
C030
E030
E030
6070
78F0
3FB0
0F30
0030
6070
7060
3FC0
1F80
ENDCHAR
STARTCHAR 0068
ENCODING 104
SWIDTH 540 0
DWIDTH 15 0
BBX 12 20 2 0
BITMAP
C000
C000
C000
C000
C000
C780
DFE0
F0E0
E070
E070
C070
C070
C070
C070
C070
C070
C070
C070
C070
C070
ENDCHAR
STARTCHAR 0069
ENCODING 105
SWIDTH 216 0
DWIDTH 6 0
BBX 2 20 2 0
BITMAP
C0
C0
C0
00
00
C0
C0
C0
C0
C0
C0
C0
C0
C0
C0
C0
C0
C0
C0
C0
ENDCHAR
STARTCHAR 006A
ENCODING 106
SWIDTH 216 0
DWIDTH 6 0
BBX 5 26 -1 -6
BITMAP
18
18
18
00
00
18
18
18
18
18
18
18
18
18
18
18
18
18
18
18
18
18
18
18
F8
F0
ENDCHAR
STARTCHAR 006B
ENCODING 107
SWIDTH 504 0
DWIDTH 14 0
BBX 12 20 2 0
BITMAP
C000
C000
C000
C000
C000
C0E0
C1C0
C380
C700
CE00
DC00
FE00
F600
E700
C380
C380
C1C0
C0C0
C0E0
C070
ENDCHAR
STARTCHAR 006C
ENCODING 108
SWIDTH 216 0
DWIDTH 6 0
BBX 2 20 2 0
BITMAP
C0
C0
C0
C0
C0
C0
C0
C0
C0
C0
C0
C0
C0
C0
C0
C0
C0
C0
C0
C0
ENDCHAR
STARTCHAR 006D
ENCODING 109
SWIDTH 828 0
DWIDTH 23 0
BBX 19 15 2 0
BITMAP
CF8780
DFDFE0
F1F8E0
E0E060
C0E060
C0E060
C0E060
C0E060
C0E060
C0E060
C0E060
C0E060
C0E060
C0E060
C0E060
ENDCHAR
STARTCHAR 006E
ENCODING 110
SWIDTH 540 0
DWIDTH 15 0
BBX 12 15 2 0
BITMAP
CF80
DFE0
F0E0
E070
E070
C070
C070
C070
C070
C070
C070
C070
C070
C070
C070
ENDCHAR
STARTCHAR 006F
ENCODING 111
SWIDTH 540 0
DWIDTH 15 0
BBX 13 15 1 0
BITMAP
0F80
3FE0
78F0
7030
E038
E018
C018
C018
E018
E018
E038
7030
78F0
3FE0
0F80
ENDCHAR
STARTCHAR 0070
ENCODING 112
SWIDTH 540 0
DWIDTH 15 0
BBX 13 20 2 -5
BITMAP
DF80
FFC0
F1E0
E070
C070
C030
C038
C038
C038
C030
C030
E070
F1E0
FFC0
CF80
C000
C000
C000
C000
C000
ENDCHAR
STARTCHAR 0071
ENCODING 113
SWIDTH 540 0
DWIDTH 15 0
BBX 13 21 1 -6
BITMAP
0F98
3FD8
78F8
6078
E038
C038
C038
C038
C038
C038
E038
E078
78F8
3FF8
1F38
0038
0038
0038
0038
0038
0018
ENDCHAR
STARTCHAR 0072
ENCODING 114
SWIDTH 324 0
DWIDTH 9 0
BBX 7 15 2 0
BITMAP
CE
DE
F0
E0
E0
C0
C0
C0
C0
C0
C0
C0
C0
C0
C0
ENDCHAR
STARTCHAR 0073
ENCODING 115
SWIDTH 504 0
DWIDTH 14 0
BBX 12 15 1 0
BITMAP
1F80
3FC0
71E0
E060
E000
F000
7E00
3FC0
03E0
0070
C070
E070
F0E0
7FC0
1F80
ENDCHAR
STARTCHAR 0074
ENCODING 116
SWIDTH 288 0
DWIDTH 8 0
BBX 7 19 0 0
BITMAP
38
38
38
38
FE
FE
38
38
38
38
38
38
38
38
38
38
38
3E
1E
ENDCHAR
STARTCHAR 0075
ENCODING 117
SWIDTH 540 0
DWIDTH 15 0
BBX 11 15 2 -1
BITMAP
C060
C060
C060
C060
C060
C060
C060
C060
C060
C060
C060
C0E0
E1E0
7FE0
3F60
ENDCHAR
STARTCHAR 0076
ENCODING 118
SWIDTH 504 0
DWIDTH 14 0
BBX 13 15 0 0
BITMAP
E018
6038
7038
7030
3070
3860
3860
18E0
1CC0
1CC0
0DC0
0F80
0780
0700
0700
ENDCHAR
STARTCHAR 0077
ENCODING 119
SWIDTH 720 0
DWIDTH 20 0
BBX 20 15 0 0
BITMAP
E0E070
60F060
60F0E0
70F0E0
71F0C0
31B8C0
3199C0
3999C0
1B9980
1B1D80
1B0F80
1F0F00
0F0F00
0E0F00
0E0700
ENDCHAR
STARTCHAR 0078
ENCODING 120
SWIDTH 504 0
DWIDTH 14 0
BBX 12 15 1 0
BITMAP
E070
60E0
70C0
39C0
1B80
1F00
0F00
0600
0F00
1F80
3980
31C0
70E0
E0E0
C070
ENDCHAR
STARTCHAR 0079
ENCODING 121
SWIDTH 504 0
DWIDTH 14 0
BBX 12 21 1 -6
BITMAP
C030
E070
E060
6060
60E0
70C0
30C0
31C0
3980
1B80
1B00
1F00
0F00
0E00
0E00
0E00
0C00
1C00
1C00
F800
F000
ENDCHAR
STARTCHAR 007A
ENCODING 122
SWIDTH 504 0
DWIDTH 14 0
BBX 12 15 1 0
BITMAP
FFE0
FFE0
00E0
01C0
0180
0380
0700
0E00
1C00
1800
3800
7000
E000
FFF0
FFF0
ENDCHAR
STARTCHAR 007B
ENCODING 123
SWIDTH 324 0
DWIDTH 9 0
BBX 7 26 1 -6
BITMAP
0E
1E
38
38
38
38
38
38
38
30
30
30
E0
E0
70
30
30
38
38
38
38
38
38
38
1E
1E
ENDCHAR
STARTCHAR 007C
ENCODING 124
SWIDTH 252 0
DWIDTH 7 0
BBX 1 26 3 -6
BITMAP
80
80
80
80
80
80
80
80
80
80
80
80
80
80
80
80
80
80
80
80
80
80
80
80
80
80
ENDCHAR
STARTCHAR 007D
ENCODING 125
SWIDTH 324 0
DWIDTH 9 0
BBX 6 26 1 -6
BITMAP
E0
F0
30
30
30
30
30
30
30
30
30
18
1C
0C
18
30
30
30
30
30
30
30
30
30
F0
E0
ENDCHAR
STARTCHAR 007E
ENCODING 126
SWIDTH 576 0
DWIDTH 16 0
BBX 12 5 2 7
BITMAP
3800
7C10
CF30
C3F0
00E0
ENDCHAR
STARTCHAR 00A0
ENCODING 160
SWIDTH 288 0
DWIDTH 8 0
BBX 0 0 0 0
BITMAP
ENDCHAR
STARTCHAR 00A1
ENCODING 161
SWIDTH 324 0
DWIDTH 9 0
BBX 3 20 3 -5
BITMAP
E0
E0
E0
00
00
40
40
40
40
60
E0
E0
E0
E0
E0
E0
E0
E0
E0
E0
ENDCHAR
STARTCHAR 00A2
ENCODING 162
SWIDTH 540 0
DWIDTH 15 0
BBX 13 20 1 -3
BITMAP
0300
0300
07C0
1FE0
3F70
7338
7338
6300
6300
E300
E300
6300
6318
7338
3B38
3FF0
1FE0
0380
0300
0300
ENDCHAR
STARTCHAR 00A3
ENCODING 163
SWIDTH 540 0
DWIDTH 15 0
BBX 14 20 1 0
BITMAP
0FC0
1FE0
3870
7038
6038
6018
6000
7000
7000
FF80
FF80
1C00
1C00
1C00
1800
1800
3000
7FF8
FFFC
41F0
ENDCHAR
STARTCHAR 00A4
ENCODING 164
SWIDTH 540 0
DWIDTH 15 0
BBX 11 12 2 3
BITMAP
4000
FF60
7FE0
71C0
60E0
6060
6060
60E0
71C0
7FE0
FF60
4000
ENDCHAR
STARTCHAR 00A5
ENCODING 165
SWIDTH 540 0
DWIDTH 15 0
BBX 15 20 0 0
BITMAP
E006
600C
301C
3818
1838
1C30
0C70
0660
06C0
03C0
3FFC
0180
0180
0180
3FFC
0180
0180
0180
0180
0180
ENDCHAR
STARTCHAR 00A6
ENCODING 166
SWIDTH 252 0
DWIDTH 7 0
BBX 1 26 3 -6
BITMAP
80
80
80
80
80
80
80
80
80
80
80
00
00
00
00
80
80
80
80
80
80
80
80
80
80
80
ENDCHAR
STARTCHAR 00A7
ENCODING 167
SWIDTH 540 0
DWIDTH 15 0
BBX 13 26 1 -6
BITMAP
0780
1FE0
38F0
3870
3830
3800
1E00
3F00
67C0
61E0
C0F0
E038
E038
7018
3C18
1E38
0F30
03E0
01E0
00E0
7060
7060
7060
38E0
3FC0
0F80
ENDCHAR
STARTCHAR 00A8
ENCODING 168
SWIDTH 324 0
DWIDTH 9 0
BBX 7 3 1 17
BITMAP
EE
EE
EE
ENDCHAR
STARTCHAR 00A9
ENCODING 169
SWIDTH 720 0
DWIDTH 20 0
BBX 21 20 0 0
BITMAP
01FC00
07FF00
1E0380
3800C0
70F860
61FC30
C30E30
C30618
C60018
C60018
C60018
C60618
C70618
C30E30
61FC30
70F860
3800C0
1E0380
07FF00
01F800
ENDCHAR
STARTCHAR 00AA
ENCODING 170
SWIDTH 360 0
DWIDTH 10 0
BBX 8 12 1 8
BITMAP
3C
7E
C2
02
7E
E2
C2
C6
7F
00
00
FF
ENDCHAR
STARTCHAR 00AB
ENCODING 171
SWIDTH 540 0
DWIDTH 15 0
BBX 10 9 3 3
BITMAP
1040
30C0
6380
C700
8600
C700
7380
30C0
1040
ENDCHAR
STARTCHAR 00AC
ENCODING 172
SWIDTH 576 0
DWIDTH 16 0
BBX 14 8 1 2
BITMAP
FFFC
FFFC
000C
000C
000C
000C
000C
000C
ENDCHAR
STARTCHAR 00AD
ENCODING 173
SWIDTH 324 0
DWIDTH 9 0
BBX 7 2 1 7
BITMAP
FE
FE
ENDCHAR
STARTCHAR 00AE
ENCODING 174
SWIDTH 720 0
DWIDTH 20 0
BBX 21 20 0 0
BITMAP
01FC00
07FF00
1E0380
3800C0
73FC60
63FE30
C30630
C30618
C30618
C3FC18
C3FC18
C30618
C30618
C30630
630630
730760
3800C0
1E0380
07FF00
01F800
ENDCHAR
STARTCHAR 00AF
ENCODING 175
SWIDTH 324 0
DWIDTH 9 0
BBX 7 2 1 18
BITMAP
FE
FE
ENDCHAR
STARTCHAR 00B0
ENCODING 176
SWIDTH 396 0
DWIDTH 11 0
BBX 9 9 1 10
BITMAP
1E00
7F00
6300
C180
C180
4180
6300
3E00
0800
ENDCHAR
STARTCHAR 00B1
ENCODING 177
SWIDTH 576 0
DWIDTH 16 0
BBX 14 18 1 0
BITMAP
0300
0300
0300
0300
0300
0300
FFFC
FFFC
0300
0300
0300
0300
0300
0300
0000
0000
FFFC
FFFC
ENDCHAR
STARTCHAR 00B2
ENCODING 178
SWIDTH 324 0
DWIDTH 9 0
BBX 9 12 0 8
BITMAP
3E00
7F00
6180
4180
0180
0300
0E00
1C00
7000
6000
FF80
FF80
ENDCHAR
STARTCHAR 00B3
ENCODING 179
SWIDTH 324 0
DWIDTH 9 0
BBX 9 12 0 8
BITMAP
3E00
7700
4300
C100
0300
1E00
1F00
0180
C180
C180
6300
7E00
ENDCHAR
STARTCHAR 00B4
ENCODING 180
SWIDTH 324 0
DWIDTH 9 0
BBX 5 4 3 16
BITMAP
38
70
60
C0
ENDCHAR
STARTCHAR 00B5
ENCODING 181
SWIDTH 540 0
DWIDTH 15 0
BBX 13 20 2 -5
BITMAP
C060
C060
C060
C060
C060
C060
C060
C060
C060
C060
C060
C0E0
E1F0
FF78
FE38
C000
C000
C000
C000
C000
ENDCHAR
STARTCHAR 00B6
ENCODING 182
SWIDTH 540 0
DWIDTH 15 0
BBX 14 25 1 -5
BITMAP
0FFC
1FFC
3F30
7F30
7F30
FF30
FF30
FF30
7F30
7F30
7F30
3F30
0F30
0330
0330
0330
0330
0330
0330
0330
0330
0330
0330
0330
0330
ENDCHAR
STARTCHAR 00B7
ENCODING 183
SWIDTH 288 0
DWIDTH 8 0
BBX 3 3 3 6
BITMAP
E0
E0
E0
ENDCHAR
STARTCHAR 00B8
ENCODING 184
SWIDTH 324 0
DWIDTH 9 0
BBX 7 6 1 -6
BITMAP
10
10
3E
06
CE
7C
ENDCHAR
STARTCHAR 00B9
ENCODING 185
SWIDTH 324 0
DWIDTH 9 0
BBX 5 12 1 8
BITMAP
08
18
78
F8
18
18
18
18
18
18
18
18
ENDCHAR
STARTCHAR 00BA
ENCODING 186
SWIDTH 360 0
DWIDTH 10 0
BBX 8 12 1 8
BITMAP
3C
7E
C3
C3
C3
C3
C3
66
7E
00
00
FF
ENDCHAR
STARTCHAR 00BB
ENCODING 187
SWIDTH 540 0
DWIDTH 15 0
BBX 10 9 3 3
BITMAP
8400
C600
E380
71C0
10C0
71C0
E300
C600
8400
ENDCHAR
STARTCHAR 00BC
ENCODING 188
SWIDTH 828 0
DWIDTH 23 0
BBX 22 20 1 0
BITMAP
100180
300100
F00300
300600
300400
300C00
300800
301830
303030
302070
3060F0
0041B0
00C130
018330
010630
0307FC
060030
040030
0C0030
080000
ENDCHAR
STARTCHAR 00BD
ENCODING 189
SWIDTH 828 0
DWIDTH 23 0
BBX 21 20 1 0
BITMAP
100100
300300
F00600
300400
300C00
300800
301800
303000
3023F0
306318
30C608
008608
018018
010030
0300E0
060180
040300
0C0600
0807F8
180000
ENDCHAR
STARTCHAR 00BE
ENCODING 190
SWIDTH 828 0
DWIDTH 23 0
BBX 22 20 1 0
BITMAP
3C00C0
7E0080
C30180
C30300
030200
1C0600
070400
030C00
831830
C31070
FE30F0
3C61B0
004130
00C330
008630
0187FC
030030
020030
060030
0C0000
ENDCHAR
STARTCHAR 00BF
ENCODING 191
SWIDTH 612 0
DWIDTH 17 0
BBX 12 21 3 -6
BITMAP
0600
0600
0600
0000
0000
0000
0600
0600
0E00
1C00
3C00
7800
7000
E000
C070
C070
C060
E060
F0E0
7FC0
1F00
ENDCHAR
STARTCHAR 00C0
ENCODING 192
SWIDTH 684 0
DWIDTH 19 0
BBX 17 26 1 0
BITMAP
070000
030000
018000
00C000
000000
000000
03C000
03E000
03E000
076000
077000
067000
0E3000
0E3800
0C3800
1C1800
181C00
181C00
3FFC00
3FFE00
700E00
700700
600700
E00700
E00380
C00380
ENDCHAR
STARTCHAR 00C1
ENCODING 193
SWIDTH 684 0
DWIDTH 19 0
BBX 17 26 1 0
BITMAP
007000
00E000
00C000
018000
000000
000000
03C000
03E000
03E000
076000
077000
067000
0E3000
0E3800
0C3800
1C1800
181C00
181C00
3FFC00
3FFE00
700E00
700700
600700
E00700
E00380
C00380
ENDCHAR
STARTCHAR 00C2
ENCODING 194
SWIDTH 684 0
DWIDTH 19 0
BBX 17 26 1 0
BITMAP
01C000
03E000
076000
063000
000000
000000
03C000
03E000
03E000
076000
077000
067000
0E3000
0E3800
0C3800
1C1800
181C00
181C00
3FFC00
3FFE00
700E00
700700
600700
E00700
E00380
C00380
ENDCHAR
STARTCHAR 00C3
ENCODING 195
SWIDTH 684 0
DWIDTH 19 0
BBX 17 25 1 0
BITMAP
071800
0FF000
0C6000
000000
000000
03C000
03E000
03E000
076000
077000
067000
0E3000
0E3800
0C3800
1C1800
181C00
181C00
3FFC00
3FFE00
700E00
700700
600700
E00700
E00380
C00380
ENDCHAR
STARTCHAR 00C4
ENCODING 196
SWIDTH 684 0
DWIDTH 19 0
BBX 17 25 1 0
BITMAP
077000
077000
077000
000000
000000
03C000
03E000
03E000
076000
077000
067000
0E3000
0E3800
0C3800
1C1800
181C00
181C00
3FFC00
3FFE00
700E00
700700
600700
E00700
E00380
C00380
ENDCHAR
STARTCHAR 00C5
ENCODING 197
SWIDTH 684 0
DWIDTH 19 0
BBX 17 26 1 0
BITMAP
01C000
026000
022000
036000
01C000
000000
03C000
03E000
03E000
076000
077000
067000
0E3000
0E3800
0C3800
1C1800
181C00
181C00
3FFC00
3FFE00
700E00
700700
600700
E00700
E00380
C00380
ENDCHAR
STARTCHAR 00C6
ENCODING 198
SWIDTH 1008 0
DWIDTH 28 0
BBX 26 20 0 0
BITMAP
00FFFFC0
00FFFFC0
00C70000
01C70000
01870000
03870000
03870000
07070000
07070000
0607FF80
0E07FF80
0C070000
1FFF0000
1FFF0000
18070000
38070000
38070000
70070000
7007FFC0
E007FFC0
ENDCHAR
STARTCHAR 00C7
ENCODING 199
SWIDTH 720 0
DWIDTH 20 0
BBX 18 26 1 -6
BITMAP
03F800
0FFE00
1F1F00
3C0700
380380
700180
600000
600000
E00000
E00000
E00000
E00000
600000
6001C0
700180
300380
380380
1E0F00
0FFE00
03F800
008000
00E000
003000
003000
063000
03E000
ENDCHAR
STARTCHAR 00C8
ENCODING 200
SWIDTH 684 0
DWIDTH 19 0
BBX 14 26 3 0
BITMAP
1C00
0E00
0600
0300
0000
0000
FFFC
FFFC
C000
C000
C000
C000
C000
C000
C000
FFF8
FFF8
C000
C000
C000
C000
C000
C000
C000
FFFC
FFFC
ENDCHAR
STARTCHAR 00C9
ENCODING 201
SWIDTH 684 0
DWIDTH 19 0
BBX 14 26 3 0
BITMAP
01C0
0380
0300
0600
0000
0000
FFFC
FFFC
C000
C000
C000
C000
C000
C000
C000
FFF8
FFF8
C000
C000
C000
C000
C000
C000
C000
FFFC
FFFC
ENDCHAR
STARTCHAR 00CA
ENCODING 202
SWIDTH 684 0
DWIDTH 19 0
BBX 14 26 3 0
BITMAP
0700
0F80
0D80
18C0
0000
0000
FFFC
FFFC
C000
C000
C000
C000
C000
C000
C000
FFF8
FFF8
C000
C000
C000
C000
C000
C000
C000
FFFC
FFFC
ENDCHAR
STARTCHAR 00CB
ENCODING 203
SWIDTH 684 0
DWIDTH 19 0
BBX 14 25 3 0
BITMAP
1DC0
1DC0
1DC0
0000
0000
FFFC
FFFC
C000
C000
C000
C000
C000
C000
C000
FFF8
FFF8
C000
C000
C000
C000
C000
C000
C000
FFFC
FFFC
ENDCHAR
STARTCHAR 00CC
ENCODING 204
SWIDTH 288 0
DWIDTH 8 0
BBX 5 26 0 0
BITMAP
E0
70
38
18
00
00
18
18
18
18
18
18
18
18
18
18
18
18
18
18
18
18
18
18
18
18
ENDCHAR
STARTCHAR 00CD
ENCODING 205
SWIDTH 288 0
DWIDTH 8 0
BBX 5 26 2 0
BITMAP
38
30
60
C0
00
00
60
60
60
60
60
60
60
60
60
60
60
60
60
60
60
60
60
60
60
60
ENDCHAR
STARTCHAR 00CE
ENCODING 206
SWIDTH 288 0
DWIDTH 8 0
BBX 7 26 0 0
BITMAP
3C
3C
66
C6
00
00
18
18
18
18
18
18
18
18
18
18
18
18
18
18
18
18
18
18
18
18
ENDCHAR
STARTCHAR 00CF
ENCODING 207
SWIDTH 288 0
DWIDTH 8 0
BBX 8 25 0 0
BITMAP
E7
E7
E7
00
00
18
18
18
18
18
18
18
18
18
18
18
18
18
18
18
18
18
18
18
18
ENDCHAR
STARTCHAR 00D0
ENCODING 208
SWIDTH 720 0
DWIDTH 20 0
BBX 18 20 1 0
BITMAP
7FF000
7FFC00
703E00
700700
700300
700380
700380
700180
700180
FF81C0
FF81C0
7001C0
700180
700180
700380
700300
700700
703E00
7FFC00
7FF000
ENDCHAR
STARTCHAR 00D1
ENCODING 209
SWIDTH 720 0
DWIDTH 20 0
BBX 16 25 2 0
BITMAP
0710
0FF0
0CE0
0000
0000
E007
F007
F807
F807
FC07
EC07
EE07
E707
E307
E387
E1C7
E0C7
E0E7
E077
E077
E03F
E01F
E01F
E00F
E007
ENDCHAR
STARTCHAR 00D2
ENCODING 210
SWIDTH 792 0
DWIDTH 22 0
BBX 20 26 1 0
BITMAP
038000
01C000
00C000
006000
003000
000000
01F800
0FFE00
1F0F80
3C03C0
3801C0
7000E0
6000E0
E00060
E00070
E00070
E00070
E00070
E00060
6000E0
7000E0
7801C0
3C0380
1F0F80
0FFE00
03F800
ENDCHAR
STARTCHAR 00D3
ENCODING 211
SWIDTH 792 0
DWIDTH 22 0
BBX 20 26 1 0
BITMAP
001C00
003800
007000
006000
00C000
000000
01F800
0FFE00
1F0F80
3C03C0
3801C0
7000E0
6000E0
E00060
E00070
E00070
E00070
E00070
E00060
6000E0
7000E0
7801C0
3C0380
1F0F80
0FFE00
03F800
ENDCHAR
STARTCHAR 00D4
ENCODING 212
SWIDTH 792 0
DWIDTH 22 0
BBX 20 26 1 0
BITMAP
00E000
00F000
01B000
019800
030C00
000000
01F800
0FFE00
1F0F80
3C03C0
3801C0
7000E0
6000E0
E00060
E00070
E00070
E00070
E00070
E00060
6000E0
7000E0
7801C0
3C0380
1F0F80
0FFE00
03F800
ENDCHAR
STARTCHAR 00D5
ENCODING 213
SWIDTH 792 0
DWIDTH 22 0
BBX 20 25 1 0
BITMAP
01C400
03FC00
023800
000000
000000
01F800
0FFE00
1F0F80
3C03C0
3801C0
7000E0
6000E0
E00060
E00070
E00070
E00070
E00070
E00060
6000E0
7000E0
7801C0
3C0380
1F0F80
0FFE00
03F800
ENDCHAR
STARTCHAR 00D6
ENCODING 214
SWIDTH 792 0
DWIDTH 22 0
BBX 20 25 1 0
BITMAP
039C00
039C00
039C00
000000
000000
01F800
0FFE00
1F0F80
3C03C0
3801C0
7000E0
6000E0
E00060
E00070
E00070
E00070
E00070
E00060
6000E0
7000E0
7801C0
3C0380
1F0F80
0FFE00
03F800
ENDCHAR
STARTCHAR 00D7
ENCODING 215
SWIDTH 576 0
DWIDTH 16 0
BBX 11 11 3 1
BITMAP
0040
C0E0
61C0
3380
1F00
0E00
1E00
3B00
7180
E0C0
C040
ENDCHAR
STARTCHAR 00D8
ENCODING 216
SWIDTH 792 0
DWIDTH 22 0
BBX 20 20 1 0
BITMAP
01F830
0FFE60
1F1FC0
3C0380
7003C0
7006E0
600CE0
E01860
E03060
E06070
E0C070
E18060
E30060
E600E0
7C00E0
7801C0
3C0380
7F0F80
CFFE00
03F800
ENDCHAR
STARTCHAR 00D9
ENCODING 217
SWIDTH 720 0
DWIDTH 20 0
BBX 16 26 2 0
BITMAP
0E00
0700
0380
0180
0000
0000
E007
E007
E007
E007
E007
E007
E007
E007
E007
E007
E007
E007
E007
E007
E007
6007
700E
3C3E
1FF8
07E0
ENDCHAR
STARTCHAR 00DA
ENCODING 218
SWIDTH 720 0
DWIDTH 20 0
BBX 16 26 2 0
BITMAP
0070
00E0
01C0
0180
0000
0000
E007
E007
E007
E007
E007
E007
E007
E007
E007
E007
E007
E007
E007
E007
E007
6007
700E
3C3E
1FF8
07E0
ENDCHAR
STARTCHAR 00DB
ENCODING 219
SWIDTH 720 0
DWIDTH 20 0
BBX 16 26 2 0
BITMAP
01C0
03C0
0660
0630
0000
0000
E007
E007
E007
E007
E007
E007
E007
E007
E007
E007
E007
E007
E007
E007
E007
6007
700E
3C3E
1FF8
07E0
ENDCHAR
STARTCHAR 00DC
ENCODING 220
SWIDTH 720 0
DWIDTH 20 0
BBX 16 25 2 0
BITMAP
0E70
0E70
0E70
0000
0000
E007
E007
E007
E007
E007
E007
E007
E007
E007
E007
E007
E007
E007
E007
E007
6007
700E
3C3E
1FF8
07E0
ENDCHAR
STARTCHAR 00DD
ENCODING 221
SWIDTH 684 0
DWIDTH 19 0
BBX 17 26 1 0
BITMAP
007000
00E000
00C000
018000
000000
000000
E00380
E00700
700700
380E00
380E00
1C1C00
1E3800
0E3800
077000
076000
03E000
01C000
01C000
01C000
01C000
01C000
01C000
01C000
01C000
01C000
ENDCHAR
STARTCHAR 00DE
ENCODING 222
SWIDTH 684 0
DWIDTH 19 0
BBX 14 20 3 0
BITMAP
C000
C000
C000
FFE0
FFF0
C078
C01C
C01C
C01C
C01C
C01C
C01C
C078
FFF0
FFE0
C000
C000
C000
C000
C000
ENDCHAR
STARTCHAR 00DF
ENCODING 223
SWIDTH 612 0
DWIDTH 17 0
BBX 13 20 2 0
BITMAP
0F80
3FE0
70F0
E070
C030
C030
C030
C060
C3C0
C3E0
C070
C038
C018
C018
C018
C018
C038
C0F0
C7E0
C780
ENDCHAR
STARTCHAR 00E0
ENCODING 224
SWIDTH 540 0
DWIDTH 15 0
BBX 14 20 1 0
BITMAP
1C00
0E00
0300
0100
0000
0FC0
3FE0
78F0
6030
6030
0030
03F0
3FF0
7830
E030
E030
E070
F0F0
7FBC
3F1C
ENDCHAR
STARTCHAR 00E1
ENCODING 225
SWIDTH 540 0
DWIDTH 15 0
BBX 14 20 1 0
BITMAP
01C0
0380
0300
0600
0000
0FC0
3FE0
78F0
6030
6030
0030
03F0
3FF0
7830
E030
E030
E070
F0F0
7FBC
3F1C
ENDCHAR
STARTCHAR 00E2
ENCODING 226
SWIDTH 540 0
DWIDTH 15 0
BBX 14 20 1 0
BITMAP
0700
0F80
0CC0
1840
0000
0FC0
3FE0
78F0
6030
6030
0030
03F0
3FF0
7830
E030
E030
E070
F0F0
7FBC
3F1C
ENDCHAR
STARTCHAR 00E3
ENCODING 227
SWIDTH 540 0
DWIDTH 15 0
BBX 14 20 1 0
BITMAP
1E60
1FE0
31C0
0000
0000
0FC0
3FE0
78F0
6030
6030
0030
03F0
3FF0
7830
E030
E030
E070
F0F0
7FBC
3F1C
ENDCHAR
STARTCHAR 00E4
ENCODING 228
SWIDTH 540 0
DWIDTH 15 0
BBX 14 20 1 0
BITMAP
1DC0
1DC0
1DC0
0000
0000
0FC0
3FE0
78F0
6030
6030
0030
03F0
3FF0
7830
E030
E030
E070
F0F0
7FBC
3F1C
ENDCHAR
STARTCHAR 00E5
ENCODING 229
SWIDTH 540 0
DWIDTH 15 0
BBX 14 21 1 0
BITMAP
0700
0D80
0880
0D80
0700
0000
0FC0
3FE0
78F0
6030
6030
0030
03F0
3FF0
7830
E030
E030
E070
F0F0
7FBC
3F1C
ENDCHAR
STARTCHAR 00E6
ENCODING 230
SWIDTH 900 0
DWIDTH 25 0
BBX 22 15 1 0
BITMAP
1F83E0
3FEFF0
70FC38
60781C
00300C
00700C
0FFFFC
3FBFFC
703000
E03000
C0300C
E0781C
E1DC38
7F8FF0
3E07E0
ENDCHAR
STARTCHAR 00E7
ENCODING 231
SWIDTH 504 0
DWIDTH 14 0
BBX 12 21 1 -6
BITMAP
0F80
3FE0
78E0
7070
E030
E000
C000
C000
C000
C000
E030
E030
6070
78E0
3FE0
1F80
0400
0700
0180
3180
1F00
ENDCHAR
STARTCHAR 00E8
ENCODING 232
SWIDTH 540 0
DWIDTH 15 0
BBX 13 20 1 0
BITMAP
1C00
0600
0300
0180
0000
0F80
1FE0
38F0
7038
6038
E018
FFF8
FFF8
E000
E000
6038
7030
7870
3FE0
0F80
ENDCHAR
STARTCHAR 00E9
ENCODING 233
SWIDTH 540 0
DWIDTH 15 0
BBX 13 20 1 0
BITMAP
01C0
0380
0300
0600
0000
0F80
1FE0
38F0
7038
6038
E018
FFF8
FFF8
E000
E000
6038
7030
7870
3FE0
0F80
ENDCHAR
STARTCHAR 00EA
ENCODING 234
SWIDTH 540 0
DWIDTH 15 0
BBX 13 20 1 0
BITMAP
0780
0780
0CC0
1860
0000
0F80
1FE0
38F0
7038
6038
E018
FFF8
FFF8
E000
E000
6038
7030
7870
3FE0
0F80
ENDCHAR
STARTCHAR 00EB
ENCODING 235
SWIDTH 540 0
DWIDTH 15 0
BBX 13 20 1 0
BITMAP
1CE0
1CE0
1CE0
0000
0000
0F80
1FE0
38F0
7038
6038
E018
FFF8
FFF8
E000
E000
6038
7030
7870
3FE0
0F80
ENDCHAR
STARTCHAR 00EC
ENCODING 236
SWIDTH 288 0
DWIDTH 8 0
BBX 5 20 0 0
BITMAP
E0
30
18
00
00
18
18
18
18
18
18
18
18
18
18
18
18
18
18
18
ENDCHAR
STARTCHAR 00ED
ENCODING 237
SWIDTH 288 0
DWIDTH 8 0
BBX 5 20 2 0
BITMAP
38
70
60
80
00
60
60
60
60
60
60
60
60
60
60
60
60
60
60
60
ENDCHAR
STARTCHAR 00EE
ENCODING 238
SWIDTH 288 0
DWIDTH 8 0
BBX 8 20 0 0
BITMAP
3C
7C
66
C3
00
18
18
18
18
18
18
18
18
18
18
18
18
18
18
18
ENDCHAR
STARTCHAR 00EF
ENCODING 239
SWIDTH 288 0
DWIDTH 8 0
BBX 7 20 0 0
BITMAP
E6
E6
E6
00
00
18
18
18
18
18
18
18
18
18
18
18
18
18
18
18
ENDCHAR
STARTCHAR 00F0
ENCODING 240
SWIDTH 540 0
DWIDTH 15 0
BBX 13 20 1 1
BITMAP
3980
1F00
1F00
3380
01C0
0FE0
3FE0
78F0
7038
E038
E018
C018
C018
E018
E018
E038
7030
78F0
3FE0
0F80
ENDCHAR
STARTCHAR 00F1
ENCODING 241
SWIDTH 540 0
DWIDTH 15 0
BBX 12 20 2 0
BITMAP
1CC0
3FC0
6380
0000
0000
CF80
DFE0
F0E0
E070
E070
C070
C070
C070
C070
C070
C070
C070
C070
C070
C070
ENDCHAR
STARTCHAR 00F2
ENCODING 242
SWIDTH 540 0
DWIDTH 15 0
BBX 13 20 1 0
BITMAP
1C00
0E00
0700
0100
0000
0F80
3FE0
78F0
7030
E038
E018
C018
C018
E018
E018
E038
7030
78F0
3FE0
0F80
ENDCHAR
STARTCHAR 00F3
ENCODING 243
SWIDTH 540 0
DWIDTH 15 0
BBX 13 20 1 0
BITMAP
01C0
0380
0700
0600
0000
0F80
3FE0
78F0
7030
E038
E018
C018
C018
E018
E018
E038
7030
78F0
3FE0
0F80
ENDCHAR
STARTCHAR 00F4
ENCODING 244
SWIDTH 540 0
DWIDTH 15 0
BBX 13 20 1 0
BITMAP
0700
0D80
1CC0
1840
0000
0F80
3FE0
78F0
7030
E038
E018
C018
C018
E018
E018
E038
7030
78F0
3FE0
0F80
ENDCHAR
STARTCHAR 00F5
ENCODING 245
SWIDTH 540 0
DWIDTH 15 0
BBX 13 20 1 0
BITMAP
1E60
1FE0
31C0
0000
0000
0F80
3FE0
78F0
7030
E038
E018
C018
C018
E018
E018
E038
7030
78F0
3FE0
0F80
ENDCHAR
STARTCHAR 00F6
ENCODING 246
SWIDTH 540 0
DWIDTH 15 0
BBX 13 20 1 0
BITMAP
1DC0
1DC0
1DC0
0000
0000
0F80
3FE0
78F0
7030
E038
E018
C018
C018
E018
E018
E038
7030
78F0
3FE0
0F80
ENDCHAR
STARTCHAR 00F7
ENCODING 247
SWIDTH 576 0
DWIDTH 16 0
BBX 14 13 1 0
BITMAP
0380
0380
0380
0000
0000
FFFC
FFFC
0000
0000
0000
0380
0380
0380
ENDCHAR
STARTCHAR 00F8
ENCODING 248
SWIDTH 612 0
DWIDTH 17 0
BBX 13 15 1 0
BITMAP
0F88
3FF8
78F0
7030
E078
E098
C118
C218
C618
EC18
F838
7030
78F0
FFE0
8F80
ENDCHAR
STARTCHAR 00F9
ENCODING 249
SWIDTH 540 0
DWIDTH 15 0
BBX 11 20 2 -1
BITMAP
3800
1C00
0C00
0600
0000
C060
C060
C060
C060
C060
C060
C060
C060
C060
C060
C060
C0E0
E1E0
7FE0
3F60
ENDCHAR
STARTCHAR 00FA
ENCODING 250
SWIDTH 540 0
DWIDTH 15 0
BBX 11 20 2 -1
BITMAP
0380
0700
0600
0C00
0000
C060
C060
C060
C060
C060
C060
C060
C060
C060
C060
C060
C0E0
E1E0
7FE0
3F60
ENDCHAR
STARTCHAR 00FB
ENCODING 251
SWIDTH 540 0
DWIDTH 15 0
BBX 11 20 2 -1
BITMAP
0E00
1F00
1B80
3180
0000
C060
C060
C060
C060
C060
C060
C060
C060
C060
C060
C060
C0E0
E1E0
7FE0
3F60
ENDCHAR
STARTCHAR 00FC
ENCODING 252
SWIDTH 540 0
DWIDTH 15 0
BBX 11 20 2 -1
BITMAP
3B80
3B80
3B80
0000
0000
C060
C060
C060
C060
C060
C060
C060
C060
C060
C060
C060
C0E0
E1E0
7FE0
3F60
ENDCHAR
STARTCHAR 00FD
ENCODING 253
SWIDTH 504 0
DWIDTH 14 0
BBX 12 26 1 -6
BITMAP
0380
0700
0600
0800
0000
C030
E070
E060
6060
60E0
70C0
30C0
31C0
3980
1B80
1B00
1F00
0F00
0E00
0E00
0E00
0C00
1C00
1C00
F800
F000
ENDCHAR
STARTCHAR 00FE
ENCODING 254
SWIDTH 540 0
DWIDTH 15 0
BBX 13 25 2 -5
BITMAP
C000
C000
C000
C000
C000
CF80
FFC0
F1E0
E070
C070
C030
C030
C038
C030
C030
C030
E070
F1E0
FFC0
CF80
C000
C000
C000
C000
C000
ENDCHAR
STARTCHAR 00FF
ENCODING 255
SWIDTH 504 0
DWIDTH 14 0
BBX 12 26 1 -6
BITMAP
39C0
39C0
39C0
0000
0000
C030
E070
E060
6060
60E0
70C0
30C0
31C0
3980
1B80
1B00
1F00
0F00
0E00
0E00
0E00
0C00
1C00
1C00
F800
F000
ENDCHAR
STARTCHAR 0100
ENCODING 256
SWIDTH 684 0
DWIDTH 19 0
BBX 17 25 1 0
BITMAP
0FF000
0FF000
000000
000000
000000
03C000
03E000
03E000
076000
077000
067000
0E3000
0E3800
0C3800
1C1800
181C00
181C00
3FFC00
3FFE00
700E00
700700
600700
E00700
E00380
C00380
ENDCHAR
STARTCHAR 0101
ENCODING 257
SWIDTH 540 0
DWIDTH 15 0
BBX 14 20 1 0
BITMAP
1FC0
1FC0
0000
0000
0000
0FC0
3FE0
78F0
6030
6030
0030
03F0
3FF0
7830
E030
E030
E070
F0F0
7FBC
3F1C
ENDCHAR
STARTCHAR 0102
ENCODING 258
SWIDTH 684 0
DWIDTH 19 0
BBX 17 26 1 0
BITMAP
0C1000
0C3000
07F000
03E000
000000
000000
03C000
03E000
03E000
076000
077000
067000
0E3000
0E3800
0C3800
1C1800
181C00
181C00
3FFC00
3FFE00
700E00
700700
600700
E00700
E00380
C00380
ENDCHAR
STARTCHAR 0103
ENCODING 259
SWIDTH 540 0
DWIDTH 15 0
BBX 14 20 1 0
BITMAP
1060
18E0
1FC0
0F80
0000
0FC0
3FE0
78F0
6030
6030
0030
03F0
3FF0
7830
E030
E030
E070
F0F0
7FBC
3F1C
ENDCHAR
STARTCHAR 0104
ENCODING 260
SWIDTH 684 0
DWIDTH 19 0
BBX 18 26 1 -6
BITMAP
03C000
03E000
03E000
076000
077000
067000
0E3000
0E3800
0C3800
1C1800
181C00
181C00
3FFC00
3FFE00
700E00
700700
600700
E00700
E00380
C00380
000300
000600
000600
000E00
000700
0003C0
ENDCHAR
STARTCHAR 0105
ENCODING 261
SWIDTH 540 0
DWIDTH 15 0
BBX 16 20 1 -5
BITMAP
0FC0
3FE0
7870
6030
6030
0030
03F0
3FF0
7830
E030
E030
E070
F0F0
7FBC
3F1C
0018
0030
0030
0039
001F
ENDCHAR
STARTCHAR 0106
ENCODING 262
SWIDTH 720 0
DWIDTH 20 0
BBX 18 26 1 0
BITMAP
003800
003000
006000
00C000
008000
000000
03F800
0FFE00
1F1F00
380700
380380
700180
600000
600000
E00000
E00000
E00000
E00000
6001C0
7001C0
700180
380380
3C0780
1F1F00
0FFE00
03F800
ENDCHAR
STARTCHAR 0107
ENCODING 263
SWIDTH 504 0
DWIDTH 14 0
BBX 12 20 1 0
BITMAP
01C0
0380
0700
0600
0000
0F80
3FE0
78E0
6070
E030
E000
C000
C000
C000
E000
E030
6070
78E0
3FE0
0F80
ENDCHAR
STARTCHAR 0108
ENCODING 264
SWIDTH 720 0
DWIDTH 20 0
BBX 18 26 1 0
BITMAP
00E000
01E000
01B000
031800
061800
000000
03F800
0FFE00
1F1F00
380700
380380
700180
600000
600000
E00000
E00000
E00000
E00000
6001C0
7001C0
700180
380380
3C0780
1F1F00
0FFE00
03F800
ENDCHAR
STARTCHAR 0109
ENCODING 265
SWIDTH 504 0
DWIDTH 14 0
BBX 12 20 1 0
BITMAP
0700
0D80
19C0
10C0
0000
0F80
3FE0
78E0
6070
E030
E000
C000
C000
C000
E000
E030
6070
78E0
3FE0
0F80
ENDCHAR
STARTCHAR 010A
ENCODING 266
SWIDTH 720 0
DWIDTH 20 0
BBX 18 25 1 0
BITMAP
00E000
00E000
00E000
000000
000000
03F800
0FFE00
1F1F00
380700
380380
700180
600000
600000
E00000
E00000
E00000
E00000
6001C0
7001C0
700180
380380
3C0780
1F1F00
0FFE00
03F800
ENDCHAR
STARTCHAR 010B
ENCODING 267
SWIDTH 504 0
DWIDTH 14 0
BBX 12 20 1 0
BITMAP
0700
0700
0700
0000
0000
0F80
3FE0
78E0
6070
E030
E000
C000
C000
C000
E000
E030
6070
78E0
3FE0
0F80
ENDCHAR
STARTCHAR 010C
ENCODING 268
SWIDTH 720 0
DWIDTH 20 0
BBX 18 26 1 0
BITMAP
020C00
031800
01B000
00F000
00E000
000000
03F800
0FFE00
1F1F00
380700
380380
700180
600000
600000
E00000
E00000
E00000
E00000
6001C0
7001C0
700180
380380
3C0780
1F1F00
0FFE00
03F800
ENDCHAR
STARTCHAR 010D
ENCODING 269
SWIDTH 504 0
DWIDTH 14 0
BBX 12 20 1 0
BITMAP
18C0
1D80
0F80
0700
0000
0F80
3FE0
78E0
6070
E030
E000
C000
C000
C000
E000
E030
6070
78E0
3FE0
0F80
ENDCHAR
STARTCHAR 010E
ENCODING 270
SWIDTH 720 0
DWIDTH 20 0
BBX 17 26 2 0
BITMAP
086000
0CE000
06C000
038000
000000
000000
FFE000
FFF800
E03C00
E00E00
E00700
E00700
E00700
E00300
E00380
E00380
E00380
E00300
E00300
E00300
E00700
E00600
E00E00
E07C00
FFF800
FFE000
ENDCHAR
STARTCHAR 010F
ENCODING 271
SWIDTH 648 0
DWIDTH 18 0
BBX 17 20 1 0
BITMAP
003B80
003B80
003B80
003880
003980
0F3B00
3FF800
78F800
607800
E03800
C03800
C03800
C03800
C03800
C03800
E03800
607800
78F800
3FD800
1F1800
ENDCHAR
STARTCHAR 0110
ENCODING 272
SWIDTH 720 0
DWIDTH 20 0
BBX 18 20 1 0
BITMAP
7FF000
7FFC00
703E00
700700
700300
700380
700380
700180
700180
FF81C0
FF81C0
7001C0
700180
700180
700380
700300
700700
703E00
7FFC00
7FF000
ENDCHAR
STARTCHAR 0111
ENCODING 273
SWIDTH 540 0
DWIDTH 15 0
BBX 14 20 1 0
BITMAP
0038
0038
03FC
0038
0038
0F38
3FF8
79F8
6078
E038
C038
C038
C038
C038
C038
E038
7078
79F8
3FD8
0F18
ENDCHAR
STARTCHAR 0112
ENCODING 274
SWIDTH 684 0
DWIDTH 19 0
BBX 14 25 3 0
BITMAP
1FC0
1FC0
0000
0000
0000
FFFC
FFFC
C000
C000
C000
C000
C000
C000
C000
FFF8
FFF8
C000
C000
C000
C000
C000
C000
C000
FFFC
FFFC
ENDCHAR
STARTCHAR 0113
ENCODING 275
SWIDTH 540 0
DWIDTH 15 0
BBX 13 20 1 0
BITMAP
1FE0
1FE0
0000
0000
0000
0F80
1FE0
38F0
7038
6038
E018
FFF8
FFF8
E000
E000
6038
7030
7870
3FE0
0F80
ENDCHAR
STARTCHAR 0114
ENCODING 276
SWIDTH 684 0
DWIDTH 19 0
BBX 14 26 3 0
BITMAP
3060
1860
1FC0
0F80
0000
0000
FFFC
FFFC
C000
C000
C000
C000
C000
C000
C000
FFF8
FFF8
C000
C000
C000
C000
C000
C000
C000
FFFC
FFFC
ENDCHAR
STARTCHAR 0115
ENCODING 277
SWIDTH 540 0
DWIDTH 15 0
BBX 13 20 1 0
BITMAP
1860
1860
1FC0
0780
0000
0F80
1FE0
38F0
7038
6038
E018
FFF8
FFF8
E000
E000
6038
7030
7870
3FE0
0F80
ENDCHAR
STARTCHAR 0116
ENCODING 278
SWIDTH 684 0
DWIDTH 19 0
BBX 14 25 3 0
BITMAP
0700
0700
0700
0000
0000
FFFC
FFFC
C000
C000
C000
C000
C000
C000
C000
FFF8
FFF8
C000
C000
C000
C000
C000
C000
C000
FFFC
FFFC
ENDCHAR
STARTCHAR 0117
ENCODING 279
SWIDTH 540 0
DWIDTH 15 0
BBX 13 20 1 0
BITMAP
0700
0700
0700
0000
0000
0F80
1FE0
38F0
7038
6038
E018
FFF8
FFF8
E000
E000
6038
7030
7870
3FE0
0F80
ENDCHAR
STARTCHAR 0118
ENCODING 280
SWIDTH 684 0
DWIDTH 19 0
BBX 15 26 3 -6
BITMAP
FFFC
FFFC
C000
C000
C000
C000
C000
C000
C000
FFF8
FFF8
C000
C000
C000
C000
C000
C000
C000
FFFC
FFFC
0018
0030
0060
0060
0030
001E
ENDCHAR
STARTCHAR 0119
ENCODING 281
SWIDTH 540 0
DWIDTH 15 0
BBX 13 20 1 -5
BITMAP
0F80
1FE0
38F0
7038
6038
E018
FFF8
FFF8
E000
E000
6038
7038
7870
3FE0
0FC0
0080
0180
0180
01C0
00F8
ENDCHAR
STARTCHAR 011A
ENCODING 282
SWIDTH 684 0
DWIDTH 19 0
BBX 14 26 3 0
BITMAP
18C0
18C0
0D80
0700
0000
0000
FFFC
FFFC
C000
C000
C000
C000
C000
C000
C000
FFF8
FFF8
C000
C000
C000
C000
C000
C000
C000
FFFC
FFFC
ENDCHAR
STARTCHAR 011B
ENCODING 283
SWIDTH 540 0
DWIDTH 15 0
BBX 13 20 1 0
BITMAP
1860
0CC0
0780
0700
0000
0F80
1FE0
38F0
7038
6038
E018
FFF8
FFF8
E000
E000
6038
7030
7870
3FE0
0F80
ENDCHAR
STARTCHAR 011C
ENCODING 284
SWIDTH 792 0
DWIDTH 22 0
BBX 19 26 1 0
BITMAP
00E000
00F000
01B000
031800
030C00
000000
01F800
07FE00
1F0F80
3C0380
3801C0
7000C0
600000
E00000
E00000
E03FE0
E03FE0
E000E0
6000E0
7000E0
7000E0
3801E0
3C03E0
1F1F60
0FFC60
03F000
ENDCHAR
STARTCHAR 011D
ENCODING 285
SWIDTH 540 0
DWIDTH 15 0
BBX 12 25 1 -5
BITMAP
0700
0D80
18C0
1060
0000
0F30
3FF0
78F0
6070
E070
E030
C030
C030
C030
E030
E030
6070
78F0
3FB0
0F30
0030
6070
7060
3FC0
1F80
ENDCHAR
STARTCHAR 011E
ENCODING 286
SWIDTH 792 0
DWIDTH 22 0
BBX 19 25 1 0
BITMAP
030400
030C00
01FC00
00F000
000000
01F800
07FE00
1F0F80
3C0380
3801C0
7000C0
600000
E00000
E00000
E03FE0
E03FE0
E000E0
6000E0
7000E0
7000E0
3801E0
3C03E0
1F1F60
0FFC60
03F000
ENDCHAR
STARTCHAR 011F
ENCODING 287
SWIDTH 540 0
DWIDTH 15 0
BBX 12 25 1 -5
BITMAP
3060
18C0
1FC0
0F80
0000
0F30
3FF0
78F0
6070
E070
E030
C030
C030
C030
E030
E030
6070
78F0
3FB0
0F30
0030
6070
7060
3FC0
1F80
ENDCHAR
STARTCHAR 0120
ENCODING 288
SWIDTH 792 0
DWIDTH 22 0
BBX 19 25 1 0
BITMAP
00E000
00E000
00E000
000000
000000
01F800
07FE00
1F0F80
3C0380
3801C0
7000C0
600000
E00000
E00000
E03FE0
E03FE0
E000E0
6000E0
7000E0
7000E0
3801E0
3C03E0
1F1F60
0FFC60
03F000
ENDCHAR
STARTCHAR 0121
ENCODING 289
SWIDTH 540 0
DWIDTH 15 0
BBX 12 25 1 -5
BITMAP
0700
0700
0700
0000
0000
0F30
3FF0
78F0
6070
E070
E030
C030
C030
C030
E030
E030
6070
78F0
3FB0
0F30
0030
6070
7060
3FC0
1F80
ENDCHAR
STARTCHAR 0122
ENCODING 290
SWIDTH 792 0
DWIDTH 22 0
BBX 19 27 1 -7
BITMAP
01F800
07FE00
1F0F80
3C0380
3801C0
7000C0
600000
E00000
E00000
E03FE0
E03FE0
E000E0
6000E0
7000E0
7000E0
3801E0
3C03E0
1F1F60
0FFC60
03F000
000000
00E000
00E000
00E000
002000
002000
00C000
ENDCHAR
STARTCHAR 0123
ENCODING 291
SWIDTH 540 0
DWIDTH 15 0
BBX 12 27 1 -4
BITMAP
0300
0400
0400
0700
0700
0700
0000
0F30
3FF0
78F0
6070
E070
E030
C030
C030
C030
E030
E030
6070
78F0
3FB0
0F30
0030
6070
7060
3FC0
1F80
ENDCHAR
STARTCHAR 0124
ENCODING 292
SWIDTH 720 0
DWIDTH 20 0
BBX 16 26 2 0
BITMAP
01C0
03E0
0760
0630
0000
0000
E007
E007
E007
E007
E007
E007
E007
E007
E007
FFFF
FFFF
E007
E007
E007
E007
E007
E007
E007
E007
E007
ENDCHAR
STARTCHAR 0125
ENCODING 293
SWIDTH 540 0
DWIDTH 15 0
BBX 14 26 0 0
BITMAP
3800
7800
CC00
C600
0000
0000
3000
3000
3000
3000
3000
31E0
37F8
3C38
381C
381C
301C
301C
301C
301C
301C
301C
301C
301C
301C
301C
ENDCHAR
STARTCHAR 0126
ENCODING 294
SWIDTH 720 0
DWIDTH 20 0
BBX 20 20 0 0
BITMAP
3801C0
3801C0
3801C0
3801C0
FFFFF0
FFFFF0
3801C0
3801C0
3801C0
3FFFC0
3FFFC0
3801C0
3801C0
3801C0
3801C0
3801C0
3801C0
3801C0
3801C0
3801C0
ENDCHAR
STARTCHAR 0127
ENCODING 295
SWIDTH 540 0
DWIDTH 15 0
BBX 14 20 0 0
BITMAP
3000
3000
FFC0
3000
3000
31E0
37F8
3C38
381C
381C
301C
301C
301C
301C
301C
301C
301C
301C
301C
301C
ENDCHAR
STARTCHAR 0128
ENCODING 296
SWIDTH 288 0
DWIDTH 8 0
BBX 9 25 -1 0
BITMAP
7980
7F80
C700
0000
0000
0C00
0C00
0C00
0C00
0C00
0C00
0C00
0C00
0C00
0C00
0C00
0C00
0C00
0C00
0C00
0C00
0C00
0C00
0C00
0C00
ENDCHAR
STARTCHAR 0129
ENCODING 297
SWIDTH 288 0
DWIDTH 8 0
BBX 9 20 -1 0
BITMAP
7980
7F80
C700
0000
0000
0C00
0C00
0C00
0C00
0C00
0C00
0C00
0C00
0C00
0C00
0C00
0C00
0C00
0C00
0C00
ENDCHAR
STARTCHAR 012A
ENCODING 298
SWIDTH 288 0
DWIDTH 8 0
BBX 7 25 1 0
BITMAP
FE
FE
00
00
00
30
30
30
30
30
30
30
30
30
30
30
30
30
30
30
30
30
30
30
30
ENDCHAR
STARTCHAR 012B
ENCODING 299
SWIDTH 288 0
DWIDTH 8 0
BBX 7 20 0 0
BITMAP
FE
FE
00
00
00
18
18
18
18
18
18
18
18
18
18
18
18
18
18
18
ENDCHAR
STARTCHAR 012C
ENCODING 300
SWIDTH 288 0
DWIDTH 8 0
BBX 8 26 0 0
BITMAP
83
C3
FE
3C
00
00
18
18
18
18
18
18
18
18
18
18
18
18
18
18
18
18
18
18
18
18
ENDCHAR
STARTCHAR 012D
ENCODING 301
SWIDTH 288 0
DWIDTH 8 0
BBX 8 20 0 0
BITMAP
C3
FE
3C
00
00
18
18
18
18
18
18
18
18
18
18
18
18
18
18
18
ENDCHAR
STARTCHAR 012E
ENCODING 302
SWIDTH 288 0
DWIDTH 8 0
BBX 5 26 2 -6
BITMAP
60
60
60
60
60
60
60
60
60
60
60
60
60
60
60
60
60
60
60
60
60
C0
C0
C0
E8
78
ENDCHAR
STARTCHAR 012F
ENCODING 303
SWIDTH 216 0
DWIDTH 6 0
BBX 4 26 1 -6
BITMAP
60
60
60
00
00
60
60
60
60
60
60
60
60
60
60
60
60
60
60
60
60
C0
C0
C0
E0
70
ENDCHAR
STARTCHAR 0130
ENCODING 304
SWIDTH 288 0
DWIDTH 8 0
BBX 2 25 3 0
BITMAP
C0
C0
C0
00
00
C0
C0
C0
C0
C0
C0
C0
C0
C0
C0
C0
C0
C0
C0
C0
C0
C0
C0
C0
C0
ENDCHAR
STARTCHAR 0131
ENCODING 305
SWIDTH 288 0
DWIDTH 8 0
BBX 2 15 3 0
BITMAP
C0
C0
C0
C0
C0
C0
C0
C0
C0
C0
C0
C0
C0
C0
C0
ENDCHAR
STARTCHAR 0132
ENCODING 306
SWIDTH 720 0
DWIDTH 20 0
BBX 15 20 3 0
BITMAP
C006
C006
C006
C006
C006
C006
C006
C006
C006
C006
C006
C006
C006
CE06
CE06
CE06
CE0E
C71C
C7FC
C1F0
ENDCHAR
STARTCHAR 0133
ENCODING 307
SWIDTH 432 0
DWIDTH 12 0
BBX 8 26 2 -6
BITMAP
E3
E3
E3
00
00
E3
E3
E3
E3
E3
E3
E3
E3
E3
E3
E3
E3
E3
E3
E3
03
03
03
07
1F
1E
ENDCHAR
STARTCHAR 0134
ENCODING 308
SWIDTH 504 0
DWIDTH 14 0
BBX 14 26 0 0
BITMAP
0070
00F0
0198
018C
0000
0000
0070
0070
0070
0070
0070
0070
0070
0070
0070
0070
0070
0070
0070
E070
E070
6070
7070
78E0
3FC0
1F80
ENDCHAR
STARTCHAR 0135
ENCODING 309
SWIDTH 216 0
DWIDTH 6 0
BBX 8 26 -1 -6
BITMAP
3C
3C
66
C3
00
18
18
18
18
18
18
18
18
18
18
18
18
18
18
18
18
18
18
18
F8
F0
ENDCHAR
STARTCHAR 0136
ENCODING 310
SWIDTH 684 0
DWIDTH 19 0
BBX 16 28 2 -8
BITMAP
E00F
E01E
E03C
E078
E0F0
E1E0
E3C0
E780
EF00
FF80
F9C0
F1C0
E0E0
E070
E070
E038
E01C
E01E
E00E
E007
0000
0000
0380
0380
0380
0080
0080
0300
ENDCHAR
STARTCHAR 0137
ENCODING 311
SWIDTH 504 0
DWIDTH 14 0
BBX 12 28 2 -8
BITMAP
C000
C000
C000
C000
C000
C0E0
C1C0
C380
C700
CE00
DC00
FE00
F600
E700
C380
C380
C1C0
C0C0
C0E0
C070
0000
0000
0E00
0E00
0E00
0200
0600
0C00
ENDCHAR
STARTCHAR 0138
ENCODING 312
SWIDTH 504 0
DWIDTH 14 0
BBX 11 14 1 0
BITMAP
C0E0
C1C0
C380
C700
CE00
DC00
FC00
E600
C700
C300
C180
C0C0
C0C0
C060
ENDCHAR
STARTCHAR 0139
ENCODING 313
SWIDTH 540 0
DWIDTH 15 0
BBX 13 26 2 0
BITMAP
3800
3000
6000
C000
0000
0000
E000
E000
E000
E000
E000
E000
E000
E000
E000
E000
E000
E000
E000
E000
E000
E000
E000
E000
FFF8
FFF8
ENDCHAR
STARTCHAR 013A
ENCODING 314
SWIDTH 216 0
DWIDTH 6 0
BBX 5 26 2 0
BITMAP
38
30
60
C0
00
00
C0
C0
C0
C0
C0
C0
C0
C0
C0
C0
C0
C0
C0
C0
C0
C0
C0
C0
C0
C0
ENDCHAR
STARTCHAR 013B
ENCODING 315
SWIDTH 540 0
DWIDTH 15 0
BBX 13 28 2 -8
BITMAP
E000
E000
E000
E000
E000
E000
E000
E000
E000
E000
E000
E000
E000
E000
E000
E000
E000
E000
FFF8
FFF8
0000
0000
0700
0700
0700
0100
0300
0600
ENDCHAR
STARTCHAR 013C
ENCODING 316
SWIDTH 216 0
DWIDTH 6 0
BBX 3 28 2 -8
BITMAP
C0
C0
C0
C0
C0
C0
C0
C0
C0
C0
C0
C0
C0
C0
C0
C0
C0
C0
C0
C0
00
00
E0
E0
E0
40
40
C0
ENDCHAR
STARTCHAR 013D
ENCODING 317
SWIDTH 540 0
DWIDTH 15 0
BBX 13 20 2 0
BITMAP
E300
E300
E300
E100
E100
E200
E000
E000
E000
E000
E000
E000
E000
E000
E000
E000
E000
E000
FFF8
FFF8
ENDCHAR
STARTCHAR 013E
ENCODING 318
SWIDTH 288 0
DWIDTH 8 0
BBX 6 20 2 0
BITMAP
CC
CC
CC
C4
C4
CC
C0
C0
C0
C0
C0
C0
C0
C0
C0
C0
C0
C0
C0
C0
ENDCHAR
STARTCHAR 013F
ENCODING 319
SWIDTH 540 0
DWIDTH 15 0
BBX 13 20 2 0
BITMAP
E000
E000
E000
E000
E000
E000
E000
E000
E000
E1C0
E1C0
E1C0
E000
E000
E000
E000
E000
E000
FFF8
FFF8
ENDCHAR
STARTCHAR 0140
ENCODING 320
SWIDTH 324 0
DWIDTH 9 0
BBX 7 20 2 0
BITMAP
C0
C0
C0
C0
C0
C0
C0
C0
C0
CE
CE
CE
C0
C0
C0
C0
C0
C0
C0
C0
ENDCHAR
STARTCHAR 0141
ENCODING 321
SWIDTH 540 0
DWIDTH 15 0
BBX 15 20 0 0
BITMAP
3800
3800
3800
3800
3800
3800
38C0
39C0
3F00
3E00
3800
F800
F800
B800
3800
3800
3800
3800
3FFE
3FFE
ENDCHAR
STARTCHAR 0142
ENCODING 322
SWIDTH 216 0
DWIDTH 6 0
BBX 6 20 0 0
BITMAP
30
30
30
30
30
30
30
34
3C
38
70
F0
30
30
30
30
30
30
30
30
ENDCHAR
STARTCHAR 0143
ENCODING 323
SWIDTH 720 0
DWIDTH 20 0
BBX 16 26 2 0
BITMAP
0070
00E0
01C0
0180
0000
0000
E007
F007
F807
F807
FC07
EC07
EE07
E707
E307
E387
E1C7
E0C7
E0E7
E077
E077
E03F
E01F
E01F
E00F
E007
ENDCHAR
STARTCHAR 0144
ENCODING 324
SWIDTH 540 0
DWIDTH 15 0
BBX 12 20 2 0
BITMAP
0380
0700
0600
0800
0000
CF80
DFE0
F0E0
E070
E070
C070
C070
C070
C070
C070
C070
C070
C070
C070
C070
ENDCHAR
STARTCHAR 0145
ENCODING 325
SWIDTH 720 0
DWIDTH 20 0
BBX 16 28 2 -8
BITMAP
E007
F007
F807
F807
FC07
EC07
EE07
E707
E307
E387
E1C7
E0C7
E0E7
E077
E077
E03F
E01F
E01F
E00F
E007
0000
0000
0380
0380
0380
0080
0080
0300
ENDCHAR
STARTCHAR 0146
ENCODING 326
SWIDTH 540 0
DWIDTH 15 0
BBX 12 23 2 -8
BITMAP
CF80
DFE0
F0E0
E070
E070
C070
C070
C070
C070
C070
C070
C070
C070
C070
C070
0000
0000
0E00
0E00
0E00
0200
0200
0C00
ENDCHAR
STARTCHAR 0147
ENCODING 327
SWIDTH 720 0
DWIDTH 20 0
BBX 16 26 2 0
BITMAP
0C30
0660
03E0
03C0
0000
0000
E007
F007
F807
F807
FC07
EC07
EE07
E707
E307
E387
E1C7
E0C7
E0E7
E077
E077
E03F
E01F
E01F
E00F
E007
ENDCHAR
STARTCHAR 0148
ENCODING 328
SWIDTH 540 0
DWIDTH 15 0
BBX 12 20 2 0
BITMAP
3180
1B80
0F00
0E00
0000
CF80
DFE0
F0E0
E070
E070
C070
C070
C070
C070
C070
C070
C070
C070
C070
C070
ENDCHAR
STARTCHAR 0149
ENCODING 329
SWIDTH 612 0
DWIDTH 17 0
BBX 15 21 0 0
BITMAP
E000
E000
E000
2000
6000
C000
19F8
1BFC
1F1E
1E0E
1C06
1C06
1C06
1C06
1C06
1C06
1C06
1C06
1C06
1C06
1C06
ENDCHAR
STARTCHAR 014A
ENCODING 330
SWIDTH 720 0
DWIDTH 20 0
BBX 15 28 3 -8
BITMAP
03E0
CFF8
DE7C
F01C
E00E
E00E
C00E
C00E
C00E
C00E
C00E
C00E
C00E
C00E
C00E
C00E
C00E
C00E
C00E
C00E
000E
000E
000E
000E
000E
001C
00FC
00F8
ENDCHAR
STARTCHAR 014B
ENCODING 331
SWIDTH 540 0
DWIDTH 15 0
BBX 12 21 2 -6
BITMAP
C780
DFE0
F0E0
E070
E070
C070
C070
C070
C070
C070
C070
C070
C070
C070
C070
0070
0070
0070
0060
01E0
01C0
ENDCHAR
STARTCHAR 014C
ENCODING 332
SWIDTH 792 0
DWIDTH 22 0
BBX 20 24 1 0
BITMAP
03FC00
03FC00
000000
000000
01F800
0FFE00
1F0F80
3C03C0
3801C0
7000E0
6000E0
E00060
E00070
E00070
E00070
E00070
E00060
6000E0
7000E0
7801C0
3C0380
1F0F80
0FFE00
03F800
ENDCHAR
STARTCHAR 014D
ENCODING 333
SWIDTH 540 0
DWIDTH 15 0
BBX 13 20 1 0
BITMAP
1FC0
1FC0
0000
0000
0000
0F80
3FE0
78F0
7030
E038
E018
C018
C018
E018
E018
E038
7030
78F0
3FE0
0F80
ENDCHAR
STARTCHAR 014E
ENCODING 334
SWIDTH 792 0
DWIDTH 22 0
BBX 20 25 1 0
BITMAP
020C00
030C00
03F800
00F000
000000
01F800
0FFE00
1F0F80
3C03C0
3801C0
7000E0
6000E0
E00060
E00070
E00070
E00070
E00070
E00060
6000E0
7000E0
7801C0
3C0380
1F0F80
0FFE00
03F800
ENDCHAR
STARTCHAR 014F
ENCODING 335
SWIDTH 540 0
DWIDTH 15 0
BBX 13 20 1 0
BITMAP
3060
18C0
1FC0
0F80
0000
0F80
3FE0
78F0
7030
E038
E018
C018
C018
E018
E018
E038
7030
78F0
3FE0
0F80
ENDCHAR
STARTCHAR 0150
ENCODING 336
SWIDTH 792 0
DWIDTH 22 0
BBX 20 26 1 0
BITMAP
007380
00E700
00C600
018C00
011800
000000
01F800
0FFE00
1F0F80
3C03C0
3801C0
7000E0
6000E0
E00060
E00070
E00070
E00070
E00070
E00060
6000E0
7000E0
7801C0
3C0380
1F0F80
0FFE00
03F800
ENDCHAR
STARTCHAR 0151
ENCODING 337
SWIDTH 540 0
DWIDTH 15 0
BBX 13 20 1 0
BITMAP
0738
0670
0C60
18C0
0000
0F80
3FE0
78F0
7030
E038
E018
C018
C018
E018
E018
E038
7030
78F0
3FE0
0F80
ENDCHAR
STARTCHAR 0152
ENCODING 338
SWIDTH 1008 0
DWIDTH 28 0
BBX 26 20 1 0
BITMAP
03E3FFC0
0FFBFFC0
1E3F0000
380F0000
70070000
70030000
60030000
E0030000
E0030000
E003FF80
E003FF80
E0030000
E0030000
60030000
70030000
70070000
380F0000
1E3F0000
0FFBFFC0
03E3FFC0
ENDCHAR
STARTCHAR 0153
ENCODING 339
SWIDTH 936 0
DWIDTH 26 0
BBX 24 15 1 0
BITMAP
0F81F0
3FE7FC
78FF1E
703C06
603C07
E01807
E01FFF
E01FFF
E01800
E01800
603C07
703C06
78FF1E
3FE7FC
0F81F0
ENDCHAR
STARTCHAR 0154
ENCODING 340
SWIDTH 720 0
DWIDTH 20 0
BBX 16 26 3 0
BITMAP
01C0
0180
0300
0600
0000
0000
FFF0
FFFC
C03C
C00E
C00E
C00E
C00E
C00E
C01C
FFF8
FFF8
C03C
C00C
C00E
C00E
C00E
C00E
C00E
C00E
C007
ENDCHAR
STARTCHAR 0155
ENCODING 341
SWIDTH 324 0
DWIDTH 9 0
BBX 7 20 2 0
BITMAP
0E
18
30
00
00
CE
DE
F0
E0
E0
C0
C0
C0
C0
C0
C0
C0
C0
C0
C0
ENDCHAR
STARTCHAR 0156
ENCODING 342
SWIDTH 720 0
DWIDTH 20 0
BBX 16 28 3 -8
BITMAP
FFF0
FFFC
C03C
C00E
C00E
C00E
C00E
C00E
C01C
FFF8
FFF8
C03C
C00C
C00E
C00E
C00E
C00E
C00E
C00E
C007
0000
0000
0380
0380
0380
0180
0100
0300
ENDCHAR
STARTCHAR 0157
ENCODING 343
SWIDTH 324 0
DWIDTH 9 0
BBX 7 23 2 -8
BITMAP
CE
DE
F0
E0
E0
C0
C0
C0
C0
C0
C0
C0
C0
C0
C0
00
00
E0
E0
E0
60
40
C0
ENDCHAR
STARTCHAR 0158
ENCODING 344
SWIDTH 720 0
DWIDTH 20 0
BBX 16 26 3 0
BITMAP
1860
0CC0
0F80
0780
0000
0000
FFF0
FFFC
C03C
C00E
C00E
C00E
C00E
C00E
C01C
FFF8
FFF8
C03C
C00C
C00E
C00E
C00E
C00E
C00E
C00E
C007
ENDCHAR
STARTCHAR 0159
ENCODING 345
SWIDTH 324 0
DWIDTH 9 0
BBX 7 20 2 0
BITMAP
C6
EC
78
38
00
CE
DE
F0
E0
E0
C0
C0
C0
C0
C0
C0
C0
C0
C0
C0
ENDCHAR
STARTCHAR 015A
ENCODING 346
SWIDTH 684 0
DWIDTH 19 0
BBX 16 26 1 0
BITMAP
0070
00E0
00C0
0180
0300
0000
07F0
1FFC
3C3C
700E
7006
7007
7000
7800
3F00
1FF0
01FC
001E
0007
E007
E003
6007
7007
3E1E
1FFC
07F0
ENDCHAR
STARTCHAR 015B
ENCODING 347
SWIDTH 504 0
DWIDTH 14 0
BBX 12 20 1 0
BITMAP
0380
0300
0600
0C00
0000
1F80
3FC0
71E0
E060
E000
F000
7E00
3FC0
03E0
0070
C070
E070
F0E0
7FC0
1F80
ENDCHAR
STARTCHAR 015C
ENCODING 348
SWIDTH 684 0
DWIDTH 19 0
BBX 16 26 1 0
BITMAP
01C0
03C0
0360
0660
0C30
0000
07F0
1FFC
3C3C
700E
7006
7007
7000
7800
3F00
1FF0
01FC
001E
0007
E007
E003
6007
7007
3E1E
1FFC
07F0
ENDCHAR
STARTCHAR 015D
ENCODING 349
SWIDTH 504 0
DWIDTH 14 0
BBX 12 20 1 0
BITMAP
0F00
0F00
1980
30C0
0000
1F80
3FC0
71E0
E060
E000
F000
7E00
3FC0
03E0
0070
C070
E070
F0E0
7FC0
1F80
ENDCHAR
STARTCHAR 015E
ENCODING 350
SWIDTH 684 0
DWIDTH 19 0
BBX 16 26 1 -6
BITMAP
07F0
1FFC
3C3E
700E
7007
7007
7000
7800
3F00
1FF0
03FC
003E
0007
E003
E003
6003
7007
3C0E
1FFC
0FF8
0100
01C0
00E0
0060
0CE0
07C0
ENDCHAR
STARTCHAR 015F
ENCODING 351
SWIDTH 504 0
DWIDTH 14 0
BBX 12 21 1 -6
BITMAP
1F80
3FC0
71E0
E0E0
E060
E000
7800
3F80
1FE0
01E0
0070
E070
E070
F0E0
7FE0
3F80
0C00
0F00
0300
2300
3E00
ENDCHAR
STARTCHAR 0160
ENCODING 352
SWIDTH 684 0
DWIDTH 19 0
BBX 16 26 1 0
BITMAP
0C30
0630
0360
03C0
01C0
0000
07F0
1FFC
3C3C
700E
7006
7007
7000
7800
3F00
1FF0
01FC
001E
0007
E007
E003
6007
7007
3E1E
1FFC
07F0
ENDCHAR
STARTCHAR 0161
ENCODING 353
SWIDTH 504 0
DWIDTH 14 0
BBX 12 20 1 0
BITMAP
3080
1980
0F00
0E00
0000
1F80
3FC0
71E0
E060
E000
F000
7E00
3FC0
03E0
0070
C070
E070
F0E0
7FC0
1F80
ENDCHAR
STARTCHAR 0162
ENCODING 354
SWIDTH 612 0
DWIDTH 17 0
BBX 15 26 1 -6
BITMAP
FFFE
FFFE
0380
0380
0380
0380
0380
0380
0380
0380
0380
0380
0380
0380
0380
0380
0380
0380
0380
0380
0100
0100
03E0
0060
0CE0
07C0
ENDCHAR
STARTCHAR 0163
ENCODING 355
SWIDTH 288 0
DWIDTH 8 0
BBX 7 24 0 -5
BITMAP
38
38
38
38
FE
FE
38
38
38
38
38
38
38
38
38
38
38
3E
1E
10
1E
06
46
7C
ENDCHAR
STARTCHAR 0164
ENCODING 356
SWIDTH 612 0
DWIDTH 17 0
BBX 15 26 1 0
BITMAP
0C60
0C60
06C0
0380
0000
0000
FFFE
FFFE
0380
0380
0380
0380
0380
0380
0380
0380
0380
0380
0380
0380
0380
0380
0380
0380
0380
0380
ENDCHAR
STARTCHAR 0165
ENCODING 357
SWIDTH 324 0
DWIDTH 9 0
BBX 9 23 0 0
BITMAP
0380
0380
0380
0080
3980
3B00
3800
3800
FE00
FE00
3800
3800
3800
3800
3800
3800
3800
3800
3800
3800
3800
3E00
1E00
ENDCHAR
STARTCHAR 0166
ENCODING 358
SWIDTH 612 0
DWIDTH 17 0
BBX 15 20 1 0
BITMAP
FFFE
FFFE
0380
0380
0380
0380
0380
3FF8
3FF8
0380
0380
0380
0380
0380
0380
0380
0380
0380
0380
0380
ENDCHAR
STARTCHAR 0167
ENCODING 359
SWIDTH 288 0
DWIDTH 8 0
BBX 7 19 0 0
BITMAP
38
38
38
38
FE
FE
38
38
7E
38
38
38
38
38
38
38
38
3E
1E
ENDCHAR
STARTCHAR 0168
ENCODING 360
SWIDTH 720 0
DWIDTH 20 0
BBX 16 25 2 0
BITMAP
0730
0FF0
08E0
0000
0000
E007
E007
E007
E007
E007
E007
E007
E007
E007
E007
E007
E007
E007
E007
E007
6007
700E
3C3E
1FF8
07E0
ENDCHAR
STARTCHAR 0169
ENCODING 361
SWIDTH 540 0
DWIDTH 15 0
BBX 11 20 2 -1
BITMAP
38C0
3FC0
6380
0000
0000
C060
C060
C060
C060
C060
C060
C060
C060
C060
C060
C060
C0E0
E1E0
7FE0
3F60
ENDCHAR
STARTCHAR 016A
ENCODING 362
SWIDTH 720 0
DWIDTH 20 0
BBX 16 25 2 0
BITMAP
0FF0
0FF0
0000
0000
0000
E007
E007
E007
E007
E007
E007
E007
E007
E007
E007
E007
E007
E007
E007
E007
6007
700E
3C3E
1FF8
07E0
ENDCHAR
STARTCHAR 016B
ENCODING 363
SWIDTH 540 0
DWIDTH 15 0
BBX 11 20 2 -1
BITMAP
3F80
3F80
0000
0000
0000
C060
C060
C060
C060
C060
C060
C060
C060
C060
C060
C060
C0E0
E1E0
7FE0
3F60
ENDCHAR
STARTCHAR 016C
ENCODING 364
SWIDTH 720 0
DWIDTH 20 0
BBX 16 26 2 0
BITMAP
0C10
0C30
0FE0
03C0
0000
0000
E007
E007
E007
E007
E007
E007
E007
E007
E007
E007
E007
E007
E007
E007
E007
6007
700E
3C3E
1FF8
07E0
ENDCHAR
STARTCHAR 016D
ENCODING 365
SWIDTH 540 0
DWIDTH 15 0
BBX 11 20 2 -1
BITMAP
20C0
3F80
1F00
0000
0000
C060
C060
C060
C060
C060
C060
C060
C060
C060
C060
C060
C0E0
E1E0
7FE0
3F60
ENDCHAR
STARTCHAR 016E
ENCODING 366
SWIDTH 720 0
DWIDTH 20 0
BBX 16 26 2 0
BITMAP
03C0
0240
0260
0340
01C0
0000
E007
E007
E007
E007
E007
E007
E007
E007
E007
E007
E007
E007
E007
E007
E007
6007
700E
3C3E
1FF8
07E0
ENDCHAR
STARTCHAR 016F
ENCODING 367
SWIDTH 540 0
DWIDTH 15 0
BBX 11 21 2 -1
BITMAP
0E00
1900
1900
0E00
0000
0000
C060
C060
C060
C060
C060
C060
C060
C060
C060
C060
C060
C0E0
E1E0
7FE0
3F60
ENDCHAR
STARTCHAR 0170
ENCODING 368
SWIDTH 720 0
DWIDTH 20 0
BBX 16 26 2 0
BITMAP
01CE
039C
0338
0630
0000
0000
E007
E007
E007
E007
E007
E007
E007
E007
E007
E007
E007
E007
E007
E007
E007
6007
700E
3C3E
1FF8
07E0
ENDCHAR
STARTCHAR 0171
ENCODING 369
SWIDTH 540 0
DWIDTH 15 0
BBX 12 20 2 -1
BITMAP
0E70
0C60
18C0
3180
0000
C060
C060
C060
C060
C060
C060
C060
C060
C060
C060
C060
C0E0
E1E0
7FE0
3F60
ENDCHAR
STARTCHAR 0172
ENCODING 370
SWIDTH 720 0
DWIDTH 20 0
BBX 16 25 2 -5
BITMAP
E007
E007
E007
E007
E007
E007
E007
E007
E007
E007
E007
E007
E007
E007
E007
6007
700E
3C3E
1FFC
07F8
0030
0060
0060
0070
003E
ENDCHAR
STARTCHAR 0173
ENCODING 371
SWIDTH 540 0
DWIDTH 15 0
BBX 12 20 2 -5
BITMAP
C060
C060
C060
C060
C060
C060
C060
C060
C060
C060
C060
C0E0
E1E0
7F60
3E60
0060
00C0
0180
01C0
0070
ENDCHAR
STARTCHAR 0174
ENCODING 372
SWIDTH 936 0
DWIDTH 26 0
BBX 25 26 1 0
BITMAP
003C0000
003C0000
00660000
00620000
00010000
00000000
E01C0380
E03C0300
E03C0700
E03E0700
703E0700
70760600
70660E00
30670E00
38E30E00
38E30C00
38C38C00
18C39C00
19C19C00
1D819800
1D81D800
0D80F800
0F80F800
0F00F000
0F00F000
07007000
ENDCHAR
STARTCHAR 0175
ENCODING 373
SWIDTH 720 0
DWIDTH 20 0
BBX 20 20 0 0
BITMAP
00F000
01F000
019800
030C00
000000
E0E070
60F060
60F0E0
70F0E0
71F0C0
31B8C0
3199C0
3999C0
1B9980
1B1D80
1B0F80
1F0F00
0F0F00
0E0F00
0E0700
ENDCHAR
STARTCHAR 0176
ENCODING 374
SWIDTH 684 0
DWIDTH 19 0
BBX 17 26 1 0
BITMAP
01C000
03E000
036000
063000
000000
000000
E00380
E00700
700700
380E00
380E00
1C1C00
0E3800
0E3800
077000
076000
03E000
01C000
01C000
01C000
01C000
01C000
01C000
01C000
01C000
01C000
ENDCHAR
STARTCHAR 0177
ENCODING 375
SWIDTH 504 0
DWIDTH 14 0
BBX 12 26 1 -6
BITMAP
0F00
1F00
1980
30C0
0000
C030
E070
E060
6060
60E0
70C0
30C0
31C0
3980
1B80
1B00
1F00
0F00
0E00
0E00
0E00
0C00
1C00
1C00
F800
F000
ENDCHAR
STARTCHAR 0178
ENCODING 376
SWIDTH 684 0
DWIDTH 19 0
BBX 17 25 1 0
BITMAP
077000
077000
077000
000000
000000
E00380
E00700
700700
380E00
380E00
1C1C00
0E3800
0E3800
077000
076000
03E000
01C000
01C000
01C000
01C000
01C000
01C000
01C000
01C000
01C000
ENDCHAR
STARTCHAR 0179
ENCODING 377
SWIDTH 612 0
DWIDTH 17 0
BBX 15 26 1 0
BITMAP
00E0
00C0
0180
0300
0000
0000
7FFE
7FFE
000E
001C
0038
0078
0070
00E0
01C0
03C0
0780
0700
0E00
1C00
3C00
3800
7000
E000
FFFE
FFFE
ENDCHAR
STARTCHAR 017A
ENCODING 378
SWIDTH 504 0
DWIDTH 14 0
BBX 12 20 1 0
BITMAP
0380
0300
0600
0000
0000
FFE0
FFE0
00E0
01C0
0180
0380
0700
0E00
1C00
1800
3800
7000
E000
FFF0
FFF0
ENDCHAR
STARTCHAR 017B
ENCODING 379
SWIDTH 612 0
DWIDTH 17 0
BBX 15 25 1 0
BITMAP
0380
0380
0380
0000
0000
7FFE
7FFE
000E
001C
0038
0078
0070
00E0
01C0
03C0
0780
0700
0E00
1C00
3C00
3800
7000
E000
FFFE
FFFE
ENDCHAR
STARTCHAR 017C
ENCODING 380
SWIDTH 504 0
DWIDTH 14 0
BBX 12 20 1 0
BITMAP
0600
0600
0600
0000
0000
FFE0
FFE0
00E0
01C0
0180
0380
0700
0E00
1C00
1800
3800
7000
E000
FFF0
FFF0
ENDCHAR
STARTCHAR 017D
ENCODING 381
SWIDTH 612 0
DWIDTH 17 0
BBX 15 26 1 0
BITMAP
0C30
0660
07C0
03C0
0000
0000
7FFE
7FFE
000E
001C
0038
0078
0070
00E0
01C0
03C0
0780
0700
0E00
1C00
3C00
3800
7000
E000
FFFE
FFFE
ENDCHAR
STARTCHAR 017E
ENCODING 382
SWIDTH 504 0
DWIDTH 14 0
BBX 12 20 1 0
BITMAP
30C0
1980
0F00
0600
0000
FFE0
FFE0
00E0
01C0
0180
0380
0700
0E00
1C00
1800
3800
7000
E000
FFF0
FFF0
ENDCHAR
STARTCHAR 017F
ENCODING 383
SWIDTH 216 0
DWIDTH 6 0
BBX 6 20 0 0
BITMAP
1C
3C
30
30
30
F0
F0
30
30
30
30
30
30
30
30
30
30
30
30
30
ENDCHAR
STARTCHAR 0192
ENCODING 402
SWIDTH 540 0
DWIDTH 15 0
BBX 15 26 0 -6
BITMAP
001E
003E
0070
00E0
00C0
00C0
01C0
0FF8
0FF8
0180
0180
0180
0380
0380
0300
0300
0300
0700
0700
0700
0600
0600
0E00
1C00
7800
F000
ENDCHAR
STARTCHAR 01FA
ENCODING 506
SWIDTH 684 0
DWIDTH 19 0
BBX 17 30 1 0
BITMAP
01C000
038000
070000
060000
0DC000
026000
026000
036000
01C000
000000
03C000
03E000
03E000
076000
077000
067000
0E3000
0E3800
0C3800
1C1800
181C00
181C00
3FFC00
3FFE00
700E00
700700
600700
E00700
E00380
C00380
ENDCHAR
STARTCHAR 01FB
ENCODING 507
SWIDTH 540 0
DWIDTH 15 0
BBX 14 25 1 0
BITMAP
0700
0600
0C00
1800
0700
0580
0C80
0D80
0700
0000
0FC0
3FE0
78F0
6030
6030
0030
03F0
3FF0
7830
E030
E030
E070
F0F0
7FBC
3F1C
ENDCHAR
STARTCHAR 01FC
ENCODING 508
SWIDTH 1008 0
DWIDTH 28 0
BBX 26 26 0 0
BITMAP
00007000
0000E000
0001C000
00018000
00000000
00000000
00FFFFC0
00FFFFC0
00C70000
01C70000
01870000
03870000
03870000
07070000
07070000
0607FF80
0E07FF80
0C070000
1FFF0000
1FFF0000
18070000
38070000
38070000
70070000
7007FFC0
E007FFC0
ENDCHAR
STARTCHAR 01FD
ENCODING 509
SWIDTH 900 0
DWIDTH 25 0
BBX 22 20 1 0
BITMAP
000E00
001800
003000
006000
000000
1F83E0
3FEFF0
70FC38
60781C
00300C
00700C
0FFFFC
3FBFFC
703000
E03000
C0300C
E0781C
E1DC38
7F8FF0
3E07E0
ENDCHAR
STARTCHAR 01FE
ENCODING 510
SWIDTH 792 0
DWIDTH 22 0
BBX 20 26 1 0
BITMAP
003800
007000
006000
00C000
018000
000000
01F830
0FFE60
1F1FC0
3C0380
7003C0
7006E0
600CE0
E01860
E03060
E06070
E0C070
E18060
E30060
E600E0
7C00E0
7801C0
3C0380
7F0F80
CFFE00
03F800
ENDCHAR
STARTCHAR 01FF
ENCODING 511
SWIDTH 612 0
DWIDTH 17 0
BBX 13 21 1 0
BITMAP
01C0
0380
0700
0600
0000
0000
0F88
3FF8
78F0
7030
E078
E098
C118
C218
C618
EC18
F838
7030
78F0
FFE0
8F80
ENDCHAR
STARTCHAR 0218
ENCODING 536
SWIDTH 684 0
DWIDTH 19 0
BBX 16 27 1 -7
BITMAP
07F0
1FFC
3C3C
700E
7006
7007
7000
7800
3F00
1FF0
01FC
001E
0007
E007
E003
6007
7007
3E1E
1FFC
07F0
0000
01C0
01C0
01C0
0040
00C0
0180
ENDCHAR
STARTCHAR 0219
ENCODING 537
SWIDTH 504 0
DWIDTH 14 0
BBX 12 22 1 -7
BITMAP
1F80
3FC0
71E0
E060
E000
F000
7E00
3FC0
03E0
0070
C070
E070
F0E0
7FC0
1F80
0000
0E00
0E00
0E00
0200
0200
0C00
ENDCHAR
STARTCHAR 021A
ENCODING 538
SWIDTH 612 0
DWIDTH 17 0
BBX 15 28 1 -8
BITMAP
FFFE
FFFE
0380
0380
0380
0380
0380
0380
0380
0380
0380
0380
0380
0380
0380
0380
0380
0380
0380
0380
0000
0000
0380
0380
0380
0080
0180
0300
ENDCHAR
STARTCHAR 021B
ENCODING 539
SWIDTH 288 0
DWIDTH 8 0
BBX 7 26 0 -7
BITMAP
38
38
38
38
FE
FE
38
38
38
38
38
38
38
38
38
38
38
3E
1E
00
1C
1C
1C
04
0C
18
ENDCHAR
STARTCHAR 02C6
ENCODING 710
SWIDTH 324 0
DWIDTH 9 0
BBX 7 4 1 16
BITMAP
38
7C
6C
C6
ENDCHAR
STARTCHAR 02C7
ENCODING 711
SWIDTH 324 0
DWIDTH 9 0
BBX 7 4 1 16
BITMAP
C6
EE
6C
38
ENDCHAR
STARTCHAR 02C9
ENCODING 713
SWIDTH 324 0
DWIDTH 9 0
BBX 7 2 1 18
BITMAP
FE
FE
ENDCHAR
STARTCHAR 02D8
ENCODING 728
SWIDTH 324 0
DWIDTH 9 0
BBX 9 4 0 16
BITMAP
C180
6300
7F00
3E00
ENDCHAR
STARTCHAR 02D9
ENCODING 729
SWIDTH 324 0
DWIDTH 9 0
BBX 3 3 3 17
BITMAP
E0
E0
E0
ENDCHAR
STARTCHAR 02DA
ENCODING 730
SWIDTH 324 0
DWIDTH 9 0
BBX 5 5 2 16
BITMAP
70
D8
88
D8
70
ENDCHAR
STARTCHAR 02DB
ENCODING 731
SWIDTH 324 0
DWIDTH 9 0
BBX 5 6 2 -6
BITMAP
60
C0
C0
C0
E0
78
ENDCHAR
STARTCHAR 02DC
ENCODING 732
SWIDTH 324 0
DWIDTH 9 0
BBX 9 3 0 17
BITMAP
7180
7F00
C700
ENDCHAR
STARTCHAR 02DD
ENCODING 733
SWIDTH 324 0
DWIDTH 9 0
BBX 10 4 -1 16
BITMAP
39C0
3180
6300
C600
ENDCHAR
STARTCHAR 0384
ENCODING 900
SWIDTH 324 0
DWIDTH 9 0
BBX 2 6 4 16
BITMAP
C0
C0
C0
C0
80
80
ENDCHAR
STARTCHAR 0385
ENCODING 901
SWIDTH 324 0
DWIDTH 9 0
BBX 7 7 1 17
BITMAP
38
38
18
10
F6
E6
E6
ENDCHAR
STARTCHAR 0386
ENCODING 902
SWIDTH 684 0
DWIDTH 19 0
BBX 17 20 1 0
BITMAP
63C000
63E000
63E000
676000
477000
067000
0E3000
0E3800
0C3800
1C1800
181C00
181C00
3FFC00
3FFE00
700E00
700700
600700
E00700
E00380
C00380
ENDCHAR
STARTCHAR 0387
ENCODING 903
SWIDTH 288 0
DWIDTH 8 0
BBX 3 3 3 6
BITMAP
E0
E0
E0
ENDCHAR
STARTCHAR 0388
ENCODING 904
SWIDTH 792 0
DWIDTH 22 0
BBX 18 20 1 0
BITMAP
CFFFC0
CFFFC0
CC0000
CC0000
CC0000
0C0000
0C0000
0C0000
0C0000
0FFF80
0FFF80
0C0000
0C0000
0C0000
0C0000
0C0000
0C0000
0C0000
0FFFC0
0FFFC0
ENDCHAR
STARTCHAR 0389
ENCODING 905
SWIDTH 828 0
DWIDTH 23 0
BBX 19 20 1 0
BITMAP
DC00E0
DC00E0
DC00E0
DC00E0
9C00E0
1C00E0
1C00E0
1C00E0
1C00E0
1FFFE0
1FFFE0
1C00E0
1C00E0
1C00E0
1C00E0
1C00E0
1C00E0
1C00E0
1C00E0
1C00E0
ENDCHAR
STARTCHAR 038A
ENCODING 906
SWIDTH 396 0
DWIDTH 11 0
BBX 6 20 1 0
BITMAP
DC
DC
DC
DC
9C
1C
1C
1C
1C
1C
1C
1C
1C
1C
1C
1C
1C
1C
1C
1C
ENDCHAR
STARTCHAR 038C
ENCODING 908
SWIDTH 792 0
DWIDTH 22 0
BBX 22 20 -1 0
BITMAP
E0FE00
E3FF80
E7C3E0
4F00F0
5C0070
1C0038
180038
380018
380018
38001C
38001C
380018
380018
380038
1C0038
1C0070
0F00E0
07C3C0
03FF80
00FE00
ENDCHAR
STARTCHAR 038E
ENCODING 910
SWIDTH 864 0
DWIDTH 24 0
BBX 21 20 1 0
BITMAP
DE0038
CE0070
C700E0
C700E0
C381C0
01C1C0
01C380
00E700
00E700
007E00
003C00
003C00
001800
001800
001800
001800
001800
001800
001800
001800
ENDCHAR
STARTCHAR 038F
ENCODING 911
SWIDTH 756 0
DWIDTH 21 0
BBX 21 20 -1 0
BITMAP
E0FE00
E3FF80
E7C7C0
4E01E0
5C0070
1C0070
180030
380038
380038
380038
380038
380030
180030
1C0070
0C0060
0E00E0
0701C0
018700
3FC7F8
3FC7F8
ENDCHAR
STARTCHAR 0390
ENCODING 912
SWIDTH 216 0
DWIDTH 6 0
BBX 8 24 -1 0
BITMAP
18
18
18
18
FF
E7
E7
00
00
18
18
18
18
18
18
18
18
18
18
18
18
18
18
18
ENDCHAR
STARTCHAR 0391
ENCODING 913
SWIDTH 684 0
DWIDTH 19 0
BBX 17 20 1 0
BITMAP
03C000
03E000
03E000
076000
077000
067000
0E3000
0E3800
0C3800
1C1800
181C00
181C00
3FFC00
3FFE00
700E00
700700
600700
E00700
E00380
C00380
ENDCHAR
STARTCHAR 0392
ENCODING 914
SWIDTH 684 0
DWIDTH 19 0
BBX 15 20 2 0
BITMAP
FFE0
FFF8
E03C
E01C
E00C
E00C
E00C
E01C
E038
FFF0
FFF8
E01E
E00E
E006
E006
E006
E00E
E01C
FFFC
FFF0
ENDCHAR
STARTCHAR 0393
ENCODING 915
SWIDTH 540 0
DWIDTH 15 0
BBX 13 20 2 0
BITMAP
FFF8
FFF8
E000
E000
E000
E000
E000
E000
E000
E000
E000
E000
E000
E000
E000
E000
E000
E000
E000
E000
ENDCHAR
STARTCHAR 0394
ENCODING 916
SWIDTH 684 0
DWIDTH 19 0
BBX 19 20 0 0
BITMAP
00E000
01E000
01F000
03F000
03B000
033800
071800
061C00
0E1C00
0E0E00
0C0E00
1C0600
180700
380700
380380
700380
700180
6001C0
FFFFC0
FFFFE0
ENDCHAR
STARTCHAR 0395
ENCODING 917
SWIDTH 684 0
DWIDTH 19 0
BBX 14 20 3 0
BITMAP
FFFC
FFFC
C000
C000
C000
C000
C000
C000
C000
FFF8
FFF8
C000
C000
C000
C000
C000
C000
C000
FFFC
FFFC
ENDCHAR
STARTCHAR 0396
ENCODING 918
SWIDTH 612 0
DWIDTH 17 0
BBX 15 20 1 0
BITMAP
7FFE
7FFE
000E
001C
0038
0078
0070
00E0
01C0
03C0
0780
0700
0E00
1C00
3C00
3800
7000
E000
FFFE
FFFE
ENDCHAR
STARTCHAR 0397
ENCODING 919
SWIDTH 720 0
DWIDTH 20 0
BBX 16 20 2 0
BITMAP
E007
E007
E007
E007
E007
E007
E007
E007
E007
FFFF
FFFF
E007
E007
E007
E007
E007
E007
E007
E007
E007
ENDCHAR
STARTCHAR 0398
ENCODING 920
SWIDTH 792 0
DWIDTH 22 0
BBX 20 20 1 0
BITMAP
01F800
0FFE00
1F0F80
3C03C0
7001C0
7000E0
6000E0
E00060
E00070
E3FC70
E3FC70
E00070
E00060
6000E0
7000E0
7801C0
3C0380
1F0F80
0FFE00
03F800
ENDCHAR
STARTCHAR 0399
ENCODING 921
SWIDTH 288 0
DWIDTH 8 0
BBX 2 20 3 0
BITMAP
C0
C0
C0
C0
C0
C0
C0
C0
C0
C0
C0
C0
C0
C0
C0
C0
C0
C0
C0
C0
ENDCHAR
STARTCHAR 039A
ENCODING 922
SWIDTH 684 0
DWIDTH 19 0
BBX 16 20 2 0
BITMAP
E00F
E01E
E03C
E078
E0F0
E1E0
E3C0
E780
EF00
FF80
F9C0
F1C0
E0E0
E070
E070
E038
E01C
E01E
E00E
E007
ENDCHAR
STARTCHAR 039B
ENCODING 923
SWIDTH 684 0
DWIDTH 19 0
BBX 17 20 1 0
BITMAP
03C000
03E000
03E000
076000
077000
067000
0E3000
0E3800
0C3800
1C1800
1C1C00
381C00
380C00
380E00
700E00
700700
700700
E00700
E00380
E00380
ENDCHAR
STARTCHAR 039C
ENCODING 924
SWIDTH 828 0
DWIDTH 23 0
BBX 19 20 2 0
BITMAP
F001E0
F001E0
F801E0
F803E0
F80360
FC0360
EC0760
EC0660
EE0660
E60E60
E60C60
E70C60
E31C60
E31860
E39860
E1B860
E1B060
E1F060
E0F060
E0E060
ENDCHAR
STARTCHAR 039D
ENCODING 925
SWIDTH 720 0
DWIDTH 20 0
BBX 16 20 2 0
BITMAP
E007
F007
F807
F807
FC07
EC07
EE07
E707
E307
E387
E1C7
E0C7
E0E7
E077
E077
E03F
E01F
E01F
E00F
E007
ENDCHAR
STARTCHAR 039E
ENCODING 926
SWIDTH 648 0
DWIDTH 18 0
BBX 14 20 2 0
BITMAP
FFFC
FFFC
0000
0000
0000
0000
0000
0000
0000
7FF8
7FF8
0000
0000
0000
0000
0000
0000
0000
FFFC
FFFC
ENDCHAR
STARTCHAR 039F
ENCODING 927
SWIDTH 792 0
DWIDTH 22 0
BBX 20 20 1 0
BITMAP
01F800
0FFE00
1F0F80
3C03C0
3801C0
7000E0
6000E0
E00060
E00070
E00070
E00070
E00070
E00060
6000E0
7000E0
7801C0
3C0380
1F0F80
0FFE00
03F800
ENDCHAR
STARTCHAR 03A0
ENCODING 928
SWIDTH 720 0
DWIDTH 20 0
BBX 16 20 2 0
BITMAP
FFFF
FFFF
E007
E007
E007
E007
E007
E007
E007
E007
E007
E007
E007
E007
E007
E007
E007
E007
E007
E007
ENDCHAR
STARTCHAR 03A1
ENCODING 929
SWIDTH 684 0
DWIDTH 19 0
BBX 14 20 3 0
BITMAP
FFE0
FFF8
C078
C01C
C01C
C01C
C01C
C01C
C03C
FFF8
FFE0
C000
C000
C000
C000
C000
C000
C000
C000
C000
ENDCHAR
STARTCHAR 03A3
ENCODING 931
SWIDTH 612 0
DWIDTH 17 0
BBX 15 20 1 0
BITMAP
FFFE
FFFE
F000
7800
1C00
0E00
0700
0380
01C0
00E0
01E0
03C0
0780
0F00
1E00
3C00
7800
F000
FFFE
FFFE
ENDCHAR
STARTCHAR 03A4
ENCODING 932
SWIDTH 612 0
DWIDTH 17 0
BBX 15 20 1 0
BITMAP
FFFE
FFFE
0380
0380
0380
0380
0380
0380
0380
0380
0380
0380
0380
0380
0380
0380
0380
0380
0380
0380
ENDCHAR
STARTCHAR 03A5
ENCODING 933
SWIDTH 684 0
DWIDTH 19 0
BBX 17 20 1 0
BITMAP
E00380
E00700
700700
380E00
380E00
1C1C00
0E3800
0E3800
077000
076000
03E000
01C000
01C000
01C000
01C000
01C000
01C000
01C000
01C000
01C000
ENDCHAR
STARTCHAR 03A6
ENCODING 934
SWIDTH 792 0
DWIDTH 22 0
BBX 18 20 2 0
BITMAP
00C000
00C000
01E000
0FFE00
3FFF00
38C780
70C380
60C1C0
E0C1C0
E0C1C0
E0C1C0
E0C1C0
60C1C0
70C380
38C780
3FFF00
0FFC00
01E000
00C000
00C000
ENDCHAR
STARTCHAR 03A7
ENCODING 935
SWIDTH 684 0
DWIDTH 19 0
BBX 17 20 1 0
BITMAP
F00700
700700
380E00
3C1C00
1C1C00
0E3800
077000
076000
03E000
01C000
03C000
03E000
077000
0E7800
1C3800
1C1C00
381E00
700E00
700700
E00780
ENDCHAR
STARTCHAR 03A8
ENCODING 936
SWIDTH 828 0
DWIDTH 23 0
BBX 19 20 2 0
BITMAP
C0E060
C0E060
C0E060
C0E060
C0E060
C0E060
C0E060
C0E060
C0E060
E0E060
E0E0E0
E0E0E0
70E1C0
7CE7C0
1FFF80
0FFE00
00E000
00E000
00E000
00E000
ENDCHAR
STARTCHAR 03A9
ENCODING 937
SWIDTH 756 0
DWIDTH 21 0
BBX 19 20 1 0
BITMAP
03F800
0FFE00
1F1F00
380780
7003C0
7001C0
6000C0
E000E0
E000E0
E000E0
E000E0
E000C0
6000C0
7001C0
700180
380380
1C0700
061C00
FF1FE0
FF1FE0
ENDCHAR
STARTCHAR 03AA
ENCODING 938
SWIDTH 288 0
DWIDTH 8 0
BBX 8 25 0 0
BITMAP
E7
E7
E7
00
00
18
18
18
18
18
18
18
18
18
18
18
18
18
18
18
18
18
18
18
18
ENDCHAR
STARTCHAR 03AB
ENCODING 939
SWIDTH 684 0
DWIDTH 19 0
BBX 17 25 1 0
BITMAP
067000
067000
067000
000000
000000
E00380
E00700
700700
380E00
380E00
1C1C00
0E3800
0E3800
077000
076000
03E000
01C000
01C000
01C000
01C000
01C000
01C000
01C000
01C000
01C000
ENDCHAR
STARTCHAR 03AC
ENCODING 940
SWIDTH 576 0
DWIDTH 16 0
BBX 16 22 0 0
BITMAP
0300
0300
0300
0300
0200
0200
0000
0F83
1FE7
38F6
7076
603E
E01C
E01C
E01C
E01C
E03C
6036
7076
38E7
1FC7
0F83
ENDCHAR
STARTCHAR 03AD
ENCODING 941
SWIDTH 432 0
DWIDTH 12 0
BBX 11 22 1 0
BITMAP
0C00
0C00
0C00
0C00
0C00
0400
0000
1F00
7F80
F1C0
E0E0
C060
E000
7E00
7E00
F000
C000
C060
C0E0
F1C0
7F80
3F00
ENDCHAR
STARTCHAR 03AE
ENCODING 942
SWIDTH 540 0
DWIDTH 15 0
BBX 12 28 2 -6
BITMAP
0600
0600
0600
0600
0200
0000
0000
CF80
DFE0
F0E0
E070
E070
C070
C070
C070
C070
C070
C070
C070
C070
C070
C070
0070
0070
0070
0070
0070
0070
ENDCHAR
STARTCHAR 03AF
ENCODING 943
SWIDTH 216 0
DWIDTH 6 0
BBX 2 22 2 0
BITMAP
C0
C0
C0
C0
C0
00
00
C0
C0
C0
C0
C0
C0
C0
C0
C0
C0
C0
C0
C0
C0
C0
ENDCHAR
STARTCHAR 03B0
ENCODING 944
SWIDTH 540 0
DWIDTH 15 0
BBX 11 24 2 0
BITMAP
0E00
0E00
0E00
0400
3580
3180
3180
0000
0000
C060
C060
C060
C060
C060
C060
C060
C060
C060
C060
C060
E060
F1E0
7FC0
1F00
ENDCHAR
STARTCHAR 03B1
ENCODING 945
SWIDTH 576 0
DWIDTH 16 0
BBX 15 15 1 0
BITMAP
0F06
3FCE
71EC
60EC
E07C
E038
C038
C038
C038
E07C
E06C
60EC
79CE
3F86
1F06
ENDCHAR
STARTCHAR 03B2
ENCODING 946
SWIDTH 576 0
DWIDTH 16 0
BBX 13 25 2 -5
BITMAP
1F00
3FC0
70E0
E060
E060
E060
E060
E0E0
E780
E7E0
E070
E030
E030
E038
E038
E030
E070
F0E0
FFE0
EF80
E000
E000
E000
E000
E000
ENDCHAR
STARTCHAR 03B3
ENCODING 947
SWIDTH 504 0
DWIDTH 14 0
BBX 12 21 1 -6
BITMAP
C030
E070
E070
6060
70E0
70C0
30C0
39C0
1980
1D80
1F80
0F00
0F00
0600
0600
0600
0600
0600
0600
0600
0600
ENDCHAR
STARTCHAR 03B4
ENCODING 948
SWIDTH 540 0
DWIDTH 15 0
BBX 13 20 1 0
BITMAP
3FF0
3FF0
3C00
0E00
0700
07C0
1FE0
38F0
7038
6038
E018
E018
E018
E018
E018
6038
7038
3870
3FE0
0F80
ENDCHAR
STARTCHAR 03B5
ENCODING 949
SWIDTH 432 0
DWIDTH 12 0
BBX 11 15 1 0
BITMAP
1F00
7F80
F1C0
E0E0
C060
E000
7E00
7E00
F000
C000
C060
C0E0
F1C0
7F80
3F00
ENDCHAR
STARTCHAR 03B6
ENCODING 950
SWIDTH 432 0
DWIDTH 12 0
BBX 12 26 1 -6
BITMAP
7FE0
7FE0
01C0
0380
0600
0C00
1C00
3800
3000
7000
6000
6000
E000
E000
E000
E000
E000
7000
7F80
1FE0
00F0
0070
0060
0060
0060
00E0
ENDCHAR
STARTCHAR 03B7
ENCODING 951
SWIDTH 540 0
DWIDTH 15 0
BBX 12 21 2 -6
BITMAP
CF80
DFE0
F0E0
E070
E070
C070
C070
C070
C070
C070
C070
C070
C070
C070
C070
0070
0070
0070
0070
0070
0070
ENDCHAR
STARTCHAR 03B8
ENCODING 952
SWIDTH 540 0
DWIDTH 15 0
BBX 13 21 1 0
BITMAP
0FC0
1FE0
3870
7030
6038
6038
6018
E018
E018
FFF8
FFF8
E018
E018
E018
6018
6038
6030
7030
3870
1FE0
0F80
ENDCHAR
STARTCHAR 03B9
ENCODING 953
SWIDTH 216 0
DWIDTH 6 0
BBX 2 15 2 0
BITMAP
C0
C0
C0
C0
C0
C0
C0
C0
C0
C0
C0
C0
C0
C0
C0
ENDCHAR
STARTCHAR 03BA
ENCODING 954
SWIDTH 504 0
DWIDTH 14 0
BBX 12 15 2 0
BITMAP
C0E0
C1C0
C380
C700
CE00
DC00
FE00
F600
E700
C380
C380
C1C0
C0C0
C0E0
C070
ENDCHAR
STARTCHAR 03BB
ENCODING 955
SWIDTH 504 0
DWIDTH 14 0
BBX 12 20 1 0
BITMAP
1800
1800
1C00
0C00
0E00
0E00
0E00
0F00
0F00
1F00
1B80
1980
39C0
31C0
30C0
70E0
60E0
6060
E070
C030
ENDCHAR
STARTCHAR 03BC
ENCODING 956
SWIDTH 576 0
DWIDTH 16 0
BBX 12 20 2 -5
BITMAP
E070
E070
E070
E070
E070
E070
E070
E070
E070
E070
E070
E070
F1F0
FFB0
FE00
E000
E000
E000
E000
E000
ENDCHAR
STARTCHAR 03BD
ENCODING 957
SWIDTH 504 0
DWIDTH 14 0
BBX 13 15 0 0
BITMAP
E018
6038
7038
3030
3070
3870
1860
18E0
1CC0
0CC0
0DC0
0F80
0780
0780
0700
ENDCHAR
STARTCHAR 03BE
ENCODING 958
SWIDTH 432 0
DWIDTH 12 0
BBX 12 27 1 -7
BITMAP
FFE0
FFE0
1800
3000
7000
6000
7000
7000
3C00
1FC0
1FC0
7800
E000
E000
C000
C000
E000
E000
7E00
3FE0
07F0
0070
0070
0070
0060
0060
00E0
ENDCHAR
STARTCHAR 03BF
ENCODING 959
SWIDTH 540 0
DWIDTH 15 0
BBX 13 15 1 0
BITMAP
0FC0
3FE0
38F0
7038
6038
E018
E018
E018
E018
E018
6038
7038
78F0
3FE0
0F80
ENDCHAR
STARTCHAR 03C0
ENCODING 960
SWIDTH 684 0
DWIDTH 19 0
BBX 15 15 2 0
BITMAP
FFFE
FFFE
3018
3018
3018
3018
3018
3018
3018
3018
3018
3018
3018
3018
3018
ENDCHAR
STARTCHAR 03C1
ENCODING 961
SWIDTH 576 0
DWIDTH 16 0
BBX 13 20 2 -5
BITMAP
0F80
3FC0
70E0
E070
E030
C038
C038
C038
C038
C038
E030
E070
F8E0
DFC0
CF80
C000
C000
C000
C000
C000
ENDCHAR
STARTCHAR 03C2
ENCODING 962
SWIDTH 468 0
DWIDTH 13 0
BBX 12 21 1 -6
BITMAP
0F80
3FE0
78F0
6070
E030
C000
C000
C000
C000
E000
E000
7000
3E00
1F80
07E0
00F0
0030
0070
0070
0060
00E0
ENDCHAR
STARTCHAR 03C3
ENCODING 963
SWIDTH 612 0
DWIDTH 17 0
BBX 14 15 2 0
BITMAP
0FFC
3FFC
78E0
6070
E030
C038
C038
C038
C038
C038
E030
E070
78E0
3FE0
1F80
ENDCHAR
STARTCHAR 03C4
ENCODING 964
SWIDTH 396 0
DWIDTH 11 0
BBX 12 15 -1 0
BITMAP
FFF0
FFF0
0700
0700
0700
0700
0700
0700
0700
0700
0700
0700
0700
0700
0700
ENDCHAR
STARTCHAR 03C5
ENCODING 965
SWIDTH 540 0
DWIDTH 15 0
BBX 11 15 2 0
BITMAP
C060
C060
C060
C060
C060
C060
C060
C060
C060
C060
C060
E060
F1E0
7FC0
1F00
ENDCHAR
STARTCHAR 03C6
ENCODING 966
SWIDTH 648 0
DWIDTH 18 0
BBX 16 21 1 -6
BITMAP
09E0
19F8
39BC
718E
E186
E187
E187
C187
C187
E187
E187
618E
718E
3FFC
1FF8
03C0
0180
0180
0180
0180
0180
ENDCHAR
STARTCHAR 03C7
ENCODING 967
SWIDTH 540 0
DWIDTH 15 0
BBX 13 21 1 -6
BITMAP
E030
6070
7060
30E0
38C0
19C0
1D80
0F80
0F00
0700
0700
0F00
0F80
1D80
19C0
38C0
30E0
7060
6070
E030
C038
ENDCHAR
STARTCHAR 03C8
ENCODING 968
SWIDTH 720 0
DWIDTH 20 0
BBX 15 21 3 -6
BITMAP
C30E
C30E
C30E
C30E
C30E
C30E
C30E
C30E
C30E
C30E
C30E
C30C
E31C
7FF8
3FF0
0300
0300
0300
0300
0300
0300
ENDCHAR
STARTCHAR 03C9
ENCODING 969
SWIDTH 792 0
DWIDTH 22 0
BBX 17 15 2 0
BITMAP
1C0E00
380600
300700
70C300
60C380
60C180
60C180
E0C180
E0C180
60C180
60C180
71C380
71E700
3F7F00
1E3C00
ENDCHAR
STARTCHAR 03CA
ENCODING 970
SWIDTH 216 0
DWIDTH 6 0
BBX 8 20 -1 0
BITMAP
E7
E7
E7
00
00
18
18
18
18
18
18
18
18
18
18
18
18
18
18
18
ENDCHAR
STARTCHAR 03CB
ENCODING 971
SWIDTH 540 0
DWIDTH 15 0
BBX 11 20 2 0
BITMAP
3B80
3B80
3B80
0000
0000
C060
C060
C060
C060
C060
C060
C060
C060
C060
C060
C060
E060
F1E0
7FC0
1F00
ENDCHAR
STARTCHAR 03CC
ENCODING 972
SWIDTH 540 0
DWIDTH 15 0
BBX 13 22 1 0
BITMAP
0300
0300
0300
0300
0200
0200
0000
0FC0
3FE0
38F0
7038
6038
E018
E018
E018
E018
E018
6038
7038
78F0
3FE0
0F80
ENDCHAR
STARTCHAR 03CD
ENCODING 973
SWIDTH 540 0
DWIDTH 15 0
BBX 11 22 2 0
BITMAP
0E00
0E00
0E00
0400
0400
0000
0000
C060
C060
C060
C060
C060
C060
C060
C060
C060
C060
C060
E060
F1E0
7FC0
1F00
ENDCHAR
STARTCHAR 03CE
ENCODING 974
SWIDTH 792 0
DWIDTH 22 0
BBX 17 22 2 0
BITMAP
00C000
00C000
00C000
00C000
008000
000000
000000
1C0E00
380600
300700
70C300
60C380
60C180
60C180
E0C180
E0C180
60C180
60C180
71C380
71E700
3F7F00
1E3C00
ENDCHAR
STARTCHAR 03D1
ENCODING 977
SWIDTH 540 0
DWIDTH 15 0
BBX 15 21 0 0
BITMAP
07C0
1FE0
1870
3838
3018
3018
3818
1C18
0E1C
07FE
01FE
001C
E01C
E018
7018
7018
3018
3038
3C70
1FE0
07C0
ENDCHAR
STARTCHAR 03D5
ENCODING 981
SWIDTH 576 0
DWIDTH 16 0
BBX 15 24 0 -6
BITMAP
0180
0180
0180
0FE0
1FF8
39BC
718C
618E
618E
E186
E186
E186
E186
618E
718E
719C
3DF8
1FF0
03C0
0180
0180
0180
0180
0180
ENDCHAR
STARTCHAR 03D6
ENCODING 982
SWIDTH 792 0
DWIDTH 22 0
BBX 17 15 2 0
BITMAP
FFE000
FFFC00
381E00
700700
600380
600380
E0C180
E0C180
E0C180
E0C180
E1C180
61C380
73E700
3F7E00
1E3C00
ENDCHAR
STARTCHAR 0400
ENCODING 1024
SWIDTH 684 0
DWIDTH 19 0
BBX 14 26 3 0
BITMAP
1C00
0E00
0700
0300
0000
0000
FFFC
FFFC
C000
C000
C000
C000
C000
C000
C000
FFF8
FFF8
C000
C000
C000
C000
C000
C000
C000
FFFC
FFFC
ENDCHAR
STARTCHAR 0401
ENCODING 1025
SWIDTH 684 0
DWIDTH 19 0
BBX 15 25 2 0
BITMAP
0EE0
0EE0
0EE0
0000
0000
FFFC
FFFC
E000
E000
E000
E000
E000
E000
E000
FFFC
FFFC
E000
E000
E000
E000
E000
E000
E000
FFFE
FFFE
ENDCHAR
STARTCHAR 0402
ENCODING 1026
SWIDTH 864 0
DWIDTH 24 0
BBX 21 20 1 0
BITMAP
FFF800
FFF800
038000
038000
038000
038000
038000
03BFC0
03FFE0
03E070
038030
038038
038038
038038
038038
038038
038030
038070
038FF0
038FC0
ENDCHAR
STARTCHAR 0403
ENCODING 1027
SWIDTH 540 0
DWIDTH 15 0
BBX 13 26 2 0
BITMAP
0380
0700
0600
0C00
0000
0000
FFF8
FFF8
E000
E000
E000
E000
E000
E000
E000
E000
E000
E000
E000
E000
E000
E000
E000
E000
E000
E000
ENDCHAR
STARTCHAR 0404
ENCODING 1028
SWIDTH 720 0
DWIDTH 20 0
BBX 19 20 0 0
BITMAP
01FC00
07FF00
1F0F80
1C03C0
3801E0
7000E0
700000
600000
600000
FFF000
FFF000
E00000
600000
700060
7000E0
3800E0
3C03C0
1F8F80
07FF00
01F800
ENDCHAR
STARTCHAR 0405
ENCODING 1029
SWIDTH 684 0
DWIDTH 19 0
BBX 16 20 1 0
BITMAP
07F0
1FF8
3C3E
700E
7006
7007
7000
7800
3F00
1FF0
01FC
001E
0007
E007
E003
6007
7007
3E1E
1FFC
07F0
ENDCHAR
STARTCHAR 0406
ENCODING 1030
SWIDTH 288 0
DWIDTH 8 0
BBX 2 20 3 0
BITMAP
C0
C0
C0
C0
C0
C0
C0
C0
C0
C0
C0
C0
C0
C0
C0
C0
C0
C0
C0
C0
ENDCHAR
STARTCHAR 0407
ENCODING 1031
SWIDTH 288 0
DWIDTH 8 0
BBX 8 25 0 0
BITMAP
E7
E7
E7
00
00
18
18
18
18
18
18
18
18
18
18
18
18
18
18
18
18
18
18
18
18
ENDCHAR
STARTCHAR 0408
ENCODING 1032
SWIDTH 504 0
DWIDTH 14 0
BBX 12 20 0 0
BITMAP
0070
0070
0070
0070
0070
0070
0070
0070
0070
0070
0070
0070
0070
E070
E070
E070
7060
78E0
3FC0
1F80
ENDCHAR
STARTCHAR 0409
ENCODING 1033
SWIDTH 1044 0
DWIDTH 29 0
BBX 28 20 1 0
BITMAP
1FFF0000
1FFF0000
1C070000
1C070000
1C070000
1C070000
1C070000
1C070000
1C070000
1C07FF80
1C07FFC0
1C0701E0
1C070060
1C070070
1C070070
18070070
380700E0
700701E0
F007FFC0
C007FF00
ENDCHAR
STARTCHAR 040A
ENCODING 1034
SWIDTH 1008 0
DWIDTH 28 0
BBX 25 20 2 0
BITMAP
C0380000
C0380000
C0380000
C0380000
C0380000
C0380000
C0380000
C0380000
C0380000
FFFFFE00
FFFFFF00
C0380780
C0380380
C0380180
C0380180
C0380180
C0380380
C0380F80
C03FFF00
C03FFC00
ENDCHAR
STARTCHAR 040B
ENCODING 1035
SWIDTH 864 0
DWIDTH 24 0
BBX 21 20 0 0
BITMAP
FFFF00
FFFF00
01C000
01C000
01C000
01C000
01C000
01DFE0
01FFF0
01F070
01C038
01C038
01C038
01C038
01C038
01C038
01C038
01C038
01C038
01C038
ENDCHAR
STARTCHAR 040C
ENCODING 1036
SWIDTH 576 0
DWIDTH 16 0
BBX 13 26 2 0
BITMAP
03C0
0300
0600
0400
0000
0000
C070
C0E0
C1C0
C1C0
C380
C380
C700
CE00
FE00
FC00
CE00
C700
C300
C380
C1C0
C1C0
C0E0
C070
C070
C038
ENDCHAR
STARTCHAR 040D
ENCODING 1037
SWIDTH 720 0
DWIDTH 20 0
BBX 16 26 2 0
BITMAP
0700
0380
0180
00C0
0000
0000
E007
E007
E007
E00F
E01F
E03F
E07F
E077
E0E7
E1C7
E387
E707
EE07
FC07
FC07
F807
F007
E007
E007
E007
ENDCHAR
STARTCHAR 040E
ENCODING 1038
SWIDTH 648 0
DWIDTH 18 0
BBX 16 26 1 0
BITMAP
0830
0C30
0FE0
07C0
0000
0000
E007
E007
700E
700E
380C
381C
181C
1C38
1C38
0E70
0E70
0760
07E0
03C0
03C0
01C0
0180
0780
1F00
1E00
ENDCHAR
STARTCHAR 040F
ENCODING 1039
SWIDTH 720 0
DWIDTH 20 0
BBX 16 25 2 -5
BITMAP
E007
E007
E007
E007
E007
E007
E007
E007
E007
E007
E007
E007
E007
E007
E007
E007
E007
E007
FFFF
FFFF
0180
0180
0180
0180
0180
ENDCHAR
STARTCHAR 0410
ENCODING 1040
SWIDTH 684 0
DWIDTH 19 0
BBX 17 20 1 0
BITMAP
03C000
03E000
03E000
076000
077000
067000
0E3000
0E3800
0C3800
1C1800
181C00
381C00
3FFC00
3FFE00
700E00
700700
600700
E00700
E00380
C00380
ENDCHAR
STARTCHAR 0411
ENCODING 1041
SWIDTH 648 0
DWIDTH 18 0
BBX 15 20 2 0
BITMAP
FFF8
FFF8
E000
E000
E000
E000
E000
E000
E000
FFF8
FFFC
E01E
E00E
E006
E006
E00E
E00E
E03C
FFFC
FFF0
ENDCHAR
STARTCHAR 0412
ENCODING 1042
SWIDTH 684 0
DWIDTH 19 0
BBX 15 20 2 0
BITMAP
FFE0
FFF8
E03C
E01C
E00C
E00C
E00C
E01C
E038
FFF0
FFFC
E01E
E00E
E006
E006
E006
E00E
E01C
FFFC
FFF0
ENDCHAR
STARTCHAR 0413
ENCODING 1043
SWIDTH 540 0
DWIDTH 15 0
BBX 13 20 2 0
BITMAP
FFF8
FFF8
E000
E000
E000
E000
E000
E000
E000
E000
E000
E000
E000
E000
E000
E000
E000
E000
E000
E000
ENDCHAR
STARTCHAR 0414
ENCODING 1044
SWIDTH 684 0
DWIDTH 19 0
BBX 18 25 0 -5
BITMAP
07FF80
07FF80
070380
070380
070380
070380
070380
070380
070380
070380
070380
070380
070380
060380
060380
0E0380
1C0380
780380
FFFFC0
FFFFC0
E000C0
E000C0
E000C0
E000C0
E000C0
ENDCHAR
STARTCHAR 0415
ENCODING 1045
SWIDTH 684 0
DWIDTH 19 0
BBX 15 20 2 0
BITMAP
FFFC
FFFC
E000
E000
E000
E000
E000
E000
E000
FFFC
FFFC
E000
E000
E000
E000
E000
E000
E000
FFFE
FFFE
ENDCHAR
STARTCHAR 0416
ENCODING 1046
SWIDTH 936 0
DWIDTH 26 0
BBX 26 20 0 0
BITMAP
701C0700
381C0700
381C0E00
1C1C0E00
0E1C1C00
0E1C3800
071C3800
031C7000
03FFE000
03FFE000
039C7000
071C3000
061C3800
0E1C1C00
1C1C0C00
181C0E00
381C0700
701C0300
701C0380
E01C01C0
ENDCHAR
STARTCHAR 0417
ENCODING 1047
SWIDTH 612 0
DWIDTH 17 0
BBX 13 20 2 0
BITMAP
0F80
3FE0
78F0
6070
E030
E038
0030
0070
03E0
07C0
07F0
0078
0038
C038
C038
C038
E038
78F0
3FE0
1F80
ENDCHAR
STARTCHAR 0418
ENCODING 1048
SWIDTH 720 0
DWIDTH 20 0
BBX 16 20 2 0
BITMAP
E007
E007
E007
E00F
E01F
E03F
E07F
E077
E0E7
E1C7
E387
E707
EE07
FC07
FC07
F807
F007
E007
E007
E007
ENDCHAR
STARTCHAR 0419
ENCODING 1049
SWIDTH 720 0
DWIDTH 20 0
BBX 16 26 2 0
BITMAP
0830
0C30
0FE0
03C0
0000
0000
E007
E007
E007
E00F
E01F
E03F
E07F
E077
E0E7
E1C7
E387
E707
EE07
FC07
FC07
F807
F007
E007
E007
E007
ENDCHAR
STARTCHAR 041A
ENCODING 1050
SWIDTH 576 0
DWIDTH 16 0
BBX 13 20 2 0
BITMAP
C070
C0E0
C0C0
C1C0
C380
C380
C700
CE00
FE00
FE00
CE00
C700
C300
C380
C1C0
C1C0
C0E0
C070
C070
C038
ENDCHAR
STARTCHAR 041B
ENCODING 1051
SWIDTH 648 0
DWIDTH 18 0
BBX 17 20 0 0
BITMAP
1FFF80
1FFF80
1C0380
1C0380
1C0380
1C0380
1C0380
1C0380
1C0380
1C0380
1C0380
1C0380
1C0380
1C0380
1C0380
1C0380
380380
780380
F00380
E00380
ENDCHAR
STARTCHAR 041C
ENCODING 1052
SWIDTH 828 0
DWIDTH 23 0
BBX 19 20 2 0
BITMAP
F001E0
F001E0
F801E0
F803E0
F80360
FC0360
EC0760
EC0660
EE0660
E60E60
E60C60
E70C60
E31C60
E31860
E39860
E1B860
E1B060
E1F060
E0E060
E0E060
ENDCHAR
STARTCHAR 041D
ENCODING 1053
SWIDTH 720 0
DWIDTH 20 0
BBX 16 20 2 0
BITMAP
E007
E007
E007
E007
E007
E007
E007
E007
E007
FFFF
FFFF
E007
E007
E007
E007
E007
E007
E007
E007
E007
ENDCHAR
STARTCHAR 041E
ENCODING 1054
SWIDTH 792 0
DWIDTH 22 0
BBX 20 20 1 0
BITMAP
01F800
0FFE00
1F0F80
3C03C0
7001C0
7000E0
6000E0
E00060
E00070
E00070
E00070
E00070
E00060
6000E0
7000E0
7801C0
3C0380
1F0F80
0FFE00
03F800
ENDCHAR
STARTCHAR 041F
ENCODING 1055
SWIDTH 720 0
DWIDTH 20 0
BBX 16 20 2 0
BITMAP
FFFF
FFFF
E007
E007
E007
E007
E007
E007
E007
E007
E007
E007
E007
E007
E007
E007
E007
E007
E007
E007
ENDCHAR
STARTCHAR 0420
ENCODING 1056
SWIDTH 684 0
DWIDTH 19 0
BBX 14 20 3 0
BITMAP
FFE0
FFF8
C078
C01C
C01C
C01C
C01C
C01C
C03C
FFF8
FFF0
C000
C000
C000
C000
C000
C000
C000
C000
C000
ENDCHAR
STARTCHAR 0421
ENCODING 1057
SWIDTH 720 0
DWIDTH 20 0
BBX 18 20 1 0
BITMAP
03F800
0FFE00
1F1F00
380380
300380
7001C0
600000
E00000
E00000
E00000
E00000
E00000
E00000
6001C0
7001C0
780380
3C0780
1F1F00
0FFE00
03F800
ENDCHAR
STARTCHAR 0422
ENCODING 1058
SWIDTH 612 0
DWIDTH 17 0
BBX 15 20 1 0
BITMAP
FFFE
FFFE
0380
0380
0380
0380
0380
0380
0380
0380
0380
0380
0380
0380
0380
0380
0380
0380
0380
0380
ENDCHAR
STARTCHAR 0423
ENCODING 1059
SWIDTH 648 0
DWIDTH 18 0
BBX 16 20 1 0
BITMAP
E007
E007
700E
700E
380C
381C
181C
1C38
1C38
0E70
0E70
0760
07E0
03C0
03C0
01C0
0180
0780
1F00
1E00
ENDCHAR
STARTCHAR 0424
ENCODING 1060
SWIDTH 756 0
DWIDTH 21 0
BBX 19 20 1 0
BITMAP
00E000
00E000
00E000
0FFF00
3FFF80
78E3C0
70E1E0
E0E0E0
E0E060
C0E060
C0E060
E0E060
E0E0E0
70E1E0
78E3C0
3FFF80
0FFE00
00E000
00E000
00E000
ENDCHAR
STARTCHAR 0425
ENCODING 1061
SWIDTH 684 0
DWIDTH 19 0
BBX 17 20 1 0
BITMAP
E00700
700700
380E00
381C00
1C1800
0E3800
0E7000
076000
03E000
01C000
03C000
07E000
077000
0E7000
1C3800
1C1C00
381E00
700E00
700700
E00780
ENDCHAR
STARTCHAR 0426
ENCODING 1062
SWIDTH 756 0
DWIDTH 21 0
BBX 17 25 2 -5
BITMAP
E00700
E00700
E00700
E00700
E00700
E00700
E00700
E00700
E00700
E00700
E00700
E00700
E00700
E00700
E00700
E00700
E00700
E00700
FFFF80
FFFF80
000180
000180
000180
000180
000180
ENDCHAR
STARTCHAR 0427
ENCODING 1063
SWIDTH 684 0
DWIDTH 19 0
BBX 16 20 1 0
BITMAP
E007
E007
E007
E007
E007
E007
E007
E007
E007
E007
780F
3FFF
1FFF
0007
0007
0007
0007
0007
0007
0007
ENDCHAR
STARTCHAR 0428
ENCODING 1064
SWIDTH 900 0
DWIDTH 25 0
BBX 23 20 1 0
BITMAP
E0380E
E0380E
E0380E
E0380E
E0380E
E0380E
E0380E
E0380E
E0380E
E0380E
E0380E
E0380E
E0380E
E0380E
E0380E
E0380E
E0380E
E0380E
FFFFFE
FFFFFE
ENDCHAR
STARTCHAR 0429
ENCODING 1065
SWIDTH 936 0
DWIDTH 26 0
BBX 25 25 1 -5
BITMAP
E0180600
E0180600
E0180600
E0180600
E0180600
E0180600
E0180600
E0180600
E0180600
E0180600
E0180600
E0180600
E0180600
E0180600
E0180600
E0180600
E0180600
E0180600
FFFFFF80
FFFFFF80
00000380
00000380
00000380
00000380
00000380
ENDCHAR
STARTCHAR 042A
ENCODING 1066
SWIDTH 792 0
DWIDTH 22 0
BBX 22 20 -1 0
BITMAP
FFC000
FFC000
00C000
00C000
00C000
00C000
00C000
00C000
00C000
00FFF0
00FFF8
00C03C
00C01C
00C01C
00C00C
00C01C
00C01C
00C078
00FFF8
00FFE0
ENDCHAR
STARTCHAR 042B
ENCODING 1067
SWIDTH 900 0
DWIDTH 25 0
BBX 20 20 2 0
BITMAP
E00030
E00030
E00030
E00030
E00030
E00030
E00030
E00030
E00030
FFF830
FFFC30
E01E30
E00E30
E00630
E00630
E00630
E00E30
E01E30
FFFC30
FFF030
ENDCHAR
STARTCHAR 042C
ENCODING 1068
SWIDTH 648 0
DWIDTH 18 0
BBX 15 20 2 0
BITMAP
E000
E000
E000
E000
E000
E000
E000
E000
E000
FFF8
FFFC
E01E
E00E
E006
E006
E006
E00E
E03C
FFFC
FFF0
ENDCHAR
STARTCHAR 042D
ENCODING 1069
SWIDTH 720 0
DWIDTH 20 0
BBX 19 20 1 0
BITMAP
03F000
1FFC00
3E1F00
780780
E00380
E001C0
0001C0
0000C0
0000E0
01FFE0
01FFE0
0000E0
0000C0
C001C0
E001C0
E00380
780780
3E3F00
1FFC00
07F000
ENDCHAR
STARTCHAR 042E
ENCODING 1070
SWIDTH 1008 0
DWIDTH 28 0
BBX 25 20 2 0
BITMAP
E007E000
E01FF800
E03C3C00
E0700E00
E0E00700
E0C00700
E1C00300
E1C00380
E1800380
FF800380
FF800380
E1800380
E1C00380
E1C00300
E0C00700
E0E00700
E0700E00
E03C3C00
E01FF800
E007E000
ENDCHAR
STARTCHAR 042F
ENCODING 1071
SWIDTH 720 0
DWIDTH 20 0
BBX 16 20 2 0
BITMAP
1FFF
3FFF
7807
E007
E007
E007
E007
6007
7007
3FFF
3FFF
7807
7007
6007
6007
6007
6007
6007
E007
E007
ENDCHAR
STARTCHAR 0430
ENCODING 1072
SWIDTH 540 0
DWIDTH 15 0
BBX 14 15 1 0
BITMAP
0FC0
3FE0
78F0
6030
6030
0070
07F0
3FF0
7830
E030
E030
E070
F0F0
7FBC
3E3C
ENDCHAR
STARTCHAR 0431
ENCODING 1073
SWIDTH 576 0
DWIDTH 16 0
BBX 14 22 1 0
BITMAP
0060
0060
00E0
03E0
1FC0
3E00
3000
67C0
7FE0
7870
7038
E018
E018
E01C
E01C
E01C
6018
6018
7038
3870
1FE0
0FC0
ENDCHAR
STARTCHAR 0432
ENCODING 1074
SWIDTH 540 0
DWIDTH 15 0
BBX 12 15 2 0
BITMAP
FF80
FFE0
C0E0
C060
C060
C0E0
FFC0
FFE0
C070
C070
C030
C070
C070
FFE0
FFC0
ENDCHAR
STARTCHAR 0433
ENCODING 1075
SWIDTH 360 0
DWIDTH 10 0
BBX 8 15 2 0
BITMAP
FF
FF
C0
C0
C0
C0
C0
C0
C0
C0
C0
C0
C0
C0
C0
ENDCHAR
STARTCHAR 0434
ENCODING 1076
SWIDTH 576 0
DWIDTH 16 0
BBX 15 18 0 -3
BITMAP
07FC
07FC
060C
060C
060C
0E0C
0E0C
0E0C
0C0C
1C0C
1C0C
380C
700C
FFFE
FFFE
E006
E006
E006
ENDCHAR
STARTCHAR 0435
ENCODING 1077
SWIDTH 540 0
DWIDTH 15 0
BBX 13 15 1 0
BITMAP
0FC0
1FE0
3870
7038
6038
E018
FFF8
FFF8
E000
E000
6018
7038
3870
3FE0
0F80
ENDCHAR
STARTCHAR 0436
ENCODING 1078
SWIDTH 684 0
DWIDTH 19 0
BBX 19 15 0 0
BITMAP
70C1C0
70C380
38C380
38C700
1CC700
1CCE00
0FFE00
0FFE00
1CCE00
1CC700
38C300
30C380
70C1C0
E0C1C0
E0C0E0
ENDCHAR
STARTCHAR 0437
ENCODING 1079
SWIDTH 468 0
DWIDTH 13 0
BBX 10 15 1 0
BITMAP
1F00
3F80
71C0
60C0
E0C0
01C0
0F80
0F80
01C0
00C0
E0C0
E0C0
71C0
7F80
1F00
ENDCHAR
STARTCHAR 0438
ENCODING 1080
SWIDTH 576 0
DWIDTH 16 0
BBX 11 15 2 0
BITMAP
E060
E060
E0E0
E1E0
E1E0
E360
E760
EE60
EC60
FC60
F860
F060
E060
E060
E060
ENDCHAR
STARTCHAR 0439
ENCODING 1081
SWIDTH 576 0
DWIDTH 16 0
BBX 11 20 2 0
BITMAP
20C0
3F80
1F00
0000
0000
E060
E060
E0E0
E1E0
E1E0
E360
E760
EE60
EC60
FC60
F860
F060
E060
E060
E060
ENDCHAR
STARTCHAR 043A
ENCODING 1082
SWIDTH 432 0
DWIDTH 12 0
BBX 12 15 1 0
BITMAP
C0E0
C1C0
C1C0
C380
C380
C700
FF00
FF00
C300
C380
C180
C1C0
C0E0
C0E0
C070
ENDCHAR
STARTCHAR 043B
ENCODING 1083
SWIDTH 576 0
DWIDTH 16 0
BBX 13 15 1 0
BITMAP
3FF8
3FF8
3018
3018
3018
3018
3018
3018
3018
3018
3018
3018
7018
E018
C018
ENDCHAR
STARTCHAR 043C
ENCODING 1084
SWIDTH 684 0
DWIDTH 19 0
BBX 17 15 1 0
BITMAP
F00780
F00780
F80D80
F80D80
F80D80
EC1980
EC1980
E63980
E63180
E63180
E36180
E36180
E36180
E1C180
E1C180
ENDCHAR
STARTCHAR 043D
ENCODING 1085
SWIDTH 540 0
DWIDTH 15 0
BBX 11 15 2 0
BITMAP
C060
C060
C060
C060
C060
C060
FFE0
FFE0
C060
C060
C060
C060
C060
C060
C060
ENDCHAR
STARTCHAR 043E
ENCODING 1086
SWIDTH 540 0
DWIDTH 15 0
BBX 13 15 1 0
BITMAP
0FC0
3FE0
38F0
7038
6038
E018
E018
E018
E018
E018
6038
7038
78F0
3FE0
0F80
ENDCHAR
STARTCHAR 043F
ENCODING 1087
SWIDTH 540 0
DWIDTH 15 0
BBX 11 15 2 0
BITMAP
FFE0
FFE0
C060
C060
C060
C060
C060
C060
C060
C060
C060
C060
C060
C060
C060
ENDCHAR
STARTCHAR 0440
ENCODING 1088
SWIDTH 540 0
DWIDTH 15 0
BBX 13 20 2 -5
BITMAP
CF80
DFE0
F1E0
E070
E030
C038
C038
C038
C038
C038
E030
E070
F8E0
FFC0
CF80
C000
C000
C000
C000
C000
ENDCHAR
STARTCHAR 0441
ENCODING 1089
SWIDTH 504 0
DWIDTH 14 0
BBX 12 15 1 0
BITMAP
0F80
3FE0
78E0
6070
E030
E000
C000
C000
C000
E000
E030
6070
78E0
3FC0
0F80
ENDCHAR
STARTCHAR 0442
ENCODING 1090
SWIDTH 468 0
DWIDTH 13 0
BBX 11 15 1 0
BITMAP
FFE0
FFE0
0E00
0E00
0E00
0E00
0E00
0E00
0E00
0E00
0E00
0E00
0E00
0E00
0E00
ENDCHAR
STARTCHAR 0443
ENCODING 1091
SWIDTH 504 0
DWIDTH 14 0
BBX 12 21 1 -6
BITMAP
C030
E070
E060
6060
70E0
70C0
30C0
31C0
3980
1980
1B80
1F00
0F00
0E00
0E00
0E00
0C00
0C00
1C00
7800
7000
ENDCHAR
STARTCHAR 0444
ENCODING 1092
SWIDTH 828 0
DWIDTH 23 0
BBX 19 24 2 -6
BITMAP
00E000
00E000
00E000
07FC00
1FFF00
3CE780
70E1C0
60E0C0
E0E0E0
E0E0E0
C0E060
C0E060
E0E0E0
E0E0E0
70E1C0
78E380
3FFF80
0FFE00
01F000
00E000
00E000
00E000
00E000
00E000
ENDCHAR
STARTCHAR 0445
ENCODING 1093
SWIDTH 504 0
DWIDTH 14 0
BBX 12 15 1 0
BITMAP
E070
6060
70C0
39C0
1980
1F00
0F00
0600
0F00
1F80
1980
39C0
70E0
6060
E070
ENDCHAR
STARTCHAR 0446
ENCODING 1094
SWIDTH 576 0
DWIDTH 16 0
BBX 12 19 2 -4
BITMAP
E060
E060
E060
E060
E060
E060
E060
E060
E060
E060
E060
E060
E060
FFF0
FFF0
0030
0030
0030
0030
ENDCHAR
STARTCHAR 0447
ENCODING 1095
SWIDTH 504 0
DWIDTH 14 0
BBX 10 15 2 0
BITMAP
C0C0
C0C0
C0C0
C0C0
C0C0
C0C0
C0C0
E0C0
FFC0
7FC0
00C0
00C0
00C0
00C0
00C0
ENDCHAR
STARTCHAR 0448
ENCODING 1096
SWIDTH 792 0
DWIDTH 22 0
BBX 18 15 2 0
BITMAP
C0C0C0
C0C0C0
C0C0C0
C0C0C0
C0C0C0
C0C0C0
C0C0C0
C0C0C0
C0C0C0
C0C0C0
C0C0C0
C0C0C0
C0C0C0
FFFFC0
FFFFC0
ENDCHAR
STARTCHAR 0449
ENCODING 1097
SWIDTH 828 0
DWIDTH 23 0
BBX 20 19 2 -4
BITMAP
C0C0E0
C0C0E0
C0C0E0
C0C0E0
C0C0E0
C0C0E0
C0C0E0
C0C0E0
C0C0E0
C0C0E0
C0C0E0
C0C0E0
C0C0E0
FFFFF0
FFFFF0
000070
000070
000070
000070
ENDCHAR
STARTCHAR 044A
ENCODING 1098
SWIDTH 612 0
DWIDTH 17 0
BBX 18 15 -1 0
BITMAP
FF8000
FF8000
038000
038000
038000
038000
03FF00
03FF80
0383C0
0381C0
0381C0
0381C0
0381C0
03FF80
03FF00
ENDCHAR
STARTCHAR 044B
ENCODING 1099
SWIDTH 720 0
DWIDTH 20 0
BBX 16 15 2 0
BITMAP
E007
E007
E007
E007
E007
E007
FFC7
FFE7
E077
E077
E077
E077
E077
FFE7
FFC7
ENDCHAR
STARTCHAR 044C
ENCODING 1100
SWIDTH 504 0
DWIDTH 14 0
BBX 12 15 2 0
BITMAP
C000
C000
C000
C000
C000
C000
FF80
FFE0
C0E0
C060
C070
C060
C0E0
FFE0
FF80
ENDCHAR
STARTCHAR 044D
ENCODING 1101
SWIDTH 504 0
DWIDTH 14 0
BBX 13 15 1 0
BITMAP
1F80
3FC0
70E0
E070
C030
0030
07F8
07F8
0038
C030
C030
E070
70E0
3FC0
1F80
ENDCHAR
STARTCHAR 044E
ENCODING 1102
SWIDTH 756 0
DWIDTH 21 0
BBX 19 15 1 0
BITMAP
E03E00
E0FF80
E1E3C0
E1C0C0
E380E0
E38060
FF8060
FF0060
E38060
E38060
E380E0
E1C0C0
E1E3C0
E0FF80
E03E00
ENDCHAR
STARTCHAR 044F
ENCODING 1103
SWIDTH 540 0
DWIDTH 15 0
BBX 12 15 1 0
BITMAP
1FF0
7FF0
7030
E030
E030
E030
7030
7FF0
1FF0
3030
7030
7030
7030
7030
6030
ENDCHAR
STARTCHAR 0450
ENCODING 1104
SWIDTH 540 0
DWIDTH 15 0
BBX 13 20 1 0
BITMAP
1C00
0600
0300
0180
0000
0F80
1FE0
38F0
7038
6038
E018
FFF8
FFF8
E000
E000
6038
7030
7870
3FE0
0F80
ENDCHAR
STARTCHAR 0451
ENCODING 1105
SWIDTH 540 0
DWIDTH 15 0
BBX 13 20 1 0
BITMAP
1CC0
1CC0
1CC0
0000
0000
0FC0
1FE0
3870
7038
6018
E018
FFF8
FFF8
E000
E000
6018
7038
3870
3FE0
0F80
ENDCHAR
STARTCHAR 0452
ENCODING 1106
SWIDTH 540 0
DWIDTH 15 0
BBX 15 24 -1 -4
BITMAP
1800
1800
FF80
FF80
1800
18F0
19FC
1B1C
1E0E
1C0E
180E
180E
180E
180E
180E
180E
180E
180E
180E
180E
000C
001C
03F8
03F0
ENDCHAR
STARTCHAR 0453
ENCODING 1107
SWIDTH 360 0
DWIDTH 10 0
BBX 9 20 2 0
BITMAP
0E00
1C00
1800
2000
0000
FF80
FF80
C000
C000
C000
C000
C000
C000
C000
C000
C000
C000
C000
C000
C000
ENDCHAR
STARTCHAR 0454
ENCODING 1108
SWIDTH 504 0
DWIDTH 14 0
BBX 12 15 1 0
BITMAP
0F80
3FE0
70E0
E070
E030
C000
FE00
FE00
C000
C030
E030
E070
78E0
3FE0
0F80
ENDCHAR
STARTCHAR 0455
ENCODING 1109
SWIDTH 504 0
DWIDTH 14 0
BBX 12 15 1 0
BITMAP
1F80
3FC0
71E0
E060
E000
F000
7E00
3FC0
03E0
0070
C070
E070
F0E0
7FC0
1F80
ENDCHAR
STARTCHAR 0456
ENCODING 1110
SWIDTH 216 0
DWIDTH 6 0
BBX 2 20 2 0
BITMAP
C0
C0
C0
00
00
C0
C0
C0
C0
C0
C0
C0
C0
C0
C0
C0
C0
C0
C0
C0
ENDCHAR
STARTCHAR 0457
ENCODING 1111
SWIDTH 288 0
DWIDTH 8 0
BBX 8 20 0 0
BITMAP
E7
E7
E7
00
00
18
18
18
18
18
18
18
18
18
18
18
18
18
18
18
ENDCHAR
STARTCHAR 0458
ENCODING 1112
SWIDTH 216 0
DWIDTH 6 0
BBX 5 26 -1 -6
BITMAP
18
18
18
00
00
18
18
18
18
18
18
18
18
18
18
18
18
18
18
18
18
18
18
F8
F8
C0
ENDCHAR
STARTCHAR 0459
ENCODING 1113
SWIDTH 900 0
DWIDTH 25 0
BBX 23 15 1 0
BITMAP
3FF800
3FF800
301800
301800
301800
301800
301FF0
301FFC
30181C
30180C
30180E
30180C
70181C
E01FFC
C01FF0
ENDCHAR
STARTCHAR 045A
ENCODING 1114
SWIDTH 828 0
DWIDTH 23 0
BBX 21 15 1 0
BITMAP
E07000
E07000
E07000
E07000
E07000
E07000
FFFFE0
FFFFF0
E07038
E07018
E07018
E07018
E07038
E07FF0
E07FE0
ENDCHAR
STARTCHAR 045B
ENCODING 1115
SWIDTH 540 0
DWIDTH 15 0
BBX 15 20 -1 0
BITMAP
1800
1800
FF80
FF80
1800
18F0
19FC
1B1C
1E0E
1C0E
180E
180E
180E
180E
180E
180E
180E
180E
180E
180E
ENDCHAR
STARTCHAR 045C
ENCODING 1116
SWIDTH 432 0
DWIDTH 12 0
BBX 12 20 1 0
BITMAP
0700
0600
0C00
0000
0000
C0E0
C1C0
C1C0
C380
C380
C700
FF00
FF00
C300
C380
C180
C1C0
C0E0
C0E0
C070
ENDCHAR
STARTCHAR 045D
ENCODING 1117
SWIDTH 576 0
DWIDTH 16 0
BBX 11 20 2 0
BITMAP
3800
1C00
0C00
0200
0000
E060
E060
E0E0
E1E0
E1E0
E360
E760
EE60
EC60
FC60
F860
F060
E060
E060
E060
ENDCHAR
STARTCHAR 045E
ENCODING 1118
SWIDTH 504 0
DWIDTH 14 0
BBX 12 26 1 -6
BITMAP
30C0
3FC0
0F00
0000
0000
C030
E070
E060
6060
70E0
70C0
30C0
31C0
3980
1980
1B80
1F00
0F00
0E00
0E00
0E00
0C00
0C00
1C00
7800
7000
ENDCHAR
STARTCHAR 045F
ENCODING 1119
SWIDTH 540 0
DWIDTH 15 0
BBX 11 19 2 -4
BITMAP
E060
E060
E060
E060
E060
E060
E060
E060
E060
E060
E060
E060
E060
FFE0
FFE0
0600
0600
0600
0600
ENDCHAR
STARTCHAR 0462
ENCODING 1122
SWIDTH 792 0
DWIDTH 22 0
BBX 20 20 0 0
BITMAP
070000
070000
070000
FFF800
FFF800
070000
070000
070000
070000
07FFC0
07FFE0
0700F0
070070
070030
070030
070030
070070
0701F0
07FFE0
07FF80
ENDCHAR
STARTCHAR 0463
ENCODING 1123
SWIDTH 612 0
DWIDTH 17 0
BBX 13 19 2 0
BITMAP
7000
7000
7000
7000
FC00
FC00
7000
7000
7000
7000
7FE0
7FF0
7038
7018
7018
7018
7038
7FF0
7FE0
ENDCHAR
STARTCHAR 0472
ENCODING 1138
SWIDTH 792 0
DWIDTH 22 0
BBX 20 20 1 0
BITMAP
01F800
0FFE00
1F1F80
3C03C0
7001C0
7000E0
6000E0
E00060
EF8070
FFE0F0
F0FFF0
E03E70
E00060
6000E0
7000E0
7801C0
3C03C0
1F1F80
0FFE00
03F800
ENDCHAR
STARTCHAR 0473
ENCODING 1139
SWIDTH 540 0
DWIDTH 15 0
BBX 13 15 1 0
BITMAP
0FC0
3FE0
38F0
7038
6038
E018
FE38
FFF8
E3D8
E018
E038
7038
7870
3FE0
0FC0
ENDCHAR
STARTCHAR 0474
ENCODING 1140
SWIDTH 792 0
DWIDTH 22 0
BBX 18 20 3 0
BITMAP
C003C0
E007C0
E00F40
600E00
700C00
700C00
301C00
381800
381800
183800
1C3000
0C3000
0C3000
0E6000
066000
066000
07E000
03C000
03C000
03C000
ENDCHAR
STARTCHAR 0475
ENCODING 1141
SWIDTH 648 0
DWIDTH 18 0
BBX 13 15 2 0
BITMAP
E038
6078
7070
7060
30E0
38E0
38C0
18C0
1CC0
1D80
0D80
0F80
0F80
0700
0700
ENDCHAR
STARTCHAR 0490
ENCODING 1168
SWIDTH 504 0
DWIDTH 14 0
BBX 15 24 2 0
BITMAP
000E
000C
0018
0030
FFF0
FFF0
C000
C000
C000
C000
C000
C000
C000
C000
C000
C000
C000
C000
C000
C000
C000
C000
C000
C000
ENDCHAR
STARTCHAR 0491
ENCODING 1169
SWIDTH 396 0
DWIDTH 11 0
BBX 13 19 2 0
BITMAP
0038
0070
0060
00C0
FF80
FF80
E000
E000
E000
E000
E000
E000
E000
E000
E000
E000
E000
E000
E000
ENDCHAR
STARTCHAR 0492
ENCODING 1170
SWIDTH 540 0
DWIDTH 15 0
BBX 14 20 1 0
BITMAP
7FFC
7FFC
7000
7000
7000
7000
7000
7000
7000
FFE0
FFE0
7000
7000
7000
7000
7000
7000
7000
7000
7000
ENDCHAR
STARTCHAR 0493
ENCODING 1171
SWIDTH 396 0
DWIDTH 11 0
BBX 10 15 1 0
BITMAP
7FC0
7FC0
6000
6000
6000
6000
FE00
FE00
6000
6000
6000
6000
6000
6000
6000
ENDCHAR
STARTCHAR 0496
ENCODING 1174
SWIDTH 1008 0
DWIDTH 28 0
BBX 28 24 0 -4
BITMAP
300E01C0
380E0380
1C0E0700
1C0E0700
0E0E0E00
070E1C00
070E1C00
038E3800
01FFF800
01FFF000
038E3800
030E1C00
070E1C00
0E0E0E00
0C0E0700
1C0E0700
380E0380
380E01C0
700E01F0
E00E00F0
00000030
00000030
00000030
00000030
ENDCHAR
STARTCHAR 0497
ENCODING 1175
SWIDTH 828 0
DWIDTH 23 0
BBX 23 19 0 -4
BITMAP
703030
383070
383060
1C30E0
1C30C0
0E31C0
0FFF80
0FFF80
0E31C0
1C30E0
1830E0
383070
703030
70303E
E0301E
00000E
00000E
00000E
00000E
ENDCHAR
STARTCHAR 0498
ENCODING 1176
SWIDTH 612 0
DWIDTH 17 0
BBX 13 26 2 -6
BITMAP
0F80
3FE0
78F0
7070
E038
E038
0030
0070
01E0
07C0
07F0
0078
0038
0018
C018
E038
E038
7070
3FE0
1FC0
0400
0700
0180
0180
3180
1F00
ENDCHAR
STARTCHAR 0499
ENCODING 1177
SWIDTH 468 0
DWIDTH 13 0
BBX 11 21 1 -6
BITMAP
1F00
3F80
71C0
60C0
60C0
E0C0
01C0
0F80
0F80
01C0
00C0
E0E0
E0C0
71C0
7F80
3F00
0C00
0F00
0300
2300
3E00
ENDCHAR
STARTCHAR 049A
ENCODING 1178
SWIDTH 684 0
DWIDTH 19 0
BBX 15 25 2 -5
BITMAP
E070
E070
E0E0
E0E0
E1C0
E380
E380
E700
FE00
FE00
E700
E380
E380
E1C0
E0C0
E0E0
E070
E070
E03E
E01E
0006
0006
0006
0006
0006
ENDCHAR
STARTCHAR 049B
ENCODING 1179
SWIDTH 540 0
DWIDTH 15 0
BBX 13 20 2 -5
BITMAP
C0E0
C1C0
C1C0
C380
C380
C700
FF00
FF00
C700
C380
C180
C1C0
C0E0
C0F8
C078
0018
0018
0018
0018
0018
ENDCHAR
STARTCHAR 049C
ENCODING 1180
SWIDTH 612 0
DWIDTH 17 0
BBX 15 20 2 0
BITMAP
E01C
E038
E070
EC70
ECE0
EDC0
EDC0
EF80
FF80
FF00
EF80
EDC0
EDC0
ECE0
EC70
E070
E038
E01C
E01C
E00E
ENDCHAR
STARTCHAR 049D
ENCODING 1181
SWIDTH 504 0
DWIDTH 14 0
BBX 12 15 2 0
BITMAP
C0E0
C1C0
C9C0
CB80
CB80
CF00
FF00
FF00
CF00
CB80
C980
C9C0
C0E0
C0E0
C070
ENDCHAR
STARTCHAR 04A0
ENCODING 1184
SWIDTH 576 0
DWIDTH 16 0
BBX 21 20 -6 0
BITMAP
FFC070
FFC0E0
00C0C0
00C1C0
00C380
00C380
00C700
00CE00
00FE00
00FE00
00CE00
00C700
00C300
00C380
00C1C0
00C1C0
00C0E0
00C070
00C070
00C038
ENDCHAR
STARTCHAR 04A1
ENCODING 1185
SWIDTH 432 0
DWIDTH 12 0
BBX 18 15 -5 0
BITMAP
FF0380
FF0700
030700
030E00
030E00
031C00
03FC00
03FC00
030C00
030E00
030600
030700
030380
030380
0301C0
ENDCHAR
STARTCHAR 04A2
ENCODING 1186
SWIDTH 720 0
DWIDTH 20 0
BBX 17 25 2 -5
BITMAP
E00700
E00700
E00700
E00700
E00700
E00700
E00700
E00700
E00700
FFFF00
FFFF00
E00700
E00700
E00700
E00700
E00700
E00700
E00700
E00780
E00780
000180
000180
000180
000180
000180
ENDCHAR
STARTCHAR 04A3
ENCODING 1187
SWIDTH 540 0
DWIDTH 15 0
BBX 12 19 2 -4
BITMAP
C060
C060
C060
C060
C060
C060
FFE0
FFE0
C060
C060
C060
C060
C060
C070
C070
0030
0030
0030
0030
ENDCHAR
STARTCHAR 04AA
ENCODING 1194
SWIDTH 720 0
DWIDTH 20 0
BBX 18 26 1 -6
BITMAP
03F800
0FFE00
1F1F00
3C0700
380380
700180
700000
600000
E00000
E00000
E00000
E00000
600000
6001C0
700180
700380
380380
1E0F00
0FFE00
07F800
004000
00E000
003000
003000
023000
01E000
ENDCHAR
STARTCHAR 04AB
ENCODING 1195
SWIDTH 504 0
DWIDTH 14 0
BBX 12 21 1 -6
BITMAP
0F80
3FE0
78E0
7070
E030
E000
C000
C000
C000
C000
E030
E030
6070
78E0
3FE0
1F80
0600
0780
0180
1180
1F00
ENDCHAR
STARTCHAR 04AE
ENCODING 1198
SWIDTH 684 0
DWIDTH 19 0
BBX 17 20 1 0
BITMAP
E00380
E00700
700700
380E00
380E00
1C1C00
1E3800
0E3800
077000
076000
03E000
01C000
01C000
01C000
01C000
01C000
01C000
01C000
01C000
01C000
ENDCHAR
STARTCHAR 04AF
ENCODING 1199
SWIDTH 504 0
DWIDTH 14 0
BBX 12 21 1 -6
BITMAP
C030
E070
E060
6060
70E0
70C0
30C0
39C0
1980
1980
1F80
0F00
0F00
0F00
0600
0600
0600
0600
0600
0600
0600
ENDCHAR
STARTCHAR 04B0
ENCODING 1200
SWIDTH 684 0
DWIDTH 19 0
BBX 17 20 1 0
BITMAP
E00380
E00700
700700
380E00
380E00
1C1C00
1C3800
0E3800
077000
076000
03E000
01C000
01C000
01C000
1FFC00
1FFC00
01C000
01C000
01C000
01C000
ENDCHAR
STARTCHAR 04B1
ENCODING 1201
SWIDTH 504 0
DWIDTH 14 0
BBX 12 21 1 -6
BITMAP
C030
E070
E060
6060
70E0
70C0
30C0
39C0
1980
1980
1F80
0F00
0F00
0F00
0600
7FC0
7FC0
0600
0600
0600
0600
ENDCHAR
STARTCHAR 04B2
ENCODING 1202
SWIDTH 720 0
DWIDTH 20 0
BBX 18 25 1 -5
BITMAP
E00700
700700
380E00
381C00
1C1800
0E3800
0E7000
076000
03E000
01C000
03C000
07E000
077000
0E7000
1C3800
1C1C00
381E00
700E00
7007C0
E007C0
0000C0
0000C0
0000C0
0000C0
0000C0
ENDCHAR
STARTCHAR 04B3
ENCODING 1203
SWIDTH 540 0
DWIDTH 15 0
BBX 13 19 1 -4
BITMAP
E070
60E0
70C0
39C0
1B80
1F00
0F00
0E00
0F00
1F80
1980
31C0
70C0
60F8
C078
0018
0018
0018
0018
ENDCHAR
STARTCHAR 04B6
ENCODING 1206
SWIDTH 684 0
DWIDTH 19 0
BBX 17 25 2 -5
BITMAP
C00E00
C00E00
C00E00
C00E00
C00E00
C00E00
C00E00
C00E00
C00E00
E00E00
F01E00
7FFE00
1FFE00
000E00
000E00
000E00
000E00
000E00
000F80
000F80
000380
000380
000380
000380
000380
ENDCHAR
STARTCHAR 04B7
ENCODING 1207
SWIDTH 504 0
DWIDTH 14 0
BBX 12 19 1 -4
BITMAP
E060
E060
E060
E060
E060
E060
E060
7060
7FE0
3F60
0060
0060
0060
0070
0070
0030
0030
0030
0030
ENDCHAR
STARTCHAR 04B8
ENCODING 1208
SWIDTH 684 0
DWIDTH 19 0
BBX 15 20 2 0
BITMAP
C00E
C00E
C00E
C00E
C00E
C10E
C10E
C10E
C10E
E10E
F11E
7FFE
1FFE
010E
010E
010E
010E
000E
000E
000E
ENDCHAR
STARTCHAR 04B9
ENCODING 1209
SWIDTH 504 0
DWIDTH 14 0
BBX 11 15 1 0
BITMAP
E060
E060
E060
E060
E660
E660
E660
76E0
7FE0
3F60
0660
0660
0660
0060
0060
ENDCHAR
STARTCHAR 04BA
ENCODING 1210
SWIDTH 684 0
DWIDTH 19 0
BBX 15 20 2 0
BITMAP
C000
C000
C000
C000
C000
C000
C000
FFF0
FFFC
E01E
C00E
C00E
C00E
C00E
C00E
C00E
C00E
C00E
C00E
C00E
ENDCHAR
STARTCHAR 04BB
ENCODING 1211
SWIDTH 576 0
DWIDTH 16 0
BBX 12 20 2 0
BITMAP
E000
E000
E000
E000
E000
E7C0
EFE0
F8E0
F070
E030
E030
E030
E030
E030
E030
E030
E030
E030
E030
E030
ENDCHAR
STARTCHAR 04C0
ENCODING 1216
SWIDTH 288 0
DWIDTH 8 0
BBX 2 20 3 0
BITMAP
C0
C0
C0
C0
C0
C0
C0
C0
C0
C0
C0
C0
C0
C0
C0
C0
C0
C0
C0
C0
ENDCHAR
STARTCHAR 04CB
ENCODING 1227
SWIDTH 684 0
DWIDTH 19 0
BBX 16 25 1 -5
BITMAP
E007
E007
E007
E007
E007
E007
E007
E007
E007
E007
780F
3FFF
1FFF
0007
0007
0007
0007
0007
000F
000F
000C
000C
000C
000C
000C
ENDCHAR
STARTCHAR 04CC
ENCODING 1228
SWIDTH 504 0
DWIDTH 14 0
BBX 10 19 2 -4
BITMAP
C0C0
C0C0
C0C0
C0C0
C0C0
C0C0
C0C0
E1C0
FFC0
3EC0
00C0
00C0
00C0
03C0
03C0
0380
0380
0380
0380
ENDCHAR
STARTCHAR 04CF
ENCODING 1231
SWIDTH 288 0
DWIDTH 8 0
BBX 2 20 3 0
BITMAP
C0
C0
C0
C0
C0
C0
C0
C0
C0
C0
C0
C0
C0
C0
C0
C0
C0
C0
C0
C0
ENDCHAR
STARTCHAR 04D8
ENCODING 1240
SWIDTH 792 0
DWIDTH 22 0
BBX 20 20 1 0
BITMAP
01F800
0FFE00
1F0F80
3C03C0
7001C0
7000E0
0000E0
000060
000070
FFFFF0
FFFFF0
E00070
E00060
6000E0
7000E0
7801C0
3C03C0
1F9F80
0FFE00
03F800
ENDCHAR
STARTCHAR 04D9
ENCODING 1241
SWIDTH 540 0
DWIDTH 15 0
BBX 13 15 1 0
BITMAP
0F80
3FE0
78F0
6038
6038
0018
0018
FFF8
FFF8
E018
E038
7030
78F0
3FE0
0F80
ENDCHAR
STARTCHAR 04E2
ENCODING 1250
SWIDTH 720 0
DWIDTH 20 0
BBX 16 23 2 0
BITMAP
07F0
07F0
0000
E007
E007
E007
E00F
E01F
E03F
E07F
E077
E0E7
E1C7
E387
E707
EE07
FC07
FC07
F807
F007
E007
E007
E007
ENDCHAR
STARTCHAR 04E3
ENCODING 1251
SWIDTH 576 0
DWIDTH 16 0
BBX 11 18 2 0
BITMAP
3F80
3F80
0000
E060
E060
E0E0
E1E0
E1E0
E360
E760
EE60
EC60
FC60
F860
F060
E060
E060
E060
ENDCHAR
STARTCHAR 04E8
ENCODING 1256
SWIDTH 792 0
DWIDTH 22 0
BBX 20 20 1 0
BITMAP
01F800
0FFE00
1F1F80
3C03C0
7001C0
7000E0
6000E0
E00060
E00070
FFFFF0
FFFFF0
E00070
E00060
6000E0
7000E0
7801C0
3C0380
1F9F80
0FFE00
03F800
ENDCHAR
STARTCHAR 04E9
ENCODING 1257
SWIDTH 540 0
DWIDTH 15 0
BBX 13 15 1 0
BITMAP
0F80
1FE0
38F0
7030
6038
E018
E018
FFF8
FFF8
E018
E038
7038
7870
3FE0
0F80
ENDCHAR
STARTCHAR 04EE
ENCODING 1262
SWIDTH 648 0
DWIDTH 18 0
BBX 16 24 1 0
BITMAP
0FF0
0FF0
0000
0000
E007
E007
700E
700E
380C
381C
181C
1C38
1C38
0E70
0E70
0760
07E0
03C0
03C0
01C0
0180
0780
1F00
1E00
ENDCHAR
STARTCHAR 04EF
ENCODING 1263
SWIDTH 504 0
DWIDTH 14 0
BBX 12 25 1 -6
BITMAP
3FC0
3FC0
0000
0000
C030
E070
E060
6060
70E0
70C0
30C0
31C0
3980
1980
1B80
1F00
0F00
0E00
0E00
0E00
0C00
0C00
1C00
7800
7000
ENDCHAR
STARTCHAR 1E80
ENCODING 7808
SWIDTH 936 0
DWIDTH 26 0
BBX 25 26 1 0
BITMAP
00700000
00380000
00180000
000C0000
00000000
00000000
E01C0380
E03C0300
E03C0700
E03E0700
703E0700
70760600
70660E00
30670E00
38E30E00
38E30C00
38C38C00
18C39C00
19C19C00
1D819800
1D81D800
0D80F800
0F80F800
0F00F000
0F00F000
07007000
ENDCHAR
STARTCHAR 1E81
ENCODING 7809
SWIDTH 720 0
DWIDTH 20 0
BBX 20 20 0 0
BITMAP
01C000
00C000
006000
000000
000000
E0E070
60F060
60F0E0
70F0E0
71F0C0
31B8C0
3199C0
3999C0
1B9980
1B1D80
1B0F80
1F0F00
0F0F00
0E0F00
0E0700
ENDCHAR
STARTCHAR 1E82
ENCODING 7810
SWIDTH 936 0
DWIDTH 26 0
BBX 25 26 1 0
BITMAP
00038000
00070000
00060000
000C0000
00000000
00000000
E01C0380
E03C0300
E03C0700
E03E0700
703E0700
70760600
70660E00
30670E00
38E30E00
38E30C00
38C38C00
18C39C00
19C19C00
1D819800
1D81D800
0D80F800
0F80F800
0F00F000
0F00F000
07007000
ENDCHAR
STARTCHAR 1E83
ENCODING 7811
SWIDTH 720 0
DWIDTH 20 0
BBX 20 20 0 0
BITMAP
003800
007000
00C000
000000
000000
E0E070
60F060
60F0E0
70F0E0
71F0C0
31B8C0
3199C0
3999C0
1B9980
1B1D80
1B0F80
1F0F00
0F0F00
0E0F00
0E0700
ENDCHAR
STARTCHAR 1E84
ENCODING 7812
SWIDTH 936 0
DWIDTH 26 0
BBX 25 25 1 0
BITMAP
00E70000
00E70000
00E70000
00000000
00000000
E01C0380
E03C0300
E03C0700
E03E0700
703E0700
70760600
70660E00
30670E00
38E30E00
38E30C00
38C38C00
18C39C00
19C19C00
1D819800
1D81D800
0D80F800
0F80F800
0F00F000
0F00F000
07007000
ENDCHAR
STARTCHAR 1E85
ENCODING 7813
SWIDTH 720 0
DWIDTH 20 0
BBX 20 20 0 0
BITMAP
03B800
03B800
03B800
000000
000000
E0E070
60F060
60F0E0
70F0E0
71F0C0
31B8C0
3199C0
3999C0
1B9980
1B1D80
1B0F80
1F0F00
0F0F00
0E0F00
0E0700
ENDCHAR
STARTCHAR 1EF2
ENCODING 7922
SWIDTH 684 0
DWIDTH 19 0
BBX 17 26 1 0
BITMAP
070000
030000
018000
00C000
000000
000000
E00380
E00700
700700
380E00
380E00
1C1C00
0E3800
0E3800
077000
076000
03E000
01C000
01C000
01C000
01C000
01C000
01C000
01C000
01C000
01C000
ENDCHAR
STARTCHAR 1EF3
ENCODING 7923
SWIDTH 504 0
DWIDTH 14 0
BBX 12 26 1 -6
BITMAP
3800
0C00
0600
0000
0000
C030
E070
E060
6060
60E0
70C0
30C0
31C0
3980
1B80
1B00
1F00
0F00
0E00
0E00
0E00
0C00
1C00
1C00
F800
F000
ENDCHAR
STARTCHAR 2002
ENCODING 8194
SWIDTH 504 0
DWIDTH 14 0
BBX 0 0 0 0
BITMAP
ENDCHAR
STARTCHAR 2013
ENCODING 8211
SWIDTH 540 0
DWIDTH 15 0
BBX 16 2 0 7
BITMAP
FFFF
FFFF
ENDCHAR
STARTCHAR 2014
ENCODING 8212
SWIDTH 1008 0
DWIDTH 28 0
BBX 28 2 0 7
BITMAP
FFFFFFF0
FFFFFFF0
ENDCHAR
STARTCHAR 2015
ENCODING 8213
SWIDTH 1008 0
DWIDTH 28 0
BBX 28 2 0 7
BITMAP
FFFFFFF0
FFFFFFF0
ENDCHAR
STARTCHAR 2017
ENCODING 8215
SWIDTH 540 0
DWIDTH 15 0
BBX 17 4 -1 -6
BITMAP
FFFF80
000000
000000
FFFF80
ENDCHAR
STARTCHAR 2018
ENCODING 8216
SWIDTH 216 0
DWIDTH 6 0
BBX 2 6 2 14
BITMAP
C0
80
80
C0
C0
C0
ENDCHAR
STARTCHAR 2019
ENCODING 8217
SWIDTH 216 0
DWIDTH 6 0
BBX 2 6 2 14
BITMAP
C0
C0
C0
40
40
C0
ENDCHAR
STARTCHAR 201A
ENCODING 8218
SWIDTH 216 0
DWIDTH 6 0
BBX 2 6 2 -4
BITMAP
C0
C0
C0
40
40
C0
ENDCHAR
STARTCHAR 201B
ENCODING 8219
SWIDTH 216 0
DWIDTH 6 0
BBX 2 6 2 14
BITMAP
C0
C0
C0
80
80
40
ENDCHAR
STARTCHAR 201C
ENCODING 8220
SWIDTH 324 0
DWIDTH 9 0
BBX 7 6 1 14
BITMAP
66
44
C4
E6
E6
E6
ENDCHAR
STARTCHAR 201D
ENCODING 8221
SWIDTH 324 0
DWIDTH 9 0
BBX 7 6 1 14
BITMAP
E6
E6
E6
22
22
C6
ENDCHAR
STARTCHAR 201E
ENCODING 8222
SWIDTH 324 0
DWIDTH 9 0
BBX 7 7 1 -4
BITMAP
E6
E6
E6
22
62
C6
80
ENDCHAR
STARTCHAR 2020
ENCODING 8224
SWIDTH 540 0
DWIDTH 15 0
BBX 13 25 1 -5
BITMAP
0700
0700
0700
0700
0700
0700
FFF8
FFF8
0700
0700
0700
0700
0700
0700
0700
0700
0700
0700
0700
0700
0700
0700
0700
0700
0700
ENDCHAR
STARTCHAR 2021
ENCODING 8225
SWIDTH 540 0
DWIDTH 15 0
BBX 13 25 1 -5
BITMAP
0700
0700
0700
0700
0700
0700
FFF8
FFF8
0700
0700
0700
0700
0700
0700
0700
0700
0700
FFF8
FFF8
0700
0700
0700
0700
0700
0700
ENDCHAR
STARTCHAR 2022
ENCODING 8226
SWIDTH 360 0
DWIDTH 10 0
BBX 7 7 1 6
BITMAP
3C
7E
7E
FE
7E
7E
3C
ENDCHAR
STARTCHAR 2026
ENCODING 8230
SWIDTH 1008 0
DWIDTH 28 0
BBX 22 3 3 0
BITMAP
E0701C
E0701C
E0701C
ENDCHAR
STARTCHAR 2030
ENCODING 8240
SWIDTH 1008 0
DWIDTH 28 0
BBX 28 20 0 0
BITMAP
1C060000
7F060000
430C0000
C18C0000
C1980000
63100000
7F300000
3C200000
00600000
00C00000
00C00000
01800000
018E0380
033F8FE0
03218C60
0660D830
0460D830
0C318C60
183F8FE0
181E0780
ENDCHAR
STARTCHAR 2032
ENCODING 8242
SWIDTH 180 0
DWIDTH 5 0
BBX 3 7 1 12
BITMAP
60
60
60
60
40
C0
C0
ENDCHAR
STARTCHAR 2033
ENCODING 8243
SWIDTH 360 0
DWIDTH 10 0
BBX 7 7 2 12
BITMAP
66
6C
CC
CC
C8
98
98
ENDCHAR
STARTCHAR 2039
ENCODING 8249
SWIDTH 324 0
DWIDTH 9 0
BBX 4 9 3 3
BITMAP
10
30
E0
C0
80
C0
60
30
10
ENDCHAR
STARTCHAR 203A
ENCODING 8250
SWIDTH 324 0
DWIDTH 9 0
BBX 5 9 2 3
BITMAP
80
C0
70
38
18
38
70
C0
80
ENDCHAR
STARTCHAR 203C
ENCODING 8252
SWIDTH 504 0
DWIDTH 14 0
BBX 9 20 3 0
BITMAP
C180
C180
C180
C180
C180
C180
C180
C180
C180
C180
C180
C180
C180
C180
4080
0000
0000
C180
C180
C180
ENDCHAR
STARTCHAR 203E
ENCODING 8254
SWIDTH 324 0
DWIDTH 9 0
BBX 17 1 -4 24
BITMAP
FFFF80
ENDCHAR
STARTCHAR 2044
ENCODING 8260
SWIDTH 288 0
DWIDTH 8 0
BBX 13 20 -3 0
BITMAP
0008
0018
0010
0030
0060
0040
00C0
0180
0100
0300
0200
0600
0C00
0800
1800
3000
2000
6000
4000
C000
ENDCHAR
STARTCHAR 2070
ENCODING 8304
SWIDTH 324 0
DWIDTH 9 0
BBX 9 12 0 8
BITMAP
1E00
3700
6300
4100
4180
C180
C180
C180
4180
6100
6300
3E00
ENDCHAR
STARTCHAR 2074
ENCODING 8308
SWIDTH 324 0
DWIDTH 9 0
BBX 9 12 0 8
BITMAP
0200
0600
0E00
1E00
1600
3600
6600
C600
FF80
0600
0600
0600
ENDCHAR
STARTCHAR 2075
ENCODING 8309
SWIDTH 324 0
DWIDTH 9 0
BBX 9 12 0 8
BITMAP
7F00
7F00
6000
6000
7E00
7700
4180
0180
0180
C180
6300
7E00
ENDCHAR
STARTCHAR 2076
ENCODING 8310
SWIDTH 324 0
DWIDTH 9 0
BBX 9 12 0 8
BITMAP
1E00
3F00
6100
6000
4000
FF00
E300
C180
4180
6180
6300
3E00
ENDCHAR
STARTCHAR 2077
ENCODING 8311
SWIDTH 324 0
DWIDTH 9 0
BBX 8 12 1 8
BITMAP
FF
FF
02
04
0C
08
18
10
30
20
60
60
ENDCHAR
STARTCHAR 2078
ENCODING 8312
SWIDTH 324 0
DWIDTH 9 0
BBX 9 12 0 8
BITMAP
3E00
7700
6300
6100
6300
3E00
7700
4180
C180
C180
6300
3F00
ENDCHAR
STARTCHAR 2079
ENCODING 8313
SWIDTH 324 0
DWIDTH 9 0
BBX 9 12 0 8
BITMAP
1E00
7F00
6300
C180
C180
4180
7780
3D80
0180
4100
6300
3E00
ENDCHAR
STARTCHAR 207F
ENCODING 8319
SWIDTH 360 0
DWIDTH 10 0
BBX 8 9 1 7
BITMAP
DE
E3
C3
C3
C3
C3
C3
C3
C3
ENDCHAR
STARTCHAR 20A3
ENCODING 8355
SWIDTH 540 0
DWIDTH 15 0
BBX 14 20 1 0
BITMAP
FFFC
FFFC
E000
E000
E000
E18C
E19C
E1B0
FFE0
FFC0
E1C0
E1C0
E1C0
E1C0
E1C0
E1C0
E1C0
E1C0
E1C0
E1C0
ENDCHAR
STARTCHAR 20A4
ENCODING 8356
SWIDTH 540 0
DWIDTH 15 0
BBX 14 20 1 0
BITMAP
0FC0
1FE0
3870
7038
6038
6018
6000
7000
7000
FF80
FF80
1C00
FF80
FF80
1800
1800
3000
7FF8
FFFC
41F0
ENDCHAR
STARTCHAR 20A7
ENCODING 8359
SWIDTH 1080 0
DWIDTH 30 0
BBX 25 20 3 0
BITMAP
FE000000
FF000000
E7800000
E1C00000
E1C00000
E1C00000
E1C00000
E1C00000
E7800000
FF180000
FE180000
E03E1E00
E0183300
E0182180
E0183000
E0181F00
E0180380
E0186180
E0183380
E00E1E00
ENDCHAR
STARTCHAR 20AC
ENCODING 8364
SWIDTH 540 0
DWIDTH 15 0
BBX 15 20 0 0
BITMAP
01F8
07FE
071E
0E04
1C00
1800
1800
7FF8
FFF0
3800
3800
FFE0
FFE0
1800
1800
1C00
0E00
0F0C
07FC
01F8
ENDCHAR
STARTCHAR 20AF
ENCODING 8367
SWIDTH 900 0
DWIDTH 25 0
BBX 23 23 1 -5
BITMAP
008000
0FF000
323800
621C00
660C00
460C38
460CFC
060C8E
040D86
0C0D86
0C0D06
0C1B06
0C1B0C
08330C
183308
10E218
7FC7B0
FF07E0
000600
000600
000600
000400
000C00
ENDCHAR
STARTCHAR 20DD
ENCODING 8413
SWIDTH 1008 0
DWIDTH 28 0
BBX 20 20 4 0
BITMAP
01F800
07FE00
1C0700
380180
3000C0
600060
400060
C00020
C00030
C00030
C00030
C00030
C00020
400060
600060
3000C0
380180
1C0300
07FE00
01F800
ENDCHAR
STARTCHAR 2105
ENCODING 8453
SWIDTH 900 0
DWIDTH 25 0
BBX 22 21 1 0
BITMAP
0E0000
3F0180
738180
618300
600300
C00600
C00400
E00C00
618800
739800
3F31F0
1E33F8
006718
00660C
00C60C
00C60C
01860C
01060C
030718
0203F8
0601E0
ENDCHAR
STARTCHAR 210F
ENCODING 8463
SWIDTH 576 0
DWIDTH 16 0
BBX 13 20 1 0
BITMAP
0F00
0700
0710
0760
0780
0600
1E38
6C78
0C98
1D18
1A18
1C38
3C30
3830
3070
7070
7060
6068
60F0
E060
ENDCHAR
STARTCHAR 2111
ENCODING 8465
SWIDTH 720 0
DWIDTH 20 0
BBX 16 22 2 -2
BITMAP
0700
1FC0
71E0
40E2
C072
8072
803E
801C
C000
401C
303E
1871
0071
0070
0070
E038
7038
3818
1C18
1E38
0FF0
07C0
ENDCHAR
STARTCHAR 2112
ENCODING 8466
SWIDTH 828 0
DWIDTH 23 0
BBX 21 21 1 0
BITMAP
01C1E0
060310
0C0608
180608
100C08
100C10
100C10
080C20
0C0CC0
021F00
01FC00
001C00
001C00
001800
001800
001800
003000
7C3010
836020
41E060
3E1F80
ENDCHAR
STARTCHAR 2113
ENCODING 8467
SWIDTH 324 0
DWIDTH 9 0
BBX 10 20 -1 0
BITMAP
0180
0240
0640
0440
0C40
0C80
0C80
1900
1900
1A00
1C00
3800
3000
7000
B000
3000
3000
3200
3C00
3800
ENDCHAR
STARTCHAR 2116
ENCODING 8470
SWIDTH 1080 0
DWIDTH 30 0
BBX 28 20 1 0
BITMAP
E00C1F00
F00C3F80
F00C7BC0
F80C60E0
D80CC060
DC0CC070
CC0CC030
CE0CC030
C60CC030
C30CC070
C38CC060
C18CE0E0
C1CC79C0
C0CC3F80
C0EC1F00
C06C0000
C07C0000
C03C0000
C01CFFE0
C01CFFE0
ENDCHAR
STARTCHAR 2118
ENCODING 8472
SWIDTH 648 0
DWIDTH 18 0
BBX 14 16 2 -5
BITMAP
0400
0878
108C
230C
640C
680C
700C
6318
3318
7230
99C0
9800
9800
8800
9000
6000
ENDCHAR
STARTCHAR 211C
ENCODING 8476
SWIDTH 792 0
DWIDTH 22 0
BBX 17 17 2 0
BITMAP
1E3C00
7F7F00
478700
838700
838300
C18700
C18E00
71F800
39BC00
199C00
098C00
018E00
018E00
038E00
3B0700
7E0780
1C0600
ENDCHAR
STARTCHAR 211E
ENCODING 8478
SWIDTH 756 0
DWIDTH 21 0
BBX 14 18 4 0
BITMAP
FFE0
FFF8
E038
E01C
E01C
E01C
E01C
E038
FFF0
FFE0
E18C
E1DC
E0F8
E070
E070
E0F8
E0D8
E1DC
ENDCHAR
STARTCHAR 2120
ENCODING 8480
SWIDTH 612 0
DWIDTH 17 0
BBX 15 8 1 11
BITMAP
79CE
CD4E
8D4E
E14E
1D56
8536
8D36
7936
ENDCHAR
STARTCHAR 2122
ENCODING 8482
SWIDTH 1008 0
DWIDTH 28 0
BBX 24 12 2 8
BITMAP
FFCC07
FFCE07
0C0E07
0C0B0F
0C0B0F
0C0B0B
0C099B
0C0993
0C08B3
0C08F3
0C08E3
0C0863
ENDCHAR
STARTCHAR 2126
ENCODING 8486
SWIDTH 756 0
DWIDTH 21 0
BBX 20 20 1 0
BITMAP
01F800
0FFE00
1F1F00
3C0380
7801C0
7000E0
E000E0
E000E0
E00060
E00060
E00060
E00060
6000E0
7000C0
3001C0
380380
1C0700
070C00
FF1FF0
FF1FF0
ENDCHAR
STARTCHAR 2128
ENCODING 8488
SWIDTH 612 0
DWIDTH 17 0
BBX 16 24 0 -5
BITMAP
01F8
061C
000E
0006
0007
0007
0306
0306
030C
0318
01F0
01F8
077C
0C0E
1807
0007
0003
0003
7003
8C03
8607
8E06
030C
00F8
ENDCHAR
STARTCHAR 212D
ENCODING 8493
SWIDTH 648 0
DWIDTH 18 0
BBX 16 21 2 -2
BITMAP
0F1C
18FF
308E
6080
6100
C180
C1C0
C1E0
C0E0
C070
C038
C438
E418
E418
E230
71E1
7803
3C06
1F9C
0FF8
03E0
ENDCHAR
STARTCHAR 212E
ENCODING 8494
SWIDTH 612 0
DWIDTH 17 0
BBX 13 15 2 0
BITMAP
0F80
3FE0
7060
E030
C030
C038
C038
FFF8
C000
C000
C000
E030
6060
3FE0
1F80
ENDCHAR
STARTCHAR 212F
ENCODING 8495
SWIDTH 504 0
DWIDTH 14 0
BBX 11 14 2 0
BITMAP
03C0
0CC0
1860
38C0
70C0
6180
E600
F800
C000
C000
C000
E180
F200
3C00
ENDCHAR
STARTCHAR 2135
ENCODING 8501
SWIDTH 504 0
DWIDTH 14 0
BBX 12 17 1 1
BITMAP
8200
C3F0
C3F0
63F0
3050
3840
3880
6C80
6780
E780
E380
F1C0
78C0
7860
3C70
F830
F810
ENDCHAR
STARTCHAR 2136
ENCODING 8502
SWIDTH 432 0
DWIDTH 12 0
BBX 11 14 1 1
BITMAP
8000
FF80
FFC0
7FE0
0060
0020
0020
0020
0020
0020
0040
7FE0
FFE0
FFE0
ENDCHAR
STARTCHAR 2137
ENCODING 8503
SWIDTH 324 0
DWIDTH 9 0
BBX 6 15 2 0
BITMAP
40
78
7C
7C
0C
04
04
04
04
04
04
04
FC
F4
F0
ENDCHAR
STARTCHAR 215B
ENCODING 8539
SWIDTH 828 0
DWIDTH 23 0
BBX 20 20 2 0
BITMAP
100300
300600
F00400
300C00
301800
301000
303000
302000
3063E0
30C620
308430
318430
010660
0203C0
060630
040C30
0C0C10
180C30
100660
3003C0
ENDCHAR
STARTCHAR 215C
ENCODING 8540
SWIDTH 828 0
DWIDTH 23 0
BBX 21 20 1 0
BITMAP
3E0080
7F0180
C30100
C30300
030600
1E0400
070C00
011800
C111F0
C33318
7F2218
3C6218
00C330
0081E0
018318
030608
020608
060618
040330
0C01E0
ENDCHAR
STARTCHAR 215D
ENCODING 8541
SWIDTH 828 0
DWIDTH 23 0
BBX 21 20 1 0
BITMAP
7E00C0
400180
400100
400300
7C0600
E60400
030C00
030800
0319E0
C33330
662218
3C6218
00C330
0081E0
018318
030608
020608
060618
040330
0C01E0
ENDCHAR
STARTCHAR 215E
ENCODING 8542
SWIDTH 828 0
DWIDTH 23 0
BBX 20 20 2 0
BITMAP
FE0600
020400
040C00
0C1800
081000
183000
106000
304000
20C3C0
208660
618C30
030C30
020660
0603C0
0C0460
080C30
180C30
300C30
200660
6003C0
ENDCHAR
STARTCHAR 2190
ENCODING 8592
SWIDTH 1008 0
DWIDTH 28 0
BBX 23 9 2 5
BITMAP
060000
0C0000
1C0000
7FFFFE
FFFFFE
380000
0C0000
040000
020000
ENDCHAR
STARTCHAR 2191
ENCODING 8593
SWIDTH 504 0
DWIDTH 14 0
BBX 9 23 2 -3
BITMAP
0800
0C00
1E00
3E00
7F00
CD80
0C00
0C00
0C00
0C00
0C00
0C00
0C00
0C00
0C00
0C00
0C00
0C00
0C00
0C00
0C00
0C00
0C00
ENDCHAR
STARTCHAR 2192
ENCODING 8594
SWIDTH 1008 0
DWIDTH 28 0
BBX 23 9 2 5
BITMAP
000060
000030
000038
FFFFFE
FFFFFE
00003C
000030
000060
000040
ENDCHAR
STARTCHAR 2193
ENCODING 8595
SWIDTH 504 0
DWIDTH 14 0
BBX 9 23 2 -3
BITMAP
0C00
0C00
0C00
0C00
0C00
0C00
0C00
0C00
0C00
0C00
0C00
0C00
0C00
0C00
0C00
0C00
0C00
ED80
7F00
3E00
1C00
0C00
0800
ENDCHAR
STARTCHAR 2194
ENCODING 8596
SWIDTH 1008 0
DWIDTH 28 0
BBX 20 9 4 5
BITMAP
0C0300
180180
3801C0
FFFFF0
FFFFF0
7001E0
180180
080300
040200
ENDCHAR
STARTCHAR 2195
ENCODING 8597
SWIDTH 504 0
DWIDTH 14 0
BBX 9 21 2 -1
BITMAP
0C00
0C00
1E00
3F00
3F00
ED80
0C00
0C00
0C00
0C00
0C00
0C00
0C00
0C00
0C00
ED80
7F00
3F00
1E00
0C00
0C00
ENDCHAR
STARTCHAR 2196
ENCODING 8598
SWIDTH 720 0
DWIDTH 20 0
BBX 20 19 0 -1
BITMAP
E00000
FC0000
F70000
798000
7C0000
2E0000
370000
338000
10C000
006000
003000
001800
000C00
000600
000300
000180
0000C0
000060
000030
ENDCHAR
STARTCHAR 2197
ENCODING 8599
SWIDTH 720 0
DWIDTH 20 0
BBX 20 19 0 -1
BITMAP
0000E0
0003F0
000EE0
0039E0
000340
0006C0
000CC0
001880
003180
006000
00C000
018000
030000
060000
0C0000
180000
300000
600000
C00000
ENDCHAR
STARTCHAR 2198
ENCODING 8600
SWIDTH 720 0
DWIDTH 20 0
BBX 20 19 0 -1
BITMAP
C00000
600000
300000
180000
0C0000
060000
030000
018000
00C000
006000
003180
001980
000C80
0006C0
000340
0031E0
001EE0
0003F0
0000E0
ENDCHAR
STARTCHAR 2199
ENCODING 8601
SWIDTH 720 0
DWIDTH 20 0
BBX 19 19 0 -1
BITMAP
000020
000060
0000C0
000180
000300
000600
000C00
001800
003000
006000
18C000
118000
330000
260000
6C0000
598000
F70000
FC0000
F00000
ENDCHAR
STARTCHAR 21A8
ENCODING 8616
SWIDTH 504 0
DWIDTH 14 0
BBX 10 25 2 -3
BITMAP
0800
0C00
1E00
3E00
3F00
ED80
0C00
0C00
0C00
0C00
0C00
0C00
0C00
0C00
0C00
EDC0
7F00
3F00
1E00
0C00
0C00
0000
0000
0000
7F80
ENDCHAR
STARTCHAR 21B5
ENCODING 8629
SWIDTH 1008 0
DWIDTH 28 0
BBX 20 11 5 4
BITMAP
000030
000030
070030
1E0030
700030
FFFFF0
FFFFF0
F00000
3C0000
070000
010000
ENDCHAR
STARTCHAR 21C4
ENCODING 8644
SWIDTH 1008 0
DWIDTH 28 0
BBX 21 16 3 2
BITMAP
000180
0000C0
0000E0
000070
FFFFF8
000070
0000E0
0600C0
0C0180
180000
380000
FFFFF8
700000
180000
0C0000
040000
ENDCHAR
STARTCHAR 21C6
ENCODING 8646
SWIDTH 1008 0
DWIDTH 28 0
BBX 21 16 3 2
BITMAP
040000
0C0000
180000
380000
FFFFF8
700000
180000
0C0180
0400C0
0000E0
000070
FFFFF8
000070
0000E0
0000C0
000180
ENDCHAR
STARTCHAR 21D0
ENCODING 8656
SWIDTH 720 0
DWIDTH 20 0
BBX 19 12 1 2
BITMAP
020000
0C0000
180000
3FFFE0
600000
C00000
C00000
600000
3FFFE0
180000
060000
020000
ENDCHAR
STARTCHAR 21D1
ENCODING 8657
SWIDTH 720 0
DWIDTH 20 0
BBX 12 18 4 0
BITMAP
0400
0600
0F00
1980
30C0
70E0
50B0
9080
1080
1080
1080
1080
1080
1080
1080
1080
1080
1080
ENDCHAR
STARTCHAR 21D2
ENCODING 8658
SWIDTH 720 0
DWIDTH 20 0
BBX 19 12 0 2
BITMAP
000800
000600
000300
FFFF80
0000C0
000060
000060
0000C0
FFFF80
000300
000400
000800
ENDCHAR
STARTCHAR 21D3
ENCODING 8659
SWIDTH 720 0
DWIDTH 20 0
BBX 12 18 4 0
BITMAP
1080
1080
1080
1080
1080
1080
1080
1080
1080
1080
1080
D0B0
70E0
30C0
1980
0F00
0600
0400
ENDCHAR
STARTCHAR 21D4
ENCODING 8660
SWIDTH 720 0
DWIDTH 20 0
BBX 19 12 0 2
BITMAP
020400
060600
0C0300
1FFF80
3000C0
E00060
600060
3000C0
1FFF80
0C0300
060600
020800
ENDCHAR
STARTCHAR 21D5
ENCODING 8661
SWIDTH 720 0
DWIDTH 20 0
BBX 14 19 3 -1
BITMAP
0300
0780
0CE0
3CF0
6CD8
8CC0
0CC0
0CC0
0CC0
0CC0
0CC0
0CC0
0CC0
CCCC
7CF8
1CE0
0FC0
0780
0300
ENDCHAR
STARTCHAR 2200
ENCODING 8704
SWIDTH 576 0
DWIDTH 16 0
BBX 15 16 1 0
BITMAP
C00E
E00C
601C
7018
7038
3FF8
3FF0
1870
1C60
1CE0
0CE0
0EC0
07C0
0780
0780
0380
ENDCHAR
STARTCHAR 2202
ENCODING 8706
SWIDTH 468 0
DWIDTH 13 0
BBX 12 21 1 0
BITMAP
7F00
6180
00C0
0040
0060
0060
0070
0030
0030
1E70
39F0
7070
E060
C060
C060
C0E0
C0C0
C0C0
C180
6380
1E00
ENDCHAR
STARTCHAR 2203
ENCODING 8707
SWIDTH 432 0
DWIDTH 12 0
BBX 9 16 1 0
BITMAP
FF80
FF80
0180
0180
0180
0180
0180
FF80
FF80
0180
0180
0180
0180
0180
FF80
FF80
ENDCHAR
STARTCHAR 2205
ENCODING 8709
SWIDTH 1008 0
DWIDTH 28 0
BBX 22 20 3 0
BITMAP
003800
01FF0C
070398
0E00F0
1800E0
1801F0
3003B0
300630
201C18
203818
607018
20E018
318010
370030
3E0030
1C0060
3C00C0
670180
C3FF00
00FC00
ENDCHAR
STARTCHAR 2206
ENCODING 8710
SWIDTH 612 0
DWIDTH 17 0
BBX 17 18 0 0
BITMAP
01C000
01C000
03E000
036000
036000
077000
063000
0E3800
0C1800
0C1800
1C1C00
180C00
380E00
300600
300600
700700
7FFF00
FFFF80
ENDCHAR
STARTCHAR 2207
ENCODING 8711
SWIDTH 756 0
DWIDTH 21 0
BBX 16 17 2 0
BITMAP
FFFF
7FFF
6007
7006
300E
380C
181C
181C
1C18
0C38
0E30
0670
0760
0360
03E0
03C0
01C0
ENDCHAR
STARTCHAR 2208
ENCODING 8712
SWIDTH 1008 0
DWIDTH 28 0
BBX 15 14 6 0
BITMAP
07FE
1FFE
3800
6000
6000
6000
7FFE
FFFE
6000
6000
6000
3000
3FFE
0FFE
ENDCHAR
STARTCHAR 2209
ENCODING 8713
SWIDTH 1008 0
DWIDTH 28 0
BBX 15 17 6 -2
BITMAP
000C
0008
07FE
1FFE
3830
6020
6060
6040
7FFE
FFFE
6100
6300
6200
3600
3FFE
0FFE
1800
ENDCHAR
STARTCHAR 220B
ENCODING 8715
SWIDTH 1008 0
DWIDTH 28 0
BBX 15 14 6 0
BITMAP
FFE0
FFF8
001C
000E
0006
0006
FFFE
FFFE
0006
0006
0006
000C
FFF8
FFF0
ENDCHAR
STARTCHAR 220D
ENCODING 8717
SWIDTH 540 0
DWIDTH 15 0
BBX 11 13 3 0
BITMAP
F800
FF80
01C0
0060
0060
0020
FFE0
FFE0
0060
0060
00C0
FF80
FF00
ENDCHAR
STARTCHAR 220F
ENCODING 8719
SWIDTH 1008 0
DWIDTH 28 0
BBX 21 27 3 -7
BITMAP
FFFFF8
FFFFF8
1C00E0
1C00E0
1C00E0
1C00E0
1C00E0
1C00E0
1C00E0
1C00E0
1C00E0
1C00E0
1C00E0
1C00E0
1C00E0
1C00E0
1C00E0
1C00E0
1C00E0
1C00E0
1C00E0
1C00E0
1C00E0
1C00E0
1C00E0
7F03F8
7F03F8
ENDCHAR
STARTCHAR 2211
ENCODING 8721
SWIDTH 1008 0
DWIDTH 28 0
BBX 14 25 6 -4
BITMAP
FFFC
FFFC
600C
700C
300C
380C
1800
1C00
0C00
0600
0700
0300
0300
0700
0600
0E00
0C00
1C00
1800
380C
300C
700C
600C
FFFC
FFFC
ENDCHAR
STARTCHAR 2212
ENCODING 8722
SWIDTH 576 0
DWIDTH 16 0
BBX 14 2 1 5
BITMAP
FFFC
FFFC
ENDCHAR
STARTCHAR 2213
ENCODING 8723
SWIDTH 1008 0
DWIDTH 28 0
BBX 13 17 7 0
BITMAP
FFF8
FFF8
0000
0000
0300
0300
0300
0300
0300
FFF8
FFF8
0300
0300
0300
0300
0300
0300
ENDCHAR
STARTCHAR 2215
ENCODING 8725
SWIDTH 288 0
DWIDTH 8 0
BBX 13 20 -3 0
BITMAP
0008
0018
0010
0030
0060
0040
00C0
0180
0100
0300
0200
0600
0C00
0800
1800
3000
2000
6000
4000
C000
ENDCHAR
STARTCHAR 2217
ENCODING 8727
SWIDTH 1008 0
DWIDTH 28 0
BBX 8 8 10 3
BITMAP
18
18
DA
7E
3C
FF
5A
18
ENDCHAR
STARTCHAR 2219
ENCODING 8729
SWIDTH 288 0
DWIDTH 8 0
BBX 3 3 3 6
BITMAP
E0
E0
E0
ENDCHAR
STARTCHAR 221A
ENCODING 8730
SWIDTH 468 0
DWIDTH 13 0
BBX 14 26 -1 -1
BITMAP
0004
0004
0004
0008
0008
0008
0008
0008
0008
0010
0010
3810
D810
0C10
0C10
0620
0620
0220
0320
0120
01A0
00C0
00C0
0040
0040
0040
ENDCHAR
STARTCHAR 221D
ENCODING 8733
SWIDTH 1008 0
DWIDTH 28 0
BBX 14 8 5 3
BITMAP
1C0C
7E1C
6330
41E0
C1E0
63F0
7F3C
3C0C
ENDCHAR
STARTCHAR 221E
ENCODING 8734
SWIDTH 720 0
DWIDTH 20 0
BBX 18 7 1 4
BITMAP
7C1F80
C738C0
81E0C0
80C040
81E0C0
C738C0
7C1F80
ENDCHAR
STARTCHAR 221F
ENCODING 8735
SWIDTH 972 0
DWIDTH 27 0
BBX 25 24 1 0
BITMAP
C0000000
C0000000
C0000000
C0000000
C0000000
C0000000
C0000000
C0000000
C0000000
C0000000
C0000000
C0000000
C0000000
C0000000
C0000000
C0000000
C0000000
C0000000
C0000000
C0000000
C0000000
C0000000
FFFFFF80
FFFFFF80
ENDCHAR
STARTCHAR 2220
ENCODING 8736
SWIDTH 1008 0
DWIDTH 28 0
BBX 16 11 6 1
BITMAP
0018
0020
0040
0080
0100
0200
0400
1800
3000
6000
FFFF
ENDCHAR
STARTCHAR 2223
ENCODING 8739
SWIDTH 720 0
DWIDTH 20 0
BBX 2 28 9 -7
BITMAP
C0
C0
C0
C0
C0
C0
C0
C0
C0
C0
C0
C0
C0
C0
C0
C0
C0
C0
C0
C0
C0
C0
C0
C0
C0
C0
C0
C0
ENDCHAR
STARTCHAR 2225
ENCODING 8741
SWIDTH 720 0
DWIDTH 20 0
BBX 6 32 7 -7
BITMAP
CC
CC
CC
CC
CC
CC
CC
CC
CC
CC
CC
CC
CC
CC
CC
CC
CC
CC
CC
CC
CC
CC
CC
CC
CC
CC
CC
CC
CC
CC
CC
CC
ENDCHAR
STARTCHAR 2227
ENCODING 8743
SWIDTH 1008 0
DWIDTH 28 0
BBX 14 14 7 0
BITMAP
0300
0780
0780
0F80
0CC0
1CC0
1860
1860
3070
3030
6038
6018
E018
C00C
ENDCHAR
STARTCHAR 2228
ENCODING 8744
SWIDTH 1008 0
DWIDTH 28 0
BBX 14 14 7 0
BITMAP
C01C
E018
6018
7030
3030
3070
1860
18E0
0CC0
0CC0
0F80
0780
0700
0300
ENDCHAR
STARTCHAR 2229
ENCODING 8745
SWIDTH 720 0
DWIDTH 20 0
BBX 14 17 3 0
BITMAP
0FC0
1FE0
3030
6018
6018
C00C
C00C
C00C
C00C
C00C
C00C
C00C
C00C
C00C
C00C
C00C
C00C
ENDCHAR
STARTCHAR 222A
ENCODING 8746
SWIDTH 720 0
DWIDTH 20 0
BBX 14 17 3 0
BITMAP
C00C
C00C
C00C
C00C
C00C
C00C
C00C
C00C
C00C
C00C
C00C
C00C
6018
6018
3030
1FE0
0FC0
ENDCHAR
STARTCHAR 222B
ENCODING 8747
SWIDTH 288 0
DWIDTH 8 0
BBX 8 28 0 -3
BITMAP
07
0F
0A
08
18
18
18
18
18
18
18
18
18
18
18
18
18
18
18
18
18
18
08
08
08
68
F0
70
ENDCHAR
STARTCHAR 222E
ENCODING 8750
SWIDTH 1008 0
DWIDTH 28 0
BBX 12 34 8 -7
BITMAP
01C0
06E0
04E0
0440
0C00
0C00
0C00
0C00
0C00
0C00
0E00
0E00
3F80
6E40
CE20
8E20
8E30
8E30
8F20
CF20
4740
3780
0F00
0700
0600
0600
0600
0600
0600
0200
0200
7400
6400
7800
ENDCHAR
STARTCHAR 2234
ENCODING 8756
SWIDTH 1008 0
DWIDTH 28 0
BBX 17 18 5 0
BITMAP
00C000
01E000
01E000
00C000
000000
000000
000000
000000
000000
000000
000000
000000
000000
000000
600100
F00380
F00380
600380
ENDCHAR
STARTCHAR 2235
ENCODING 8757
SWIDTH 1008 0
DWIDTH 28 0
BBX 17 18 5 0
BITMAP
600100
F00380
F00380
600380
000000
000000
000000
000000
000000
000000
000000
000000
000000
000000
00C000
01E000
01E000
00C000
ENDCHAR
STARTCHAR 2237
ENCODING 8759
SWIDTH 1008 0
DWIDTH 28 0
BBX 17 18 5 0
BITMAP
200100
F00380
F00380
600380
000000
000000
000000
000000
000000
000000
000000
000000
000000
000000
200100
F00380
F00380
600380
ENDCHAR
STARTCHAR 2245
ENCODING 8773
SWIDTH 1008 0
DWIDTH 28 0
BBX 14 9 7 3
BITMAP
3C08
77B8
40F0
0000
0000
FFFC
0000
0000
FFFC
ENDCHAR
STARTCHAR 2248
ENCODING 8776
SWIDTH 540 0
DWIDTH 15 0
BBX 13 9 1 2
BITMAP
3C08
7F18
C7F0
80E0
0000
3C08
7F18
C3F0
80E0
ENDCHAR
STARTCHAR 2260
ENCODING 8800
SWIDTH 540 0
DWIDTH 15 0
BBX 13 13 1 0
BITMAP
0040
00C0
0180
FFF8
FFF8
0300
0600
0600
FFF8
FFF8
1800
3000
3000
ENDCHAR
STARTCHAR 2261
ENCODING 8801
SWIDTH 576 0
DWIDTH 16 0
BBX 14 11 1 1
BITMAP
FFFC
FFFC
0000
0000
0000
FFFC
FFFC
0000
0000
FFFC
FFFC
ENDCHAR
STARTCHAR 2262
ENCODING 8802
SWIDTH 1008 0
DWIDTH 28 0
BBX 13 15 7 0
BITMAP
0020
0060
FFF8
FFF8
0180
0100
FFF8
FFF8
0600
0C00
0C00
FFF8
FFF8
3000
2000
ENDCHAR
STARTCHAR 2264
ENCODING 8804
SWIDTH 540 0
DWIDTH 15 0
BBX 13 18 1 0
BITMAP
0008
0038
01F0
07C0
1F00
F800
E000
F800
3E00
0F80
01F0
0078
0018
0000
0000
0000
FFF8
FFF8
ENDCHAR
STARTCHAR 2265
ENCODING 8805
SWIDTH 540 0
DWIDTH 15 0
BBX 13 18 1 0
BITMAP
8000
E000
7C00
1F00
07E0
00F8
0038
0078
03E0
0F80
7E00
F000
C000
0000
0000
0000
FFF8
FFF8
ENDCHAR
STARTCHAR 226A
ENCODING 8810
SWIDTH 1008 0
DWIDTH 28 0
BBX 18 17 5 -1
BITMAP
0000C0
0003C0
000F80
003C00
01F0C0
07C3C0
1E1F00
787C00
E1E000
787C00
1F1F00
07C3C0
01F0C0
003C00
000F80
0003C0
0000C0
ENDCHAR
STARTCHAR 226B
ENCODING 8811
SWIDTH 1008 0
DWIDTH 28 0
BBX 18 17 5 -1
BITMAP
800000
F00000
7C0000
1F0000
C3C000
F0F800
7C3E00
0F8F80
03E1C0
0F0F80
7C3E00
F0F000
C3C000
1F0000
7C0000
F00000
800000
ENDCHAR
STARTCHAR 2282
ENCODING 8834
SWIDTH 1008 0
DWIDTH 28 0
BBX 15 14 6 0
BITMAP
07FE
1FFE
3800
6000
6000
6000
4000
C000
6000
6000
6000
3000
3FFE
0FFE
ENDCHAR
STARTCHAR 2283
ENCODING 8835
SWIDTH 1008 0
DWIDTH 28 0
BBX 15 14 6 0
BITMAP
FFE0
FFF8
001C
000E
0006
0006
0006
0006
0006
0006
0006
000C
FFF8
FFF0
ENDCHAR
STARTCHAR 2284
ENCODING 8836
SWIDTH 1008 0
DWIDTH 28 0
BBX 15 18 6 -2
BITMAP
0004
0004
07FE
1FFE
3818
6030
6020
6060
4040
C0C0
6180
6100
6300
3200
3FFE
0FFE
0800
0800
ENDCHAR
STARTCHAR 2285
ENCODING 8837
SWIDTH 1008 0
DWIDTH 28 0
BBX 15 16 6 -1
BITMAP
6000
FFE0
FFF8
181C
080E
0C06
0606
0206
0306
0106
0186
00C6
004C
FFF8
FFF0
0030
ENDCHAR
STARTCHAR 2286
ENCODING 8838
SWIDTH 1008 0
DWIDTH 28 0
BBX 15 17 6 0
BITMAP
07FE
1FFE
3800
6000
6000
6000
4000
C000
6000
6000
6000
3000
3FFE
0FFE
0000
FFFE
FFFE
ENDCHAR
STARTCHAR 2287
ENCODING 8839
SWIDTH 1008 0
DWIDTH 28 0
BBX 15 17 6 0
BITMAP
FFE0
FFF8
001C
000E
0006
0006
0006
0006
0006
0006
0006
000C
FFF8
FFF0
0000
FFFE
FFFE
ENDCHAR
STARTCHAR 2295
ENCODING 8853
SWIDTH 1008 0
DWIDTH 28 0
BBX 20 20 4 0
BITMAP
01FC00
0FFE00
1C6380
3061C0
6060C0
606060
C06020
C06030
C06030
FFFFF0
FFFFF0
C06030
C06030
406020
606060
3060C0
386180
1C6300
07FE00
01F800
ENDCHAR
STARTCHAR 2296
ENCODING 8854
SWIDTH 1008 0
DWIDTH 28 0
BBX 20 21 4 -1
BITMAP
00E000
07FC00
0E0F00
180380
3000C0
6000C0
600060
C00020
C00030
C00030
FFFFF0
FFFFF0
C00030
C00020
400060
600060
3000C0
380180
0E0700
07FE00
00E000
ENDCHAR
STARTCHAR 2297
ENCODING 8855
SWIDTH 1008 0
DWIDTH 28 0
BBX 20 20 4 0
BITMAP
01F800
07FE00
1C0700
380180
3C03C0
6E0660
470C60
C39830
C1F030
C0E030
C0F030
C1B830
C31C30
460E20
6C0660
3803C0
380180
1C0300
07FE00
01F800
ENDCHAR
STARTCHAR 2298
ENCODING 8856
SWIDTH 1008 0
DWIDTH 28 0
BBX 20 20 4 0
BITMAP
01F800
07FE00
1C0700
380180
3003C0
600760
400E60
C01C30
C03830
C07030
C0E030
C1C030
C38020
C70060
6E0060
7C00C0
380180
1C0300
07FE00
01F800
ENDCHAR
STARTCHAR 2299
ENCODING 8857
SWIDTH 1008 0
DWIDTH 28 0
BBX 20 21 4 -1
BITMAP
00E000
07FC00
0E0700
180180
3000C0
600060
600060
C00020
C00030
C06030
80F030
80E030
C00030
C00020
400060
600060
3000C0
380180
0E0700
07FE00
00F000
ENDCHAR
STARTCHAR 22A2
ENCODING 8866
SWIDTH 1008 0
DWIDTH 28 0
BBX 17 16 5 0
BITMAP
C00000
C00000
C00000
C00000
C00000
C00000
C00000
FFFF80
FFFF80
C00000
C00000
C00000
C00000
C00000
C00000
C00000
ENDCHAR
STARTCHAR 22A3
ENCODING 8867
SWIDTH 1008 0
DWIDTH 28 0
BBX 17 16 5 0
BITMAP
000080
000080
000080
000080
000080
000080
000080
FFFF80
FFFF80
000080
000080
000080
000080
000080
000080
000080
ENDCHAR
STARTCHAR 22A4
ENCODING 8868
SWIDTH 1008 0
DWIDTH 28 0
BBX 15 18 6 0
BITMAP
FFFE
FFFE
0180
0180
0180
0180
0180
0180
0180
0180
0180
0180
0180
0180
0180
0180
0180
0180
ENDCHAR
STARTCHAR 22A5
ENCODING 8869
SWIDTH 1008 0
DWIDTH 28 0
BBX 16 17 6 0
BITMAP
0180
0180
0180
0180
0180
0180
0180
0180
0180
0180
0180
0180
0180
0180
0180
FFFF
FFFF
ENDCHAR
STARTCHAR 22BB
ENCODING 8891
SWIDTH 1008 0
DWIDTH 28 0
BBX 16 20 6 -4
BITMAP
C006
6006
600E
300C
300C
3018
1818
1830
0C30
0C60
0E60
0660
06C0
03C0
0380
0180
0000
0000
FFFF
FFFF
ENDCHAR
STARTCHAR 2302
ENCODING 8962
SWIDTH 612 0
DWIDTH 17 0
BBX 15 20 1 0
BITMAP
0100
0380
0680
04C0
0C60
1830
3018
6008
400C
C006
C006
C006
C006
C006
C006
C006
C006
C006
C006
FFFE
ENDCHAR
STARTCHAR 2310
ENCODING 8976
SWIDTH 576 0
DWIDTH 16 0
BBX 14 8 1 2
BITMAP
FFFC
FFFC
C000
C000
C000
C000
C000
C000
ENDCHAR
STARTCHAR 2320
ENCODING 8992
SWIDTH 612 0
DWIDTH 17 0
BBX 5 31 7 -6
BITMAP
38
78
50
40
40
40
C0
C0
C0
C0
C0
C0
C0
C0
C0
C0
C0
C0
C0
C0
C0
C0
C0
C0
C0
C0
C0
C0
C0
C0
C0
ENDCHAR
STARTCHAR 2321
ENCODING 8993
SWIDTH 612 0
DWIDTH 17 0
BBX 4 31 5 -6
BITMAP
30
30
30
30
30
30
30
30
30
30
30
30
30
30
30
30
30
30
30
30
30
30
30
10
10
10
10
10
D0
E0
E0
ENDCHAR
STARTCHAR 2329
ENCODING 9001
SWIDTH 324 0
DWIDTH 9 0
BBX 6 20 2 -3
BITMAP
04
08
08
18
10
30
20
60
60
C0
C0
C0
60
60
30
30
10
18
08
08
ENDCHAR
STARTCHAR 232A
ENCODING 9002
SWIDTH 324 0
DWIDTH 9 0
BBX 6 20 2 -3
BITMAP
80
80
C0
40
60
60
30
30
18
18
1C
18
18
30
30
60
60
40
80
80
ENDCHAR
STARTCHAR 2500
ENCODING 9472
SWIDTH 1008 0
DWIDTH 28 0
BBX 28 2 0 6
BITMAP
FFFFFFF0
FFFFFFF0
ENDCHAR
STARTCHAR 2502
ENCODING 9474
SWIDTH 1008 0
DWIDTH 28 0
BBX 2 28 13 -7
BITMAP
C0
C0
C0
C0
C0
C0
C0
C0
C0
C0
C0
C0
C0
C0
C0
C0
C0
C0
C0
C0
C0
C0
C0
C0
C0
C0
C0
C0
ENDCHAR
STARTCHAR 250C
ENCODING 9484
SWIDTH 1008 0
DWIDTH 28 0
BBX 15 15 13 -7
BITMAP
FFFE
FFFE
C000
C000
C000
C000
C000
C000
C000
C000
C000
C000
C000
C000
C000
ENDCHAR
STARTCHAR 2510
ENCODING 9488
SWIDTH 1008 0
DWIDTH 28 0
BBX 15 15 0 -7
BITMAP
FFFE
FFFE
0006
0006
0006
0006
0006
0006
0006
0006
0006
0006
0006
0006
0006
ENDCHAR
STARTCHAR 2514
ENCODING 9492
SWIDTH 1008 0
DWIDTH 28 0
BBX 15 15 13 6
BITMAP
C000
C000
C000
C000
C000
C000
C000
C000
C000
C000
C000
C000
C000
FFFE
FFFE
ENDCHAR
STARTCHAR 2518
ENCODING 9496
SWIDTH 1008 0
DWIDTH 28 0
BBX 15 15 0 6
BITMAP
0006
0006
0006
0006
0006
0006
0006
0006
0006
0006
0006
0006
0006
FFFE
FFFE
ENDCHAR
STARTCHAR 251C
ENCODING 9500
SWIDTH 1008 0
DWIDTH 28 0
BBX 15 28 13 -7
BITMAP
C000
C000
C000
C000
C000
C000
C000
C000
C000
C000
C000
C000
C000
FFFE
FFFE
C000
C000
C000
C000
C000
C000
C000
C000
C000
C000
C000
C000
C000
ENDCHAR
STARTCHAR 2524
ENCODING 9508
SWIDTH 1008 0
DWIDTH 28 0
BBX 15 28 0 -7
BITMAP
0006
0006
0006
0006
0006
0006
0006
0006
0006
0006
0006
0006
0006
FFFE
FFFE
0006
0006
0006
0006
0006
0006
0006
0006
0006
0006
0006
0006
0006
ENDCHAR
STARTCHAR 252C
ENCODING 9516
SWIDTH 1008 0
DWIDTH 28 0
BBX 28 15 0 -7
BITMAP
FFFFFFF0
FFFFFFF0
00060000
00060000
00060000
00060000
00060000
00060000
00060000
00060000
00060000
00060000
00060000
00060000
00060000
ENDCHAR
STARTCHAR 2534
ENCODING 9524
SWIDTH 1008 0
DWIDTH 28 0
BBX 28 15 0 6
BITMAP
00060000
00060000
00060000
00060000
00060000
00060000
00060000
00060000
00060000
00060000
00060000
00060000
00060000
FFFFFFF0
FFFFFFF0
ENDCHAR
STARTCHAR 253C
ENCODING 9532
SWIDTH 1008 0
DWIDTH 28 0
BBX 28 28 0 -7
BITMAP
00060000
00060000
00060000
00060000
00060000
00060000
00060000
00060000
00060000
00060000
00060000
00060000
00060000
FFFFFFF0
FFFFFFF0
00060000
00060000
00060000
00060000
00060000
00060000
00060000
00060000
00060000
00060000
00060000
00060000
00060000
ENDCHAR
STARTCHAR 2550
ENCODING 9552
SWIDTH 1008 0
DWIDTH 28 0
BBX 28 6 0 4
BITMAP
FFFFFFF0
FFFFFFF0
00000000
00000000
FFFFFFF0
FFFFFFF0
ENDCHAR
STARTCHAR 2551
ENCODING 9553
SWIDTH 1008 0
DWIDTH 28 0
BBX 6 28 11 -7
BITMAP
CC
CC
CC
CC
CC
CC
CC
CC
CC
CC
CC
CC
CC
CC
CC
CC
CC
CC
CC
CC
CC
CC
CC
CC
CC
CC
CC
CC
ENDCHAR
STARTCHAR 2552
ENCODING 9554
SWIDTH 1008 0
DWIDTH 28 0
BBX 15 17 13 -7
BITMAP
FFFE
FFFE
C000
C000
FFFE
FFFE
C000
C000
C000
C000
C000
C000
C000
C000
C000
C000
C000
ENDCHAR
STARTCHAR 2553
ENCODING 9555
SWIDTH 1008 0
DWIDTH 28 0
BBX 17 15 11 -7
BITMAP
FFFF80
FFFF80
CC0000
CC0000
CC0000
CC0000
CC0000
CC0000
CC0000
CC0000
CC0000
CC0000
CC0000
CC0000
CC0000
ENDCHAR
STARTCHAR 2554
ENCODING 9556
SWIDTH 1008 0
DWIDTH 28 0
BBX 17 17 11 -7
BITMAP
FFFF80
FFFF80
C00000
C00000
CFFF80
CFFF80
CC0000
CC0000
CC0000
CC0000
CC0000
CC0000
CC0000
CC0000
CC0000
CC0000
CC0000
ENDCHAR
STARTCHAR 2555
ENCODING 9557
SWIDTH 1008 0
DWIDTH 28 0
BBX 15 17 0 -7
BITMAP
FFFE
FFFE
0006
0006
FFFE
FFFE
0006
0006
0006
0006
0006
0006
0006
0006
0006
0006
0006
ENDCHAR
STARTCHAR 2556
ENCODING 9558
SWIDTH 1008 0
DWIDTH 28 0
BBX 17 15 0 -7
BITMAP
FFFF80
FFFF80
001980
001980
001980
001980
001980
001980
001980
001980
001980
001980
001980
001980
001980
ENDCHAR
STARTCHAR 2557
ENCODING 9559
SWIDTH 1008 0
DWIDTH 28 0
BBX 17 17 0 -7
BITMAP
FFFF80
FFFF80
000180
000180
FFF980
FFF980
001980
001980
001980
001980
001980
001980
001980
001980
001980
001980
001980
ENDCHAR
STARTCHAR 2558
ENCODING 9560
SWIDTH 1008 0
DWIDTH 28 0
BBX 15 17 13 4
BITMAP
C000
C000
C000
C000
C000
C000
C000
C000
C000
C000
C000
FFFE
FFFE
C000
C000
FFFE
FFFE
ENDCHAR
STARTCHAR 2559
ENCODING 9561
SWIDTH 1008 0
DWIDTH 28 0
BBX 17 15 11 6
BITMAP
CC0000
CC0000
CC0000
CC0000
CC0000
CC0000
CC0000
CC0000
CC0000
CC0000
CC0000
CC0000
CC0000
FFFF80
FFFF80
ENDCHAR
STARTCHAR 255A
ENCODING 9562
SWIDTH 1008 0
DWIDTH 28 0
BBX 17 17 11 4
BITMAP
CC0000
CC0000
CC0000
CC0000
CC0000
CC0000
CC0000
CC0000
CC0000
CC0000
CC0000
CFFF80
CFFF80
C00000
C00000
FFFF80
FFFF80
ENDCHAR
STARTCHAR 255B
ENCODING 9563
SWIDTH 1008 0
DWIDTH 28 0
BBX 15 17 0 4
BITMAP
0006
0006
0006
0006
0006
0006
0006
0006
0006
0006
0006
FFFE
FFFE
0006
0006
FFFE
FFFE
ENDCHAR
STARTCHAR 255C
ENCODING 9564
SWIDTH 1008 0
DWIDTH 28 0
BBX 17 15 0 6
BITMAP
001980
001980
001980
001980
001980
001980
001980
001980
001980
001980
001980
001980
001980
FFFF80
FFFF80
ENDCHAR
STARTCHAR 255D
ENCODING 9565
SWIDTH 1008 0
DWIDTH 28 0
BBX 17 17 0 4
BITMAP
001980
001980
001980
001980
001980
001980
001980
001980
001980
001980
001980
FFF980
FFF980
000180
000180
FFFF80
FFFF80
ENDCHAR
STARTCHAR 255E
ENCODING 9566
SWIDTH 1008 0
DWIDTH 28 0
BBX 15 28 13 -7
BITMAP
C000
C000
C000
C000
C000
C000
C000
C000
C000
C000
C000
FFFE
FFFE
C000
C000
FFFE
FFFE
C000
C000
C000
C000
C000
C000
C000
C000
C000
C000
C000
ENDCHAR
STARTCHAR 255F
ENCODING 9567
SWIDTH 1008 0
DWIDTH 28 0
BBX 17 28 11 -7
BITMAP
CC0000
CC0000
CC0000
CC0000
CC0000
CC0000
CC0000
CC0000
CC0000
CC0000
CC0000
CC0000
CC0000
CFFF80
CFFF80
CC0000
CC0000
CC0000
CC0000
CC0000
CC0000
CC0000
CC0000
CC0000
CC0000
CC0000
CC0000
CC0000
ENDCHAR
STARTCHAR 2560
ENCODING 9568
SWIDTH 1008 0
DWIDTH 28 0
BBX 17 28 11 -7
BITMAP
CC0000
CC0000
CC0000
CC0000
CC0000
CC0000
CC0000
CC0000
CC0000
CC0000
CC0000
CFFF80
CFFF80
C00000
C00000
CFFF80
CFFF80
CC0000
CC0000
CC0000
CC0000
CC0000
CC0000
CC0000
CC0000
CC0000
CC0000
CC0000
ENDCHAR
STARTCHAR 2561
ENCODING 9569
SWIDTH 1008 0
DWIDTH 28 0
BBX 15 28 0 -7
BITMAP
0006
0006
0006
0006
0006
0006
0006
0006
0006
0006
0006
FFFE
FFFE
0006
0006
FFFE
FFFE
0006
0006
0006
0006
0006
0006
0006
0006
0006
0006
0006
ENDCHAR
STARTCHAR 2562
ENCODING 9570
SWIDTH 1008 0
DWIDTH 28 0
BBX 17 28 0 -7
BITMAP
001980
001980
001980
001980
001980
001980
001980
001980
001980
001980
001980
001980
001980
FFF980
FFF980
001980
001980
001980
001980
001980
001980
001980
001980
001980
001980
001980
001980
001980
ENDCHAR
STARTCHAR 2563
ENCODING 9571
SWIDTH 1008 0
DWIDTH 28 0
BBX 17 28 0 -7
BITMAP
001980
001980
001980
001980
001980
001980
001980
001980
001980
001980
001980
FFF980
FFF980
000180
000180
FFF980
FFF980
001980
001980
001980
001980
001980
001980
001980
001980
001980
001980
001980
ENDCHAR
STARTCHAR 2564
ENCODING 9572
SWIDTH 1008 0
DWIDTH 28 0
BBX 28 17 0 -7
BITMAP
FFFFFFF0
FFFFFFF0
00000000
00000000
FFFFFFF0
FFFFFFF0
00060000
00060000
00060000
00060000
00060000
00060000
00060000
00060000
00060000
00060000
00060000
ENDCHAR
STARTCHAR 2565
ENCODING 9573
SWIDTH 1008 0
DWIDTH 28 0
BBX 28 15 0 -7
BITMAP
FFFFFFF0
FFFFFFF0
00198000
00198000
00198000
00198000
00198000
00198000
00198000
00198000
00198000
00198000
00198000
00198000
00198000
ENDCHAR
STARTCHAR 2566
ENCODING 9574
SWIDTH 1008 0
DWIDTH 28 0
BBX 28 17 0 -7
BITMAP
FFFFFFF0
FFFFFFF0
00000000
00000000
FFF9FFF0
FFF9FFF0
00198000
00198000
00198000
00198000
00198000
00198000
00198000
00198000
00198000
00198000
00198000
ENDCHAR
STARTCHAR 2567
ENCODING 9575
SWIDTH 1008 0
DWIDTH 28 0
BBX 28 17 0 4
BITMAP
00060000
00060000
00060000
00060000
00060000
00060000
00060000
00060000
00060000
00060000
00060000
FFFFFFF0
FFFFFFF0
00000000
00000000
FFFFFFF0
FFFFFFF0
ENDCHAR
STARTCHAR 2568
ENCODING 9576
SWIDTH 1008 0
DWIDTH 28 0
BBX 28 15 0 6
BITMAP
00198000
00198000
00198000
00198000
00198000
00198000
00198000
00198000
00198000
00198000
00198000
00198000
00198000
FFFFFFF0
FFFFFFF0
ENDCHAR
STARTCHAR 2569
ENCODING 9577
SWIDTH 1008 0
DWIDTH 28 0
BBX 28 17 0 4
BITMAP
00198000
00198000
00198000
00198000
00198000
00198000
00198000
00198000
00198000
00198000
00198000
FFF9FFF0
FFF9FFF0
00000000
00000000
FFFFFFF0
FFFFFFF0
ENDCHAR
STARTCHAR 256A
ENCODING 9578
SWIDTH 1008 0
DWIDTH 28 0
BBX 28 28 0 -7
BITMAP
00060000
00060000
00060000
00060000
00060000
00060000
00060000
00060000
00060000
00060000
00060000
FFFFFFF0
FFFFFFF0
00060000
00060000
FFFFFFF0
FFFFFFF0
00060000
00060000
00060000
00060000
00060000
00060000
00060000
00060000
00060000
00060000
00060000
ENDCHAR
STARTCHAR 256B
ENCODING 9579
SWIDTH 1008 0
DWIDTH 28 0
BBX 28 28 0 -7
BITMAP
00198000
00198000
00198000
00198000
00198000
00198000
00198000
00198000
00198000
00198000
00198000
00198000
00198000
FFFFFFF0
FFFFFFF0
00198000
00198000
00198000
00198000
00198000
00198000
00198000
00198000
00198000
00198000
00198000
00198000
00198000
ENDCHAR
STARTCHAR 256C
ENCODING 9580
SWIDTH 1008 0
DWIDTH 28 0
BBX 28 28 0 -7
BITMAP
00198000
00198000
00198000
00198000
00198000
00198000
00198000
00198000
00198000
00198000
00198000
FFF9FFF0
FFF9FFF0
00000000
00000000
FFF9FFF0
FFF9FFF0
00198000
00198000
00198000
00198000
00198000
00198000
00198000
00198000
00198000
00198000
00198000
ENDCHAR
STARTCHAR 256D
ENCODING 9581
SWIDTH 1008 0
DWIDTH 28 0
BBX 15 15 13 -7
BITMAP
003E
03FE
0F80
1C00
3800
3000
6000
6000
C000
C000
C000
C000
C000
C000
C000
ENDCHAR
STARTCHAR 256E
ENCODING 9582
SWIDTH 1008 0
DWIDTH 28 0
BBX 15 15 0 -7
BITMAP
F800
FF80
03C0
00E0
0030
0018
000C
000C
000C
0004
0006
0006
0006
0006
0006
ENDCHAR
STARTCHAR 256F
ENCODING 9583
SWIDTH 1008 0
DWIDTH 28 0
BBX 15 15 0 6
BITMAP
0006
0006
0006
0006
0006
0004
000C
000C
000C
0018
0038
0070
01E0
FF80
FC00
ENDCHAR
STARTCHAR 2570
ENCODING 9584
SWIDTH 1008 0
DWIDTH 28 0
BBX 15 15 13 6
BITMAP
C000
C000
C000
C000
C000
C000
C000
6000
6000
7000
3800
1C00
0F00
03FE
00FE
ENDCHAR
STARTCHAR 2580
ENCODING 9600
SWIDTH 1008 0
DWIDTH 28 0
BBX 28 14 0 7
BITMAP
FFFFFFF0
FFFFFFF0
FFFFFFF0
FFFFFFF0
FFFFFFF0
FFFFFFF0
FFFFFFF0
FFFFFFF0
FFFFFFF0
FFFFFFF0
FFFFFFF0
FFFFFFF0
FFFFFFF0
FFFFFFF0
ENDCHAR
STARTCHAR 2584
ENCODING 9604
SWIDTH 1008 0
DWIDTH 28 0
BBX 28 14 0 -7
BITMAP
FFFFFFF0
FFFFFFF0
FFFFFFF0
FFFFFFF0
FFFFFFF0
FFFFFFF0
FFFFFFF0
FFFFFFF0
FFFFFFF0
FFFFFFF0
FFFFFFF0
FFFFFFF0
FFFFFFF0
FFFFFFF0
ENDCHAR
STARTCHAR 2588
ENCODING 9608
SWIDTH 1008 0
DWIDTH 28 0
BBX 28 28 0 -7
BITMAP
FFFFFFF0
FFFFFFF0
FFFFFFF0
FFFFFFF0
FFFFFFF0
FFFFFFF0
FFFFFFF0
FFFFFFF0
FFFFFFF0
FFFFFFF0
FFFFFFF0
FFFFFFF0
FFFFFFF0
FFFFFFF0
FFFFFFF0
FFFFFFF0
FFFFFFF0
FFFFFFF0
FFFFFFF0
FFFFFFF0
FFFFFFF0
FFFFFFF0
FFFFFFF0
FFFFFFF0
FFFFFFF0
FFFFFFF0
FFFFFFF0
FFFFFFF0
ENDCHAR
STARTCHAR 258C
ENCODING 9612
SWIDTH 1008 0
DWIDTH 28 0
BBX 14 28 0 -7
BITMAP
FFFC
FFFC
FFFC
FFFC
FFFC
FFFC
FFFC
FFFC
FFFC
FFFC
FFFC
FFFC
FFFC
FFFC
FFFC
FFFC
FFFC
FFFC
FFFC
FFFC
FFFC
FFFC
FFFC
FFFC
FFFC
FFFC
FFFC
FFFC
ENDCHAR
STARTCHAR 2590
ENCODING 9616
SWIDTH 1008 0
DWIDTH 28 0
BBX 14 28 14 -7
BITMAP
FFFC
FFFC
FFFC
FFFC
FFFC
FFFC
FFFC
FFFC
FFFC
FFFC
FFFC
FFFC
FFFC
FFFC
FFFC
FFFC
FFFC
FFFC
FFFC
FFFC
FFFC
FFFC
FFFC
FFFC
FFFC
FFFC
FFFC
FFFC
ENDCHAR
STARTCHAR 2591
ENCODING 9617
SWIDTH 1008 0
DWIDTH 28 0
BBX 23 23 1 -2
BITMAP
F87C3E
F87C3E
F87C3E
F87C3E
F87C3E
000000
000000
000000
000000
F87C3E
F87C3E
F87C3E
F87C3E
F87C3E
000000
000000
000000
000000
F87C3E
F87C3E
F87C3E
F87C3E
F87C3E
ENDCHAR
STARTCHAR 2592
ENCODING 9618
SWIDTH 1008 0
DWIDTH 28 0
BBX 28 28 0 -7
BITMAP
F87C3E00
F87C3E00
F87C3E00
F87C3E00
F87C3E00
0783C1F0
0783C1F0
0783C1F0
0783C1F0
F87C3E00
F87C3E00
F87C3E00
F87C3E00
F87C3E00
0783C1F0
0783C1F0
0783C1F0
0783C1F0
0783C1F0
F87C3E00
F87C3E00
F87C3E00
F87C3E00
0783C1F0
0783C1F0
0783C1F0
0783C1F0
0783C1F0
ENDCHAR
STARTCHAR 2593
ENCODING 9619
SWIDTH 1008 0
DWIDTH 28 0
BBX 28 28 0 -7
BITMAP
FFFFFFF0
FFFFFFF0
FFFFFFF0
FFFFFFF0
FFFFFFF0
F87C3E00
F87C3E00
F87C3E00
F87C3E00
FFFFFFF0
FFFFFFF0
FFFFFFF0
FFFFFFF0
FFFFFFF0
F87C3E00
F87C3E00
F87C3E00
F87C3E00
FFFFFFF0
FFFFFFF0
FFFFFFF0
FFFFFFF0
FFFFFFF0
F87C3E00
F87C3E00
F87C3E00
F87C3E00
F87C3E00
ENDCHAR
STARTCHAR 25A0
ENCODING 9632
SWIDTH 612 0
DWIDTH 17 0
BBX 21 20 -2 0
BITMAP
FFFFF8
FFFFF8
FFFFF8
FFFFF8
FFFFF8
FFFFF8
FFFFF8
FFFFF8
FFFFF8
FFFFF8
FFFFF8
FFFFF8
FFFFF8
FFFFF8
FFFFF8
FFFFF8
FFFFF8
FFFFF8
FFFFF8
FFFFF8
ENDCHAR
STARTCHAR 25A1
ENCODING 9633
SWIDTH 612 0
DWIDTH 17 0
BBX 15 14 1 0
BITMAP
FFFE
C006
C006
C006
C006
C006
C006
C006
C006
C006
C006
C006
C006
FFFE
ENDCHAR
STARTCHAR 25AA
ENCODING 9642
SWIDTH 360 0
DWIDTH 10 0
BBX 7 7 1 4
BITMAP
FE
FE
FE
FE
FE
FE
FE
ENDCHAR
STARTCHAR 25AB
ENCODING 9643
SWIDTH 360 0
DWIDTH 10 0
BBX 7 7 1 4
BITMAP
FE
C2
C2
C2
C2
C2
FE
ENDCHAR
STARTCHAR 25AC
ENCODING 9644
SWIDTH 1008 0
DWIDTH 28 0
BBX 20 10 4 0
BITMAP
FFFFF0
FFFFF0
FFFFF0
FFFFF0
FFFFF0
FFFFF0
FFFFF0
FFFFF0
FFFFF0
FFFFF0
ENDCHAR
STARTCHAR 25B2
ENCODING 9650
SWIDTH 1008 0
DWIDTH 28 0
BBX 16 15 6 2
BITMAP
0100
0180
0380
03C0
07C0
07E0
0FE0
0FF0
1FF8
3FF8
3FFC
7FFC
7FFE
FFFE
FFFF
ENDCHAR
STARTCHAR 25B5
ENCODING 9653
SWIDTH 720 0
DWIDTH 20 0
BBX 12 13 4 1
BITMAP
0400
0600
0600
0F00
0F00
1980
1180
30C0
20C0
6060
4060
FFF0
FFF0
ENDCHAR
STARTCHAR 25B9
ENCODING 9657
SWIDTH 720 0
DWIDTH 20 0
BBX 12 13 4 1
BITMAP
8000
E000
F800
9E00
8780
81E0
8070
81C0
8700
9E00
F800
E000
8000
ENDCHAR
STARTCHAR 25BA
ENCODING 9658
SWIDTH 1008 0
DWIDTH 28 0
BBX 16 11 6 4
BITMAP
C000
F800
FF00
FFC0
FFF8
FFFF
FFFC
FFE0
FF00
F800
C000
ENDCHAR
STARTCHAR 25BC
ENCODING 9660
SWIDTH 1008 0
DWIDTH 28 0
BBX 17 15 5 1
BITMAP
FFFF80
7FFF00
3FFF00
3FFE00
1FFE00
1FFC00
0FFC00
0FF800
07F800
07F000
03F000
03E000
01E000
01C000
00C000
ENDCHAR
STARTCHAR 25BF
ENCODING 9663
SWIDTH 720 0
DWIDTH 20 0
BBX 12 13 4 1
BITMAP
FFF0
FFF0
6060
6060
30C0
30C0
1180
1980
0B00
0F00
0600
0600
0400
ENDCHAR
STARTCHAR 25C3
ENCODING 9667
SWIDTH 720 0
DWIDTH 20 0
BBX 12 13 4 1
BITMAP
0010
0070
01F0
0790
1E10
7810
E010
3810
1E10
0790
01F0
0070
0010
ENDCHAR
STARTCHAR 25C4
ENCODING 9668
SWIDTH 1008 0
DWIDTH 28 0
BBX 16 11 5 4
BITMAP
0001
000F
007F
03FF
1FFF
FFFF
1FFF
03FF
007F
001F
0003
ENDCHAR
STARTCHAR 25C6
ENCODING 9670
SWIDTH 1008 0
DWIDTH 28 0
BBX 14 15 7 1
BITMAP
0300
0780
0F80
0FC0
1FE0
3FF0
7FF8
FFFC
FFFC
7FF8
3FF0
1FE0
0FC0
0780
0300
ENDCHAR
STARTCHAR 25C7
ENCODING 9671
SWIDTH 1008 0
DWIDTH 28 0
BBX 18 19 5 0
BITMAP
008000
01C000
012000
021000
040800
080400
100200
200300
400180
C000C0
400180
200300
100600
080400
040800
021000
012000
00C000
008000
ENDCHAR
STARTCHAR 25CA
ENCODING 9674
SWIDTH 468 0
DWIDTH 13 0
BBX 12 21 0 0
BITMAP
0600
0700
0D00
0D80
1880
18C0
3040
3060
6020
6030
C010
4030
6030
2060
3060
10C0
18C0
0980
0D80
0700
0700
ENDCHAR
STARTCHAR 25CB
ENCODING 9675
SWIDTH 612 0
DWIDTH 17 0
BBX 15 15 1 3
BITMAP
07C0
1E70
3018
600C
C004
8006
8002
8002
8002
8002
C006
4004
6008
3830
0FE0
ENDCHAR
STARTCHAR 25CF
ENCODING 9679
SWIDTH 612 0
DWIDTH 17 0
BBX 15 14 1 0
BITMAP
0FE0
1FF0
3FF8
7FFC
7FFC
FFFE
FFFE
FFFE
FFFC
7FFC
7FFC
3FF8
1FF0
07C0
ENDCHAR
STARTCHAR 25D8
ENCODING 9688
SWIDTH 612 0
DWIDTH 17 0
BBX 17 17 0 0
BITMAP
FFFF80
FFFF80
FFFF80
FFFF80
FFFF80
FE3F80
FC1F80
F80F80
F80F80
F80F80
FC1F80
FE3F80
FFFF80
FFFF80
FFFF80
FFFF80
FFFF80
ENDCHAR
STARTCHAR 25D9
ENCODING 9689
SWIDTH 612 0
DWIDTH 17 0
BBX 21 20 -2 0
BITMAP
FFFFF8
FFFFF8
FF07F8
FC71F8
F9FCF8
F3FE78
E7FF78
EFFF38
EFFFB8
EFFFB8
EFFFB8
EFFFB8
E7FF38
F7FE78
F3FCF8
F8F8F8
FE03F8
FFFFF8
FFFFF8
FFFFF8
ENDCHAR
STARTCHAR 25E6
ENCODING 9702
SWIDTH 504 0
DWIDTH 14 0
BBX 10 11 2 2
BITMAP
1E00
7F80
E180
C0C0
80C0
8040
80C0
C0C0
6180
3F00
0800
ENDCHAR
STARTCHAR 263A
ENCODING 9786
SWIDTH 1008 0
DWIDTH 28 0
BBX 20 20 4 0
BITMAP
01F800
079F00
0C0380
1800C0
300060
600020
430C30
C38E10
C30410
800010
900090
C80110
CC0310
470E30
63FC20
20F860
3000C0
1C0180
078E00
01F800
ENDCHAR
STARTCHAR 263B
ENCODING 9787
SWIDTH 1044 0
DWIDTH 29 0
BBX 20 20 5 0
BITMAP
01F800
0FFE00
1FFF00
3FFF80
7FFFC0
7FFFE0
F8E3E0
F8E3E0
FDF7F0
FFFFF0
EFFFF0
EFFEF0
F7FCF0
F1F1E0
7803E0
7E0FC0
3FFF80
1FFF00
0FFE00
03F800
ENDCHAR
STARTCHAR 263C
ENCODING 9788
SWIDTH 900 0
DWIDTH 25 0
BBX 21 21 2 0
BITMAP
003000
003000
003040
18F8E0
0FFFC0
078780
060380
0C0180
0C00C0
FC00F8
FC00F8
0C00C0
0C01C0
0E0180
070380
0FFF80
1DFEC0
183060
003000
003000
003000
ENDCHAR
STARTCHAR 2640
ENCODING 9792
SWIDTH 756 0
DWIDTH 21 0
BBX 11 19 5 1
BITMAP
1F00
3F80
60C0
4040
C040
C040
4040
60C0
3B80
1F00
0400
0400
0400
FFE0
0400
0400
0400
0400
0400
ENDCHAR
STARTCHAR 2642
ENCODING 9794
SWIDTH 756 0
DWIDTH 21 0
BBX 15 16 3 4
BITMAP
00FE
003E
000E
0016
0026
0042
3F82
6180
40C0
C0C0
8040
8040
C0C0
4080
7300
1E00
ENDCHAR
STARTCHAR 2660
ENCODING 9824
SWIDTH 540 0
DWIDTH 15 0
BBX 17 21 0 0
BITMAP
008000
008000
008000
01C000
03E000
07F000
0FF800
1FFC00
3FFE00
7FFF00
7FFF00
FFFF80
FFFF80
FFFF80
7EFF00
3CBE00
008000
01C000
01C000
07F000
3FFE00
ENDCHAR
STARTCHAR 2663
ENCODING 9827
SWIDTH 648 0
DWIDTH 18 0
BBX 20 20 -1 0
BITMAP
00F000
01FC00
03FC00
03FE00
03FE00
03FC00
03FC00
3FFFE0
7FFFF0
FFFFF0
FFFFF0
FFFFF0
FFDFF0
7FDFF0
3F27E0
086100
007000
00F000
01FC00
1FFF80
ENDCHAR
STARTCHAR 2665
ENCODING 9829
SWIDTH 612 0
DWIDTH 17 0
BBX 18 20 -1 -1
BITMAP
1C0F00
7F1F80
7FBFC0
FFFFC0
FFFFC0
FFFFC0
7FFFC0
7FFF80
3FFF80
3FFF00
1FFF00
0FFE00
07FC00
07F800
03F800
01F000
01E000
00E000
00C000
004000
ENDCHAR
STARTCHAR 2666
ENCODING 9830
SWIDTH 504 0
DWIDTH 14 0
BBX 15 22 0 -1
BITMAP
0100
0100
0380
07C0
07C0
0FE0
1FF0
3FF8
3FF8
7FFC
FFFE
FFFE
7FFC
3FF8
1FF0
1FF0
0FE0
07C0
0780
0380
0100
0100
ENDCHAR
STARTCHAR 266A
ENCODING 9834
SWIDTH 504 0
DWIDTH 14 0
BBX 11 20 1 0
BITMAP
0200
0200
0200
0300
0380
03C0
02C0
0260
0260
0220
0220
0220
0220
0220
0240
3E00
7E00
FC00
FC00
3000
ENDCHAR
STARTCHAR 266B
ENCODING 9835
SWIDTH 756 0
DWIDTH 21 0
BBX 16 19 2 -1
BITMAP
0700
07FE
07FF
041F
0403
0403
0403
0403
0403
0403
0403
0403
1403
7C03
7C1F
FC3F
783E
003E
0018
ENDCHAR
STARTCHAR 301A
ENCODING 12314
SWIDTH 720 0
DWIDTH 20 0
BBX 8 27 6 -5
BITMAP
FF
FF
C8
C8
C8
C8
C8
C8
C8
C8
C8
C8
C8
C8
C8
C8
C8
C8
C8
C8
C8
C8
C8
C8
C8
FF
FF
ENDCHAR
STARTCHAR 301B
ENCODING 12315
SWIDTH 720 0
DWIDTH 20 0
BBX 8 27 6 -5
BITMAP
FF
FF
13
13
13
13
13
13
13
13
13
13
13
13
13
13
13
13
13
13
13
13
13
13
13
FF
FF
ENDCHAR
STARTCHAR EFBF
ENCODING 61375
SWIDTH 720 0
DWIDTH 20 0
BBX 25 24 -4 0
BITMAP
00000100
00000380
00000700
00000600
00000C00
00001C00
00003800
00003000
04007000
1C00E000
7C01C000
CE018000
06038000
06070000
07060000
030C0000
031C0000
03380000
01B00000
01E00000
01E00000
01C00000
00800000
00800000
ENDCHAR
STARTCHAR EFC0
ENCODING 61376
SWIDTH 720 0
DWIDTH 20 0
BBX 13 30 0 -5
BITMAP
0198
0198
0198
0198
0198
0198
0198
0198
0198
0198
0198
0198
0198
0198
0198
0198
0198
0198
0198
0198
0198
0198
0198
0198
0198
0198
0198
0198
FFF8
FFF8
ENDCHAR
STARTCHAR EFC1
ENCODING 61377
SWIDTH 720 0
DWIDTH 20 0
BBX 13 30 0 -6
BITMAP
FFF8
FFF8
0198
0198
0198
0198
0198
0198
0198
0198
0198
0198
0198
0198
0198
0198
0198
0198
0198
0198
0198
0198
0198
0198
0198
0198
0198
0198
0198
0198
ENDCHAR
STARTCHAR EFC2
ENCODING 61378
SWIDTH 720 0
DWIDTH 20 0
BBX 20 28 0 -7
BITMAP
FFFFF0
FFFFF0
600060
600060
600060
600060
600060
600060
600060
600060
600060
600060
600060
600060
600060
600060
600060
600060
600060
600060
600060
600060
600060
600060
600060
600060
600060
600060
ENDCHAR
STARTCHAR EFC3
ENCODING 61379
SWIDTH 720 0
DWIDTH 20 0
BBX 20 28 0 -7
BITMAP
600060
600060
600060
600060
600060
600060
600060
600060
600060
600060
600060
600060
600060
600060
600060
600060
600060
600060
600060
600060
600060
600060
600060
600060
600060
600060
FFFFF0
FFFFF0
ENDCHAR
STARTCHAR EFC4
ENCODING 61380
SWIDTH 720 0
DWIDTH 20 0
BBX 13 30 7 -5
BITMAP
CC00
CC00
CC00
CC00
CC00
CC00
CC00
CC00
CC00
CC00
CC00
CC00
CC00
CC00
CC00
CC00
CC00
CC00
CC00
CC00
CC00
CC00
CC00
CC00
CC00
CC00
CC00
CC00
FFF8
FFF8
ENDCHAR
STARTCHAR EFC5
ENCODING 61381
SWIDTH 720 0
DWIDTH 20 0
BBX 13 30 7 -6
BITMAP
FFF8
FFF8
CC00
CC00
CC00
CC00
CC00
CC00
CC00
CC00
CC00
CC00
CC00
CC00
CC00
CC00
CC00
CC00
CC00
CC00
CC00
CC00
CC00
CC00
CC00
CC00
CC00
CC00
CC00
CC00
ENDCHAR
STARTCHAR EFC6
ENCODING 61382
SWIDTH 720 0
DWIDTH 20 0
BBX 18 28 1 -7
BITMAP
03F000
0FFC00
1C0F00
300300
700180
600180
6001C0
C000C0
C000C0
C000C0
C000C0
C000C0
C000C0
C000C0
C000C0
C000C0
C000C0
C000C0
C000C0
C000C0
C000C0
C000C0
C000C0
C000C0
C000C0
C000C0
C000C0
C000C0
ENDCHAR
STARTCHAR EFC7
ENCODING 61383
SWIDTH 720 0
DWIDTH 20 0
BBX 18 28 1 -7
BITMAP
C000C0
C000C0
C000C0
C000C0
C000C0
C000C0
C000C0
C000C0
C000C0
C000C0
C000C0
C000C0
C000C0
C000C0
C000C0
C000C0
C000C0
C000C0
C000C0
C000C0
C000C0
E000C0
600180
600180
300300
1C0F00
0FFC00
03F000
ENDCHAR
STARTCHAR EFC8
ENCODING 61384
SWIDTH 720 0
DWIDTH 20 0
BBX 18 28 1 -7
BITMAP
C000C0
C000C0
C000C0
C000C0
C000C0
C000C0
C000C0
C000C0
C000C0
C000C0
C000C0
C000C0
C000C0
C000C0
C000C0
C000C0
C000C0
C000C0
C000C0
C000C0
C000C0
C000C0
C000C0
C000C0
C000C0
C000C0
C000C0
C000C0
ENDCHAR
STARTCHAR EFC9
ENCODING 61385
SWIDTH 720 0
DWIDTH 20 0
BBX 6 30 7 -5
BITMAP
CC
CC
CC
CC
CC
CC
CC
CC
CC
CC
CC
CC
CC
CC
CC
CC
CC
CC
CC
CC
CC
CC
CC
CC
CC
CC
CC
CC
CC
CC
ENDCHAR
STARTCHAR EFCA
ENCODING 61386
SWIDTH 720 0
DWIDTH 20 0
BBX 14 16 3 -2
BITMAP
0200
0300
0300
0780
0480
0CC0
0840
1860
1020
3030
2038
7FF8
FFFC
0000
FFFC
FFFC
ENDCHAR
STARTCHAR EFCB
ENCODING 61387
SWIDTH 720 0
DWIDTH 20 0
BBX 20 6 0 5
BITMAP
FFFFF0
FFFFF0
000000
000000
FFFFF0
FFFFF0
ENDCHAR
STARTCHAR EFCC
ENCODING 61388
SWIDTH 720 0
DWIDTH 20 0
BBX 12 29 9 -5
BITMAP
0020
0070
00E0
00C0
0180
0380
0700
0600
0E00
1C00
1800
3000
7000
E000
C000
E000
7000
3800
1800
1C00
0E00
0600
0300
0380
01C0
00C0
00E0
0070
0020
ENDCHAR
STARTCHAR EFCD
ENCODING 61389
SWIDTH 720 0
DWIDTH 20 0
BBX 21 30 0 -5
BITMAP
800000
800000
C00000
E00000
700000
300000
380000
1C0000
0E0000
060000
070000
038000
018000
01C000
00E000
007000
003000
003800
001C00
000C00
000600
000700
000380
000180
0001C0
0000E0
000070
000030
000038
000010
ENDCHAR
STARTCHAR EFCE
ENCODING 61390
SWIDTH 720 0
DWIDTH 20 0
BBX 19 10 0 -5
BITMAP
0000E0
0000C0
0000C0
0001C0
0001C0
0003C0
0007C0
003F80
FFFF80
FFFF80
ENDCHAR
STARTCHAR EFCF
ENCODING 61391
SWIDTH 720 0
DWIDTH 20 0
BBX 12 30 -1 -5
BITMAP
4000
4000
E000
7000
3000
1800
1C00
0E00
0600
0700
0380
01C0
00C0
00E0
0070
0030
0070
00E0
00C0
0180
0380
0700
0600
0C00
1C00
3800
3000
7000
E000
4000
ENDCHAR
STARTCHAR EFD0
ENCODING 61392
SWIDTH 720 0
DWIDTH 20 0
BBX 18 10 0 14
BITMAP
FFFF00
FFFF00
003F80
000F80
000780
000380
000380
000180
0001C0
0000C0
ENDCHAR
STARTCHAR EFD1
ENCODING 61393
SWIDTH 720 0
DWIDTH 20 0
BBX 22 30 -1 -5
BITMAP
000008
000008
00001C
000038
000030
000070
0000E0
0001C0
000180
000380
000700
000600
000C00
001C00
003800
003000
007000
00E000
01C000
018000
038000
070000
060000
0C0000
1C0000
380000
300000
700000
E00000
400000
ENDCHAR
STARTCHAR EFD2
ENCODING 61394
SWIDTH 720 0
DWIDTH 20 0
BBX 21 30 0 -5
BITMAP
000010
000018
000038
000070
0000E0
0000C0
0001C0
000380
000300
000600
000E00
001C00
001800
003800
007000
006000
00C000
01C000
038000
030000
060000
0E0000
1C0000
180000
380000
700000
600000
C00000
FFFFF0
FFFFF0
ENDCHAR
STARTCHAR EFD3
ENCODING 61395
SWIDTH 720 0
DWIDTH 20 0
BBX 22 29 -1 -5
BITMAP
7FFFF8
FFFFF8
600000
300000
380000
1C0000
0C0000
0E0000
070000
038000
018000
01C000
00E000
006000
003000
003800
001C00
000C00
000600
000700
000380
000180
0001C0
0000E0
000070
000030
000038
00001C
000008
ENDCHAR
STARTCHAR EFD4
ENCODING 61396
SWIDTH 720 0
DWIDTH 20 0
BBX 13 28 4 -7
BITMAP
0700
0700
0700
0700
0700
0700
0700
0700
3FC0
6720
C710
8710
8718
8718
8718
8710
C710
4720
3740
1F80
0700
0700
0700
0700
0700
0700
0700
0700
ENDCHAR
STARTCHAR EFD5
ENCODING 61397
SWIDTH 576 0
DWIDTH 16 0
BBX 14 21 1 -7
BITMAP
0038
03FC
0418
0C00
0800
1800
1800
1800
3800
3FC0
3080
3000
3000
7000
6000
6000
6000
E000
E000
C000
C000
ENDCHAR
STARTCHAR EFD6
ENCODING 61398
SWIDTH 1008 0
DWIDTH 28 0
BBX 20 11 3 8
BITMAP
FF7870
FF78F0
1868F0
186CB0
186CB0
186DB0
1865B0
186730
186730
186730
186330
ENDCHAR
STARTCHAR EFD7
ENCODING 61399
SWIDTH 1008 0
DWIDTH 28 0
BBX 21 21 3 -1
BITMAP
00FC00
070300
0C00C0
100060
200030
207810
40FE08
418708
830208
830008
830008
830008
C30208
41C708
40FE08
203810
300030
100060
0C00C0
070300
00FC00
ENDCHAR
STARTCHAR EFD8
ENCODING 61400
SWIDTH 1008 0
DWIDTH 28 0
BBX 21 21 3 -1
BITMAP
00FC00
070300
0C00C0
100060
200030
21FC10
41FE08
418608
C18608
818608
81FE08
81F808
818C08
418C08
418608
618610
200030
100060
0C00C0
070300
00FC00
ENDCHAR
STARTCHAR EFD9
ENCODING 61401
SWIDTH 1008 0
DWIDTH 28 0
BBX 26 12 1 7
BITMAP
FFDF07C0
EDC70780
8C478700
8C458B00
0C058B00
0C05D300
0C04D300
0C04F300
0C04E300
0C046300
1E0E6780
3F1F0FC0
ENDCHAR
STARTCHAR EFDA
ENCODING 61402
SWIDTH 1008 0
DWIDTH 28 0
BBX 21 21 3 -1
BITMAP
00FC00
030300
0C00C0
180060
300020
207E10
40C618
418208
438208
838008
838008
838008
818208
41C408
407808
600010
200030
100060
0C00C0
070300
00FC00
ENDCHAR
STARTCHAR EFDB
ENCODING 61403
SWIDTH 1008 0
DWIDTH 28 0
BBX 21 21 3 -1
BITMAP
00FC00
030300
0C00C0
100060
200030
23FC10
40C608
40C708
C0C708
80CE08
80F808
80CC08
C0CC08
40C688
43F708
200210
300030
180060
0C00C0
070300
00FC00
ENDCHAR
STARTCHAR EFDC
ENCODING 61404
SWIDTH 720 0
DWIDTH 20 0
BBX 8 31 3 -6
BITMAP
03
03
03
03
03
03
03
03
03
03
03
03
03
03
03
03
03
03
03
03
03
43
E3
63
33
1B
1B
0F
07
07
03
ENDCHAR
STARTCHAR EFDD
ENCODING 61405
SWIDTH 720 0
DWIDTH 20 0
BBX 3 32 9 -7
BITMAP
E0
E0
E0
E0
E0
E0
E0
E0
E0
E0
E0
E0
E0
E0
E0
E0
E0
E0
E0
E0
E0
E0
E0
E0
E0
E0
E0
E0
E0
E0
E0
E0
ENDCHAR
STARTCHAR EFDE
ENCODING 61406
SWIDTH 720 0
DWIDTH 20 0
BBX 8 28 4 -7
BITMAP
07
07
07
07
07
07
07
07
07
07
07
07
07
07
07
07
07
07
07
07
07
06
0E
0E
0E
1C
78
C0
ENDCHAR
STARTCHAR EFDF
ENCODING 61407
SWIDTH 720 0
DWIDTH 20 0
BBX 8 28 9 -7
BITMAP
E0
E0
E0
E0
E0
E0
E0
E0
E0
E0
60
70
38
07
07
38
70
60
E0
E0
E0
E0
E0
E0
E0
E0
E0
E0
ENDCHAR
STARTCHAR EFE0
ENCODING 61408
SWIDTH 720 0
DWIDTH 20 0
BBX 8 28 4 -7
BITMAP
C0
38
1C
0E
0E
0E
06
06
07
07
07
07
07
07
07
07
07
07
07
07
07
07
07
07
07
07
07
07
ENDCHAR
STARTCHAR EFE1
ENCODING 61409
SWIDTH 720 0
DWIDTH 20 0
BBX 7 28 9 -7
BITMAP
E0
E0
E0
E0
E0
E0
E0
E0
E0
E0
E0
E0
E0
E0
E0
E0
E0
E0
E0
E0
E0
E0
E0
E0
60
70
1C
06
ENDCHAR
STARTCHAR EFE2
ENCODING 61410
SWIDTH 720 0
DWIDTH 20 0
BBX 8 28 4 -7
BITMAP
07
07
07
07
07
07
07
07
06
06
0E
0C
38
C0
E0
38
0C
0E
06
06
07
07
07
07
07
07
07
07
ENDCHAR
STARTCHAR EFE3
ENCODING 61411
SWIDTH 720 0
DWIDTH 20 0
BBX 7 28 9 -7
BITMAP
0E
38
70
60
E0
E0
E0
E0
E0
E0
E0
E0
E0
E0
E0
E0
E0
E0
E0
E0
E0
E0
E0
E0
E0
E0
E0
E0
ENDCHAR
STARTCHAR EFE4
ENCODING 61412
SWIDTH 720 0
DWIDTH 20 0
BBX 11 30 0 -5
BITMAP
0060
0060
0060
0060
0060
0060
0060
0060
0060
0060
0060
0060
0060
0060
0060
0060
0060
0060
0060
0060
0060
0060
0060
0060
0060
0060
0060
0060
FFE0
FFE0
ENDCHAR
STARTCHAR EFE5
ENCODING 61413
SWIDTH 720 0
DWIDTH 20 0
BBX 11 30 0 -6
BITMAP
FFE0
FFE0
0060
0060
0060
0060
0060
0060
0060
0060
0060
0060
0060
0060
0060
0060
0060
0060
0060
0060
0060
0060
0060
0060
0060
0060
0060
0060
0060
0060
ENDCHAR
STARTCHAR EFE6
ENCODING 61414
SWIDTH 720 0
DWIDTH 20 0
BBX 11 30 9 -5
BITMAP
C000
C000
C000
C000
C000
C000
C000
C000
C000
C000
C000
C000
C000
C000
C000
C000
C000
C000
C000
C000
C000
C000
C000
C000
C000
C000
C000
C000
FFE0
FFE0
ENDCHAR
STARTCHAR EFE7
ENCODING 61415
SWIDTH 720 0
DWIDTH 20 0
BBX 11 30 9 -6
BITMAP
FFE0
FFE0
C000
C000
C000
C000
C000
C000
C000
C000
C000
C000
C000
C000
C000
C000
C000
C000
C000
C000
C000
C000
C000
C000
C000
C000
C000
C000
C000
C000
ENDCHAR
STARTCHAR EFE8
ENCODING 61416
SWIDTH 720 0
DWIDTH 20 0
BBX 20 2 0 7
BITMAP
FFFFF0
FFFFF0
ENDCHAR
STARTCHAR EFE9
ENCODING 61417
SWIDTH 720 0
DWIDTH 20 0
BBX 20 4 0 22
BITMAP
000700
0001C0
FFFFF0
FFFFF0
ENDCHAR
STARTCHAR EFEA
ENCODING 61418
SWIDTH 720 0
DWIDTH 20 0
BBX 20 2 0 22
BITMAP
FFFFF0
FFFFF0
ENDCHAR
STARTCHAR EFEB
ENCODING 61419
SWIDTH 720 0
DWIDTH 20 0
BBX 20 2 0 -5
BITMAP
FFFFF0
FFFFF0
ENDCHAR
STARTCHAR EFEC
ENCODING 61420
SWIDTH 540 0
DWIDTH 15 0
BBX 13 14 1 0
BITMAP
0FE0
1FF0
3838
3818
3800
1F00
3F80
7800
E000
E030
E030
70F0
3FE0
1F80
ENDCHAR
STARTCHAR EFFA
ENCODING 61434
SWIDTH 1008 0
DWIDTH 28 0
BBX 20 20 4 0
BITMAP
00F000
07FE00
0FFF00
1FFF80
3FFFC0
7FFFE0
7FFFE0
FFFFE0
FFFFF0
FFFFF0
FFFFF0
FFFFF0
FFFFE0
7FFFE0
7FFFE0
3FFFC0
3FFF80
1FFF00
07FE00
01F800
ENDCHAR
STARTCHAR EFFB
ENCODING 61435
SWIDTH 1008 0
DWIDTH 28 0
BBX 20 20 4 0
BITMAP
FFFFF0
FFFFF0
FFFFF0
FFFFF0
FFFFF0
FFFFF0
FFFFF0
FFFFF0
FFFFF0
FFFFF0
FFFFF0
FFFFF0
FFFFF0
FFFFF0
FFFFF0
FFFFF0
FFFFF0
FFFFF0
FFFFF0
FFFFF0
ENDCHAR
STARTCHAR EFFC
ENCODING 61436
SWIDTH 1008 0
DWIDTH 28 0
BBX 20 20 4 0
BITMAP
FFFFF0
800010
800010
800010
800010
800010
800010
800010
800010
800010
800010
800010
800010
800010
800010
800010
800010
800010
800010
FFFFF0
ENDCHAR
STARTCHAR EFFD
ENCODING 61437
SWIDTH 1008 0
DWIDTH 28 0
BBX 20 20 4 0
BITMAP
01F800
060E00
180180
3000C0
200040
400020
400020
800030
800010
800010
800010
800010
C00030
400020
400020
200040
300080
180100
060600
01F800
ENDCHAR
STARTCHAR EFFE
ENCODING 61438
SWIDTH 792 0
DWIDTH 22 0
BBX 19 19 1 0
BITMAP
00FF00
03C380
06C1C0
1CC1E0
19C0E0
31C0E0
71E0E0
61E1C0
61E1C0
60F700
E0FC00
E0F000
607000
607000
707000
307000
386000
1CE000
078000
ENDCHAR
STARTCHAR EFFF
ENCODING 61439
SWIDTH 504 0
DWIDTH 14 0
BBX 13 13 0 7
BITMAP
0780
1860
2010
4CD8
4CC8
4CC8
8D48
4B48
4B48
4B48
2010
1860
0F80
ENDCHAR
STARTCHAR FB00
ENCODING 64256
SWIDTH 540 0
DWIDTH 15 0
BBX 14 20 1 0
BITMAP
1C3C
3C7C
3070
7060
7060
FDFC
FDFC
7060
7060
7060
7060
7060
7060
7060
7060
7060
7060
7060
7060
7060
ENDCHAR
STARTCHAR FB01
ENCODING 64257
SWIDTH 504 0
DWIDTH 14 0
BBX 12 20 0 0
BITMAP
0E30
1E30
3830
3800
3800
FE30
FE30
3830
3830
3830
3830
3830
3830
3830
3830
3830
3830
3830
3830
3830
ENDCHAR
STARTCHAR FB02
ENCODING 64258
SWIDTH 504 0
DWIDTH 14 0
BBX 12 20 0 0
BITMAP
0E30
1E30
3830
3830
3830
FE30
FE30
3830
3830
3830
3830
3830
3830
3830
3830
3830
3830
3830
3830
3830
ENDCHAR
STARTCHAR FB03
ENCODING 64259
SWIDTH 792 0
DWIDTH 22 0
BBX 19 20 1 0
BITMAP
1C1CE0
3C3CE0
3070E0
706000
706000
FDFCE0
FDFCE0
7060E0
7060E0
7060E0
7060E0
7060E0
7060E0
7060E0
7060E0
7060E0
7060E0
7060E0
7060E0
7060E0
ENDCHAR
STARTCHAR FB04
ENCODING 64260
SWIDTH 792 0
DWIDTH 22 0
BBX 19 20 1 0
BITMAP
1C1CE0
3C3CE0
3070E0
7060E0
7060E0
FDFCE0
FDFCE0
7060E0
7060E0
7060E0
7060E0
7060E0
7060E0
7060E0
7060E0
7060E0
7060E0
7060E0
7060E0
7060E0
ENDCHAR
ENDFONT
